<svg width="34" height="34" viewBox="0 0 34 34" fill="none" xmlns="http://www.w3.org/2000/svg">
<g filter="url(#filter0_d_2001_984)">
<path d="M17 0C9.82029 0 4 5.82029 4 13C4 20.1797 9.82029 26 17 26C24.1797 26 30 20.1797 30 13C30 5.82029 24.1797 0 17 0ZM23.7569 8.22331L21.448 19.2461C21.42 19.3794 21.3591 19.5036 21.2706 19.6072C21.1822 19.7108 21.0691 19.7905 20.9418 19.839C20.8145 19.8875 20.6771 19.9032 20.5421 19.8847C20.4072 19.8663 20.279 19.8142 20.1695 19.7332L16.811 17.252L14.7763 19.1715C14.7497 19.1967 14.7183 19.2162 14.684 19.2291C14.6497 19.242 14.6132 19.2479 14.5766 19.2465C14.54 19.2451 14.5041 19.2365 14.4709 19.221C14.4377 19.2056 14.4079 19.1837 14.3832 19.1566L14.3395 19.1086L14.6931 15.6872L21.0653 9.86507C21.0968 9.83633 21.1164 9.79681 21.1202 9.75433C21.124 9.71185 21.1118 9.66948 21.0859 9.63558C21.06 9.60168 21.0223 9.57872 20.9804 9.57122C20.9384 9.56372 20.8951 9.57223 20.8591 9.59507L12.7097 14.7529L9.2 13.5742C9.10668 13.5428 9.02534 13.4834 8.96715 13.404C8.90896 13.3246 8.87677 13.2291 8.87499 13.1307C8.87321 13.0322 8.90193 12.9356 8.95721 12.8542C9.01249 12.7727 9.09162 12.7104 9.18375 12.6757L22.916 7.50262C23.0219 7.46276 23.1366 7.45209 23.2481 7.47172C23.3596 7.49135 23.4637 7.54056 23.5497 7.61422C23.6356 7.68787 23.7002 7.78326 23.7366 7.89041C23.7731 7.99756 23.7801 8.11253 23.7569 8.22331Z" fill="#F0F5FB"/>
</g>
<defs>
<filter id="filter0_d_2001_984" x="0" y="0" width="34" height="34" filterUnits="userSpaceOnUse" color-interpolation-filters="sRGB">
<feFlood flood-opacity="0" result="BackgroundImageFix"/>
<feColorMatrix in="SourceAlpha" type="matrix" values="0 0 0 0 0 0 0 0 0 0 0 0 0 0 0 0 0 0 127 0" result="hardAlpha"/>
<feOffset dy="4"/>
<feGaussianBlur stdDeviation="2"/>
<feComposite in2="hardAlpha" operator="out"/>
<feColorMatrix type="matrix" values="0 0 0 0 0 0 0 0 0 0 0 0 0 0 0 0 0 0 0.25 0"/>
<feBlend mode="normal" in2="BackgroundImageFix" result="effect1_dropShadow_2001_984"/>
<feBlend mode="normal" in="SourceGraphic" in2="effect1_dropShadow_2001_984" result="shape"/>
</filter>
</defs>
</svg>
