<svg width="20" height="20" viewBox="0 0 20 20" fill="none" xmlns="http://www.w3.org/2000/svg">
<path d="M17.6545 3.25466C17.1984 2.797 16.6565 2.43388 16.0598 2.18611C15.4631 1.93833 14.8233 1.81079 14.1772 1.81079C13.5311 1.81079 12.8914 1.93833 12.2947 2.18611C11.6979 2.43388 11.156 2.797 10.6999 3.25466L9.99995 3.96375L9.29995 3.25466C8.84387 2.797 8.30195 2.43388 7.70524 2.18611C7.10853 1.93833 6.46878 1.81079 5.82267 1.81079C5.17657 1.81079 4.53682 1.93833 3.94011 2.18611C3.3434 2.43388 2.80147 2.797 2.3454 3.25466C0.418127 5.18193 0.299945 8.43648 2.72722 10.9092L9.99995 18.1819L17.2727 10.9092C19.6999 8.43648 19.5818 5.18193 17.6545 3.25466Z" stroke="white" stroke-width="1.8" stroke-linecap="round" stroke-linejoin="round"/>
<path d="M17.6545 3.25466C17.1984 2.797 16.6565 2.43388 16.0598 2.18611C15.4631 1.93833 14.8233 1.81079 14.1772 1.81079C13.5311 1.81079 12.8914 1.93833 12.2947 2.18611C11.6979 2.43388 11.156 2.797 10.6999 3.25466L9.99995 3.96375L9.29995 3.25466C8.84387 2.797 8.30195 2.43388 7.70524 2.18611C7.10853 1.93833 6.46878 1.81079 5.82267 1.81079C5.17657 1.81079 4.53682 1.93833 3.94011 2.18611C3.3434 2.43388 2.80147 2.797 2.3454 3.25466C0.418127 5.18193 0.299945 8.43648 2.72722 10.9092L9.99995 18.1819L17.2727 10.9092C19.6999 8.43648 19.5818 5.18193 17.6545 3.25466Z" stroke="url(#paint0_linear_2001_956)" stroke-width="1.8" stroke-linecap="round" stroke-linejoin="round"/>
<defs>
<linearGradient id="paint0_linear_2001_956" x1="0.423623" y1="24.0049" x2="18.6422" y2="18.0308" gradientUnits="userSpaceOnUse">
<stop stop-color="#0D748B"/>
<stop offset="1" stop-color="#1A0B73"/>
</linearGradient>
</defs>
</svg>
