<svg width="20" height="20" viewBox="0 0 20 20" fill="none" xmlns="http://www.w3.org/2000/svg">
<path d="M8.37158 0.403076C12.7726 0.403076 16.3403 3.97081 16.3403 8.37183C16.3403 10.2478 15.6897 11.9704 14.605 13.3318L19.5835 18.3113C19.9349 18.6628 19.935 19.2323 19.5835 19.5837C19.232 19.9352 18.6625 19.9352 18.311 19.5837L13.3315 14.6052C11.9702 15.6899 10.2475 16.3406 8.37158 16.3406C3.97056 16.3406 0.402832 12.7728 0.402832 8.37183C0.402832 3.97081 3.97056 0.403076 8.37158 0.403076ZM8.37158 2.20288C4.96468 2.20288 2.20264 4.96492 2.20264 8.37183C2.20264 11.7787 4.96468 14.5408 8.37158 14.5408C11.7785 14.5408 14.5405 11.7787 14.5405 8.37183C14.5405 4.96492 11.7785 2.20288 8.37158 2.20288Z" fill="white"/>
<path d="M8.37158 0.403076C12.7726 0.403076 16.3403 3.97081 16.3403 8.37183C16.3403 10.2478 15.6897 11.9704 14.605 13.3318L19.5835 18.3113C19.9349 18.6628 19.935 19.2323 19.5835 19.5837C19.232 19.9352 18.6625 19.9352 18.311 19.5837L13.3315 14.6052C11.9702 15.6899 10.2475 16.3406 8.37158 16.3406C3.97056 16.3406 0.402832 12.7728 0.402832 8.37183C0.402832 3.97081 3.97056 0.403076 8.37158 0.403076ZM8.37158 2.20288C4.96468 2.20288 2.20264 4.96492 2.20264 8.37183C2.20264 11.7787 4.96468 14.5408 8.37158 14.5408C11.7785 14.5408 14.5405 11.7787 14.5405 8.37183C14.5405 4.96492 11.7785 2.20288 8.37158 2.20288Z" fill="url(#paint0_linear_2001_963)"/>
<defs>
<linearGradient id="paint0_linear_2001_963" x1="-0.108207" y1="26.7635" x2="19.727" y2="20.9116" gradientUnits="userSpaceOnUse">
<stop stop-color="#0D748B"/>
<stop offset="1" stop-color="#1A0B73"/>
</linearGradient>
</defs>
</svg>
