<svg width="216" height="200" viewBox="0 0 216 200" fill="none" xmlns="http://www.w3.org/2000/svg">
<path opacity="0.5" d="M186.207 124.932L192.716 128.716V143.851L186.207 140.068V124.932Z" fill="#5CFFF3"/>
<path opacity="0.2" d="M179.698 128.716L186.207 132.5V140.068L179.698 136.284V128.716Z" fill="#5CFFF3"/>
<path opacity="0.5" d="M173.189 102.162L179.698 105.946V136.284L173.189 132.5V102.162Z" fill="#5CFFF3"/>
<path opacity="0.2" d="M166.68 90.8108L173.189 94.5946V132.5L166.68 128.716V90.8108Z" fill="#5CFFF3"/>
<path opacity="0.5" d="M160.171 94.5945L166.68 98.3783V128.716L160.171 124.932V94.5945Z" fill="#5CFFF3"/>
<path opacity="0.2" d="M153.663 68.1082L160.171 71.8919V124.932L153.663 121.149V68.1082Z" fill="#5CFFF3"/>
<path opacity="0.5" d="M147.154 71.8918L153.663 75.6756V121.149L147.154 117.297V71.8918Z" fill="#5CFFF3"/>
<path opacity="0.2" d="M140.645 75.6758L147.154 79.4596V117.297L140.645 113.514V75.6758Z" fill="#5CFFF3"/>
<path opacity="0.5" d="M134.136 56.7568L140.645 60.5406V113.514L134.136 109.73V56.7568Z" fill="#5CFFF3"/>
<path opacity="0.2" d="M127.627 37.8379L134.136 41.6217V109.73L127.627 105.946V37.8379Z" fill="#5CFFF3"/>
<path opacity="0.5" d="M121.118 41.6216L127.627 45.4054V105.946L121.118 102.162V41.6216Z" fill="#5CFFF3"/>
<path opacity="0.2" d="M114.609 22.7026L121.118 26.4864V102.162L114.609 98.3783V22.7026Z" fill="#5CFFF3"/>
<path opacity="0.5" d="M108.101 18.9189L114.609 22.7027V98.3784L108.101 94.5946V18.9189Z" fill="#5CFFF3"/>
<path opacity="0.2" d="M101.592 0L108.101 3.78378V94.5946L101.592 90.8108V0Z" fill="#5CFFF3"/>
<path opacity="0.4" d="M107.966 200C140.912 200 167.62 184.481 167.62 165.338C167.62 146.195 140.912 130.676 107.966 130.676C75.0207 130.676 48.313 146.195 48.313 165.338C48.313 184.481 75.0207 200 107.966 200Z" fill="#0F054C"/>
<path d="M107.966 186.216C145.47 186.216 175.873 168.55 175.873 146.757C175.873 124.964 145.47 107.297 107.966 107.297C70.4625 107.297 40.0596 124.964 40.0596 146.757C40.0596 168.55 70.4625 186.216 107.966 186.216Z" fill="url(#paint0_linear_2001_193)"/>
<path opacity="0.48" d="M175.873 133.716H174.196C171.445 126.689 165.405 120 156.011 114.527C129.506 99.1218 86.5611 99.1218 59.9889 114.527C51.1314 119.662 45.2265 125.946 42.274 132.568H40.1268V141.284C39.59 151.757 46.233 162.365 59.9889 170.338C86.494 185.743 129.439 185.743 156.011 170.338C169.297 162.635 175.873 152.568 175.873 142.433V133.716Z" fill="url(#paint1_linear_2001_193)"/>
<path opacity="0.48" d="M175.873 133.716H174.196C171.445 126.689 165.405 120 156.011 114.527C129.506 99.1218 86.5611 99.1218 59.9889 114.527C51.1314 119.662 45.2265 125.946 42.274 132.568H40.1268V141.284C39.59 151.757 46.233 162.365 59.9889 170.338C86.494 185.743 129.439 185.743 156.011 170.338C169.297 162.635 175.873 152.568 175.873 142.433V133.716Z" fill="url(#paint2_linear_2001_193)"/>
<path opacity="0.48" d="M175.873 133.716H174.196C171.445 126.689 165.405 120 156.011 114.527C129.506 99.1218 86.5611 99.1218 59.9889 114.527C51.1314 119.662 45.2265 125.946 42.274 132.568H40.1268V141.284C39.59 151.757 46.233 162.365 59.9889 170.338C86.494 185.743 129.439 185.743 156.011 170.338C169.297 162.635 175.873 152.568 175.873 142.433V133.716Z" fill="url(#paint3_linear_2001_193)"/>
<path d="M175.873 130.338H174.196C171.445 123.311 165.405 116.622 156.011 111.149C129.506 95.7434 86.5611 95.7434 59.9889 111.149C51.1314 116.284 45.2265 122.568 42.274 129.189H40.1268V137.906C39.59 148.379 46.233 158.987 59.9889 166.96C86.494 182.365 129.439 182.365 156.011 166.96C169.297 159.257 175.873 149.189 175.873 139.054V130.338Z" fill="url(#paint4_linear_2001_193)"/>
<path opacity="0.48" d="M174.196 130.338C174.129 130.068 173.994 129.865 173.927 129.595V123.851H170.371V123.446C169.499 122.23 168.492 121.014 167.351 119.865V123.851H165.338V117.905C164.399 117.027 163.392 116.216 162.319 115.338V123.851H160.306V113.851C159.366 113.176 158.293 112.5 157.286 111.892V123.851H155.273V110.676C154.267 110.135 153.26 109.595 152.254 109.054V123.851H150.24V108.108C149.234 107.635 148.227 107.23 147.154 106.757V123.851H145.141V110H142.054V123.851H140.041V113.851H136.954V123.919H134.941V117.703H131.855V123.919H129.909V121.487H126.755V123.919H89.3122V121.487H86.2256V123.919H84.2796V117.703H81.1258V123.919H79.1128V113.851H76.0261V123.919H74.0131V110.068H70.9264V123.919H68.9133V106.824C67.9068 107.23 66.8332 107.703 65.8267 108.176V123.919H63.8136V109.122C62.8071 109.662 61.7335 110.203 60.7941 110.743V123.919H58.781V111.892C57.7074 112.568 56.7009 113.176 55.7614 113.851V123.851H53.7484V115.338C52.6748 116.149 51.6682 117.027 50.7288 117.905V123.919H48.7158V119.933C47.575 121.081 46.5685 122.297 45.6962 123.514V123.987H42.1398V129.257H40.6636V143.919C41.2004 146.554 42.2069 149.189 43.6831 151.689V142.5H45.7633V154.797C46.6356 156.014 47.6421 157.162 48.7829 158.378V142.568H50.7959V160.405C51.7353 161.284 52.7419 162.095 53.8155 162.973V142.635H55.8285V164.46C56.768 165.135 57.8416 165.811 58.8481 166.419V142.568H60.8612V167.568C61.8677 168.108 62.8742 168.649 63.8807 169.189V142.568H65.8938V170.135C66.9003 170.608 67.9068 171.014 68.9804 171.487V142.568H70.9935V172.297C72 172.703 73.0065 173.041 74.0802 173.378V142.568H76.0932V173.987C77.0997 174.324 78.1063 174.595 79.1799 174.865V142.5H81.1929V175.338C82.1995 175.608 83.2731 175.811 84.2796 176.081V142.5H86.2256V176.487C87.2321 176.689 88.3057 176.892 89.3122 177.027V142.5H91.2582V177.365C92.2647 177.5 93.3383 177.635 94.3448 177.77V142.5H96.2908V177.973C97.2973 178.108 98.3709 178.176 99.3775 178.243V142.5H101.323V178.378C102.397 178.446 103.404 178.514 104.477 178.514V142.5H106.423V178.581C107.497 178.581 108.503 178.581 109.577 178.581V142.5H111.523V178.514C112.596 178.514 113.603 178.446 114.677 178.378V142.5H116.623V178.243C117.696 178.176 118.703 178.108 119.709 177.973V142.5H121.655V177.77C122.729 177.635 123.735 177.5 124.742 177.365V142.5H126.688V177.027C127.694 176.824 128.768 176.689 129.774 176.487V142.5H131.72V176.014C132.727 175.811 133.801 175.541 134.807 175.27V142.433H136.82V174.797C137.827 174.527 138.9 174.189 139.907 173.919V142.5H141.92V173.311C142.926 172.973 144 172.568 145.007 172.23V142.568H147.02V171.487C148.026 171.081 149.1 170.608 150.106 170.135V142.568H152.119V169.189C153.126 168.649 154.199 168.108 155.139 167.568V142.568H157.152V166.351C158.226 165.676 159.232 165.068 160.172 164.392V142.568H162.185V162.905C163.258 162.095 164.265 161.216 165.204 160.338V142.568H167.217V158.378C168.358 157.23 169.364 156.014 170.237 154.797V142.568H172.317V151.689C173.793 149.122 174.8 146.487 175.336 143.851V130.473L174.196 130.338Z" fill="url(#paint5_linear_2001_193)"/>
<path d="M107.966 169.797C145.47 169.797 175.873 152.131 175.873 130.338C175.873 108.545 145.47 90.8784 107.966 90.8784C70.4625 90.8784 40.0596 108.545 40.0596 130.338C40.0596 152.131 70.4625 169.797 107.966 169.797Z" fill="url(#paint6_linear_2001_193)"/>
<path opacity="0.3" d="M108.033 90.8784C92.6672 90.8784 77.301 93.919 64.753 99.9325L44.4883 144.257C47.7763 149.324 52.9431 154.122 59.9887 158.243C64.3503 160.811 69.1817 162.905 74.3485 164.595L108.033 90.8784Z" fill="#42E8E0"/>
<path opacity="0.3" d="M127.023 92.5L92.1978 168.784C100.518 169.932 109.174 170.135 117.629 169.459L149.704 99.2568C142.792 96.0811 135.076 93.8514 127.023 92.5Z" fill="#42E8E0"/>
<g opacity="0.05">
<path d="M107.966 165.27C141.171 165.27 168.089 149.631 168.089 130.338C168.089 111.045 141.171 95.4055 107.966 95.4055C74.7613 95.4055 47.8433 111.045 47.8433 130.338C47.8433 149.631 74.7613 165.27 107.966 165.27Z" fill="url(#paint7_linear_2001_193)"/>
<path d="M0.603914 130.203L0 129.865L104.678 68.9866L105.349 69.3244L0.603914 130.203Z" fill="#42E8E0"/>
<path d="M2.48254 131.284L1.81152 130.946L106.557 70.0676L107.161 70.4055L2.48254 131.284Z" fill="#42E8E0"/>
<path d="M4.29434 132.365L3.69043 131.959L108.369 71.0811L109.04 71.4865L4.29434 132.365Z" fill="#42E8E0"/>
<path d="M6.17346 133.446L5.50244 133.041L110.248 72.1624L110.852 72.5678L6.17346 133.446Z" fill="#42E8E0"/>
<path d="M7.98526 134.527L7.38135 134.122L112.06 73.2434L112.731 73.6488L7.98526 134.527Z" fill="#42E8E0"/>
<path d="M9.86389 135.608L9.19287 135.203L113.938 74.3245L114.542 74.7299L9.86389 135.608Z" fill="#42E8E0"/>
<path d="M11.6757 136.622L11.0718 136.284L115.75 75.4055L116.421 75.7434L11.6757 136.622Z" fill="#42E8E0"/>
<path d="M13.5543 137.703L12.8833 137.365L117.629 76.4866L118.233 76.8244L13.5543 137.703Z" fill="#42E8E0"/>
<path d="M15.3661 138.784L14.7622 138.446L119.441 77.5676L120.112 77.9055L15.3661 138.784Z" fill="#42E8E0"/>
<path d="M17.2452 139.865L16.5742 139.527L121.32 78.6487L121.924 78.9865L17.2452 139.865Z" fill="#42E8E0"/>
<path d="M19.057 140.946L18.4531 140.541L123.132 79.6624L123.803 80.0678L19.057 140.946Z" fill="#42E8E0"/>
<path d="M20.9357 142.027L20.2646 141.622L125.01 80.7434L125.614 81.1488L20.9357 142.027Z" fill="#42E8E0"/>
<path d="M22.7475 143.108L22.1436 142.703L126.822 81.8245L127.493 82.2299L22.7475 143.108Z" fill="#42E8E0"/>
<path d="M24.6261 144.189L23.9551 143.784L128.701 82.9055L129.305 83.3109L24.6261 144.189Z" fill="#42E8E0"/>
<path d="M26.4379 145.203L25.834 144.865L130.512 83.9866L131.183 84.3244L26.4379 145.203Z" fill="#42E8E0"/>
<path d="M28.317 146.284L27.646 145.946L132.392 85.0676L132.995 85.4055L28.317 146.284Z" fill="#42E8E0"/>
<path d="M30.1288 147.365L29.5249 147.027L134.203 86.1487L134.874 86.4865L30.1288 147.365Z" fill="#42E8E0"/>
<path d="M32.0074 148.446L31.3364 148.041L136.082 87.1624L136.686 87.5678L32.0074 148.446Z" fill="#42E8E0"/>
<path d="M33.8192 149.527L33.2153 149.122L137.894 88.2434L138.565 88.6488L33.8192 149.527Z" fill="#42E8E0"/>
<path d="M35.6979 150.608L35.0269 150.203L139.772 89.3245L140.376 89.7299L35.6979 150.608Z" fill="#42E8E0"/>
<path d="M37.5097 151.689L36.9058 151.284L141.584 90.4055L142.255 90.8109L37.5097 151.689Z" fill="#42E8E0"/>
<path d="M39.3888 152.77L38.7178 152.365L143.463 91.4866L144.067 91.892L39.3888 152.77Z" fill="#42E8E0"/>
<path d="M41.2006 153.784L40.5967 153.446L145.275 92.5676L145.946 92.9055L41.2006 153.784Z" fill="#42E8E0"/>
<path d="M43.0792 154.865L42.4082 154.527L147.154 93.6487L147.758 93.9865L43.0792 154.865Z" fill="#42E8E0"/>
<path d="M44.891 155.946L44.2871 155.608L148.966 94.7297L149.637 95.0676L44.891 155.946Z" fill="#42E8E0"/>
<path d="M46.7696 157.027L46.0986 156.622L150.844 95.7434L151.448 96.1488L46.7696 157.027Z" fill="#42E8E0"/>
<path d="M48.5817 158.108L47.9106 157.703L152.656 96.8245L153.327 97.2299L48.5817 158.108Z" fill="#42E8E0"/>
<path d="M50.4606 159.189L49.7896 158.784L154.535 97.9055L155.139 98.3109L50.4606 159.189Z" fill="#42E8E0"/>
<path d="M52.2721 160.27L51.6011 159.865L156.347 98.9866L157.018 99.392L52.2721 160.27Z" fill="#42E8E0"/>
<path d="M54.151 161.351L53.48 160.946L158.226 100.068L158.829 100.473L54.151 161.351Z" fill="#42E8E0"/>
<path d="M55.9625 162.365L55.2915 162.027L160.037 101.149L160.708 101.487L55.9625 162.365Z" fill="#42E8E0"/>
<path d="M57.8414 163.446L57.1704 163.108L161.916 102.23L162.52 102.568L57.8414 163.446Z" fill="#42E8E0"/>
<path d="M59.6534 164.527L58.9824 164.189L163.728 103.311L164.399 103.649L59.6534 164.527Z" fill="#42E8E0"/>
<path d="M61.5323 165.608L60.8613 165.203L165.607 104.324L166.211 104.73L61.5323 165.608Z" fill="#42E8E0"/>
<path d="M63.3439 166.689L62.6729 166.284L167.418 105.406L168.089 105.811L63.3439 166.689Z" fill="#42E8E0"/>
<path d="M65.2228 167.77L64.5518 167.365L169.297 106.487L169.901 106.892L65.2228 167.77Z" fill="#42E8E0"/>
<path d="M67.0343 168.851L66.3633 168.446L171.109 107.568L171.78 107.973L67.0343 168.851Z" fill="#42E8E0"/>
<path d="M68.9132 169.932L68.2422 169.527L172.988 108.649L173.592 108.987L68.9132 169.932Z" fill="#42E8E0"/>
<path d="M70.7252 170.946L70.0542 170.608L174.8 109.73L175.471 110.068L70.7252 170.946Z" fill="#42E8E0"/>
<path d="M72.537 172.027L71.9331 171.689L176.679 110.811L177.283 111.149L72.537 172.027Z" fill="#42E8E0"/>
<path d="M74.4156 173.108L73.7446 172.77L178.49 111.892L179.161 112.23L74.4156 173.108Z" fill="#42E8E0"/>
<path d="M76.2274 174.189L75.6235 173.784L180.369 112.906L180.973 113.311L76.2274 174.189Z" fill="#42E8E0"/>
<path d="M78.1061 175.27L77.4351 174.865L182.181 113.987L182.852 114.392L78.1061 175.27Z" fill="#42E8E0"/>
<path d="M79.9179 176.351L79.314 175.946L183.992 115.068L184.663 115.473L79.9179 176.351Z" fill="#42E8E0"/>
<path d="M81.797 177.432L81.126 177.027L185.872 116.149L186.543 116.554L81.797 177.432Z" fill="#42E8E0"/>
<path d="M83.6088 178.446L83.0049 178.108L187.683 117.23L188.354 117.568L83.6088 178.446Z" fill="#42E8E0"/>
<path d="M85.4874 179.527L84.8164 179.189L189.562 118.311L190.233 118.649L85.4874 179.527Z" fill="#42E8E0"/>
<path d="M87.2992 180.608L86.6953 180.27L191.374 119.392L192.045 119.73L87.2992 180.608Z" fill="#42E8E0"/>
<path d="M89.1779 181.689L88.5068 181.352L193.252 120.473L193.923 120.811L89.1779 181.689Z" fill="#42E8E0"/>
<path d="M90.9897 182.77L90.3857 182.365L195.064 121.487L195.735 121.892L90.9897 182.77Z" fill="#42E8E0"/>
<path d="M92.8688 183.851L92.1978 183.446L196.943 122.568L197.614 122.973L92.8688 183.851Z" fill="#42E8E0"/>
<path d="M94.6801 184.932L94.0762 184.527L198.755 123.649L199.426 124.054L94.6801 184.932Z" fill="#42E8E0"/>
<path d="M96.5592 186.014L95.8882 185.608L200.634 124.73L201.305 125.135L96.5592 186.014Z" fill="#42E8E0"/>
<path d="M98.371 187.027L97.7671 186.689L202.446 125.811L203.117 126.149L98.371 187.027Z" fill="#42E8E0"/>
<path d="M100.25 188.108L99.5786 187.77L204.324 126.892L204.995 127.23L100.25 188.108Z" fill="#42E8E0"/>
<path d="M102.061 189.189L101.458 188.852L206.136 127.973L206.807 128.311L102.061 189.189Z" fill="#42E8E0"/>
<path d="M103.941 190.27L103.27 189.933L208.015 129.054L208.619 129.392L103.941 190.27Z" fill="#42E8E0"/>
<path d="M105.752 191.351L105.148 190.946L209.826 130.068L210.497 130.473L105.752 191.351Z" fill="#42E8E0"/>
<path d="M107.631 192.432L106.96 192.027L211.706 131.149L212.309 131.554L107.631 192.432Z" fill="#42E8E0"/>
<path d="M109.443 193.514L108.839 193.108L213.517 132.23L214.188 132.635L109.443 193.514Z" fill="#42E8E0"/>
<path d="M111.321 194.595L110.65 194.189L215.396 133.311L216 133.716L111.321 194.595Z" fill="#42E8E0"/>
</g>
<path d="M65.491 108.041C88.9765 94.3919 127.023 94.3919 150.509 108.041C161.715 114.595 167.552 123.041 168.089 131.554C168.626 122.23 162.788 112.77 150.509 105.676C127.023 92.027 88.9765 92.027 65.491 105.676C53.2114 112.77 47.3736 122.23 47.9104 131.554C48.3801 122.973 54.285 114.527 65.491 108.041Z" fill="url(#paint8_linear_2001_193)"/>
<path d="M126.553 122.973C122.93 122.635 119.44 123.243 116.085 124.73C120.112 121.351 119.172 117.905 113.267 114.392C113.133 114.324 112.999 114.257 112.865 114.122C110.851 112.905 108.838 112.027 106.758 111.487C104.544 110.878 102.464 110.541 100.518 110.541C98.5719 110.541 96.6259 110.811 94.5458 111.351C93.4722 111.622 92.3985 111.96 91.4591 112.297L87.7014 110.068L82.132 113.311L85.2187 115.135C84.6819 115.405 84.078 115.743 83.5411 116.081L81.5281 117.297L78.4414 115.473L72.872 118.716L75.9587 120.541L72.1339 122.77L70.6576 123.649L70.255 123.851L63.8804 127.568L69.4498 130.811L75.8245 127.095L116.018 150.473L109.644 154.189L115.213 157.432L121.588 153.716L123.534 152.635L127.358 150.405L130.512 152.23L136.082 148.987L134.069 147.838L132.928 147.162L136.618 145L139.772 146.824L145.342 143.581L143.329 142.432L141.718 141.487C143.933 139.527 145.073 137.635 145.207 135.676C145.342 132.77 142.926 129.797 137.961 126.892C137.826 126.824 137.759 126.757 137.625 126.689C133.867 124.46 130.177 123.311 126.553 122.973ZM89.1777 121.622L90.9894 120.608C95.4181 118.041 99.6455 117.905 103.739 120.27C106.087 121.622 107.429 122.905 107.631 124.054C107.832 125.203 106.758 126.487 104.276 127.905L102.128 129.189L89.1777 121.622ZM124.943 142.432L109.577 133.514L111.791 132.23C114.341 130.743 116.689 130.068 118.904 130.203C121.118 130.338 123.668 131.216 126.553 132.905C129.103 134.392 130.512 135.811 130.714 137.095C130.915 138.378 129.774 139.73 127.358 141.149L124.943 142.432Z" fill="url(#paint9_linear_2001_193)"/>
<path d="M72.8721 114.122V117.703L75.9587 115.946L72.8721 114.122Z" fill="url(#paint10_linear_2001_193)"/>
<path d="M82.1323 108.716V112.297L85.2861 110.541L82.1323 108.716Z" fill="url(#paint11_linear_2001_193)"/>
<path d="M118.568 115.946V120.203L115.75 118.446L118.568 115.946Z" fill="url(#paint12_linear_2001_193)"/>
<path d="M145.141 130.338V135.608L140.98 132.973L145.141 130.338Z" fill="url(#paint13_linear_2001_193)"/>
<path d="M126.553 118.446C122.93 118.108 119.44 118.716 116.085 120.203C120.112 116.824 119.172 113.378 113.267 109.865C113.133 109.797 112.999 109.73 112.865 109.595C110.851 108.378 108.838 107.5 106.758 106.959C104.544 106.351 102.464 106.013 100.518 106.013C98.5719 106.013 96.6259 106.284 94.5458 106.824C93.4722 107.095 92.3985 107.432 91.4591 107.77L87.7014 105.541L82.132 108.784L85.2187 110.608C84.6819 110.878 84.078 111.216 83.5411 111.554L81.5281 112.77L78.4414 110.946L72.872 114.189L75.9587 116.013L72.1339 118.243L70.6576 119.122L70.255 119.324L63.8804 123.041L69.4498 126.284L75.8245 122.568L116.018 145.946L109.644 149.662L115.213 152.905L121.588 149.189L123.534 148.108L127.358 145.878L130.512 147.703L136.082 144.459L134.069 143.311L132.928 142.635L136.618 140.473L139.772 142.297L145.342 139.054L143.329 137.905L141.718 136.959C143.933 135 145.073 133.108 145.207 131.149C145.342 128.243 142.926 125.27 137.961 122.365C137.826 122.297 137.759 122.23 137.625 122.162C133.867 119.932 130.177 118.716 126.553 118.446ZM89.1777 117.095L90.9894 116.081C95.4181 113.514 99.6455 113.378 103.739 115.743C106.087 117.095 107.429 118.378 107.631 119.527C107.832 120.676 106.758 121.959 104.276 123.378L102.128 124.662L89.1777 117.095ZM124.943 137.905L109.577 128.986L111.791 127.703C114.341 126.216 116.689 125.541 118.904 125.676C121.118 125.811 123.668 126.689 126.553 128.378C129.103 129.865 130.512 131.284 130.714 132.568C130.915 133.851 129.774 135.203 127.358 136.622L124.943 137.905Z" fill="url(#paint14_linear_2001_193)"/>
<path d="M145.275 138.987V143.514L139.706 146.757V142.162L145.275 138.987Z" fill="url(#paint15_linear_2001_193)"/>
<path d="M136.015 144.324V148.919L130.445 152.094V147.567L136.015 144.324Z" fill="url(#paint16_linear_2001_193)"/>
<path d="M115.146 152.838V157.365L109.577 154.122V149.594L115.146 152.838Z" fill="url(#paint17_linear_2001_193)"/>
<path d="M63.8135 122.973V127.5L69.3829 130.743V126.216L63.8135 122.973Z" fill="url(#paint18_linear_2001_193)"/>
<path d="M75.7575 127.027V122.5L69.3828 126.216V130.743L75.7575 127.027Z" fill="url(#paint19_linear_2001_193)"/>
<path d="M75.7578 122.5V127.027L112.06 148.108L115.952 145.878L75.7578 122.5Z" fill="url(#paint20_linear_2001_193)"/>
<path d="M108.839 97.5C106.356 97.5 103.94 96.9595 102.061 95.8784C100.183 94.7973 99.1089 93.3108 99.1089 91.6892C99.1089 90.0676 100.183 88.5811 102.061 87.5C105.819 85.3379 111.925 85.3379 115.683 87.5C117.562 88.5811 118.635 90.0676 118.635 91.6892C118.635 93.3108 117.562 94.7973 115.683 95.8784C113.737 96.9595 111.254 97.5 108.839 97.5ZM108.839 86.6217C106.49 86.6217 104.209 87.1622 102.397 88.1757C100.719 89.1217 99.847 90.4054 99.847 91.6892C99.847 92.973 100.786 94.2568 102.397 95.2027C105.953 97.2973 111.724 97.2973 115.28 95.2027C116.958 94.2568 117.83 92.973 117.83 91.6892C117.83 90.4054 116.891 89.1217 115.28 88.1757C113.469 87.0946 111.12 86.6217 108.839 86.6217Z" fill="#42E8E0"/>
<path d="M112.865 93.9863C110.65 95.2701 107.027 95.2701 104.813 93.9863C102.598 92.7026 102.598 90.6079 104.813 89.3242C107.027 88.0404 110.65 88.0404 112.865 89.3242C115.079 90.6079 115.079 92.7026 112.865 93.9863Z" fill="#42E8E0"/>
<path d="M132.324 80.3377L128.365 77.9729L135.142 74.054L139.101 76.3512L132.324 80.3377Z" fill="#42E8E0"/>
<path opacity="0.8" d="M125.144 76.6891L120.112 75.2026L124.473 70.2026L129.506 71.6891L125.144 76.6891Z" fill="#42E8E0"/>
<path opacity="0.6" d="M116.354 74.4593L110.785 73.9188L112.261 68.4458L117.897 68.9188L116.354 74.4593Z" fill="#42E8E0"/>
<path opacity="0.4" d="M106.825 73.9188L101.256 74.4593L99.7798 68.9188L105.349 68.4458L106.825 73.9188Z" fill="#42E8E0"/>
<path opacity="0.2" d="M97.4987 75.2026L92.4661 76.6891L88.1045 71.6891L93.1371 70.2026L97.4987 75.2026Z" fill="#42E8E0"/>
<path opacity="0.1" d="M89.3121 77.9729L85.286 80.3377L78.5088 76.3512L82.5349 74.054L89.3121 77.9729Z" fill="#42E8E0"/>
<path opacity="0.2" d="M118.971 86.5539L117.562 85.7431L127.761 79.8647L129.171 80.6756L118.971 86.5539Z" fill="#42E8E0"/>
<path opacity="0.4" d="M115.817 84.9998L114.005 84.4593L120.514 77.0269L122.326 77.5674L115.817 84.9998Z" fill="#42E8E0"/>
<path opacity="0.6" d="M111.925 84.0539L109.912 83.9188L112.194 75.6755L114.14 75.8107L111.925 84.0539Z" fill="#42E8E0"/>
<path opacity="0.8" d="M107.698 83.9188L105.752 84.0539L103.471 75.8107L105.484 75.6755L107.698 83.9188Z" fill="#42E8E0"/>
<path d="M103.605 84.4593L101.86 84.9998L95.3511 77.5674L97.0957 77.0269L103.605 84.4593Z" fill="#42E8E0"/>
<path d="M100.048 85.7431L98.6392 86.5539L88.5068 80.6756L89.916 79.8647L100.048 85.7431Z" fill="#42E8E0"/>
<path d="M97.3645 87.6351L96.4251 88.6486L83.6758 84.8648L84.5481 83.8513L97.3645 87.6351Z" fill="#42E8E0"/>
<path d="M95.7537 89.8648L95.4182 91.0135L81.2598 89.7297L81.5953 88.5811L95.7537 89.8648Z" fill="#42E8E0"/>
<path d="M95.4182 92.2971L95.7537 93.4458L81.5953 94.7971L81.2598 93.6485L95.4182 92.2971Z" fill="#42E8E0"/>
<path d="M96.4251 94.6621L97.3645 95.7432L84.5481 99.527L83.6758 98.5135L96.4251 94.6621Z" fill="#42E8E0"/>
<path d="M98.6392 96.7566L100.048 97.5674L89.916 103.513L88.5068 102.703L98.6392 96.7566Z" fill="#42E8E0"/>
<path opacity="0.6" d="M148.697 72.5C163.594 82.973 164.466 97.9054 151.18 108.919L156.548 113.919C174.8 100.676 174.397 81.6217 155.34 68.6487L148.697 72.5Z" fill="#42E8E0"/>
<path opacity="0.2" d="M116.891 121.351C101.122 122.77 84.4136 120 72.2682 112.905C69.3829 111.216 66.9672 109.392 64.887 107.5L55.7612 109.324C58.3782 111.959 61.6662 114.527 65.5581 116.757C80.9243 125.676 102.464 128.851 122.192 126.284L116.891 121.351Z" fill="#42E8E0"/>
<path d="M48.3131 96.6891L57.4389 94.8648C55.8284 86.1486 60.794 77.0945 72.2683 70.4053C91.3252 59.3243 121.454 58.7161 141.786 68.5134L148.496 64.6621C124.473 52.7702 88.3727 53.3783 65.6253 66.554C51.4668 74.7972 45.6961 86.0134 48.3131 96.6891Z" fill="#42E8E0"/>
<path d="M103.269 111.554L99.646 109.459L145.409 82.9053L148.966 84.9323L103.269 111.554Z" fill="#42E8E0"/>
<path opacity="0.8" d="M108.302 114.459L104.746 112.432L124.608 100.878L128.164 102.905L108.302 114.459Z" fill="#42E8E0"/>
<path opacity="0.6" d="M113.738 117.635L110.181 115.54L141.786 97.1621L145.342 99.2567L113.738 117.635Z" fill="#42E8E0"/>
<path opacity="0.2" d="M119.038 120.743L115.482 118.649L140.108 104.324L143.665 106.419L119.038 120.743Z" fill="#42E8E0"/>
<defs>
<linearGradient id="paint0_linear_2001_193" x1="37.981" y1="111.245" x2="111.241" y2="224.963" gradientUnits="userSpaceOnUse">
<stop stop-color="#42E8E0"/>
<stop offset="0.0157138" stop-color="#40DDDA"/>
<stop offset="0.0920726" stop-color="#3AAEC0"/>
<stop offset="0.173" stop-color="#3484A9"/>
<stop offset="0.2573" stop-color="#2F6195"/>
<stop offset="0.3458" stop-color="#2B4486"/>
<stop offset="0.44" stop-color="#282E79"/>
<stop offset="0.5425" stop-color="#261E71"/>
<stop offset="0.6594" stop-color="#24156C"/>
<stop offset="0.8226" stop-color="#24126A"/>
</linearGradient>
<linearGradient id="paint1_linear_2001_193" x1="29.8685" y1="142.454" x2="164.269" y2="142.454" gradientUnits="userSpaceOnUse">
<stop stop-color="#42E8E0"/>
<stop offset="0.1507" stop-color="#43E3E0"/>
<stop offset="0.3285" stop-color="#45D5DF"/>
<stop offset="0.5199" stop-color="#49BDDD"/>
<stop offset="0.7209" stop-color="#4E9CDB"/>
<stop offset="0.9274" stop-color="#5472D8"/>
<stop offset="1" stop-color="#5761D7"/>
</linearGradient>
<linearGradient id="paint2_linear_2001_193" x1="29.8685" y1="142.454" x2="164.269" y2="142.454" gradientUnits="userSpaceOnUse">
<stop stop-color="#42E8E0"/>
<stop offset="0.1507" stop-color="#43E3E0"/>
<stop offset="0.3285" stop-color="#45D5DF"/>
<stop offset="0.5199" stop-color="#49BDDD"/>
<stop offset="0.7209" stop-color="#4E9CDB"/>
<stop offset="0.9274" stop-color="#5472D8"/>
<stop offset="1" stop-color="#5761D7"/>
</linearGradient>
<linearGradient id="paint3_linear_2001_193" x1="29.8685" y1="142.454" x2="164.269" y2="142.454" gradientUnits="userSpaceOnUse">
<stop stop-color="#42E8E0"/>
<stop offset="0.1507" stop-color="#43E3E0"/>
<stop offset="0.3285" stop-color="#45D5DF"/>
<stop offset="0.5199" stop-color="#49BDDD"/>
<stop offset="0.7209" stop-color="#4E9CDB"/>
<stop offset="0.9274" stop-color="#5472D8"/>
<stop offset="1" stop-color="#5761D7"/>
</linearGradient>
<linearGradient id="paint4_linear_2001_193" x1="29.8685" y1="139.072" x2="164.269" y2="139.072" gradientUnits="userSpaceOnUse">
<stop stop-color="#42E8E0"/>
<stop offset="0.0157138" stop-color="#40DDDA"/>
<stop offset="0.0920726" stop-color="#3AAEC0"/>
<stop offset="0.173" stop-color="#3484A9"/>
<stop offset="0.2573" stop-color="#2F6195"/>
<stop offset="0.3458" stop-color="#2B4486"/>
<stop offset="0.44" stop-color="#282E79"/>
<stop offset="0.5425" stop-color="#261E71"/>
<stop offset="0.6594" stop-color="#24156C"/>
<stop offset="0.8226" stop-color="#24126A"/>
</linearGradient>
<linearGradient id="paint5_linear_2001_193" x1="40.611" y1="142.651" x2="175.396" y2="142.651" gradientUnits="userSpaceOnUse">
<stop stop-color="#42E8E0"/>
<stop offset="0.1507" stop-color="#43E3E0"/>
<stop offset="0.3285" stop-color="#45D5DF"/>
<stop offset="0.5199" stop-color="#49BDDD"/>
<stop offset="0.7209" stop-color="#4E9CDB"/>
<stop offset="0.9274" stop-color="#5472D8"/>
<stop offset="1" stop-color="#5761D7"/>
</linearGradient>
<linearGradient id="paint6_linear_2001_193" x1="37.9809" y1="94.8706" x2="111.241" y2="208.589" gradientUnits="userSpaceOnUse">
<stop stop-color="#42E8E0"/>
<stop offset="0.0157138" stop-color="#40DDDA"/>
<stop offset="0.0920726" stop-color="#3AAEC0"/>
<stop offset="0.173" stop-color="#3484A9"/>
<stop offset="0.2573" stop-color="#2F6195"/>
<stop offset="0.3458" stop-color="#2B4486"/>
<stop offset="0.44" stop-color="#282E79"/>
<stop offset="0.5425" stop-color="#261E71"/>
<stop offset="0.6594" stop-color="#24156C"/>
<stop offset="0.8226" stop-color="#24126A"/>
</linearGradient>
<linearGradient id="paint7_linear_2001_193" x1="97.394" y1="77.0459" x2="131.425" y2="245.952" gradientUnits="userSpaceOnUse">
<stop stop-color="#42E8E0"/>
<stop offset="0.0157138" stop-color="#40DDDA"/>
<stop offset="0.0920726" stop-color="#3AAEC0"/>
<stop offset="0.173" stop-color="#3484A9"/>
<stop offset="0.2573" stop-color="#2F6195"/>
<stop offset="0.3458" stop-color="#2B4486"/>
<stop offset="0.44" stop-color="#282E79"/>
<stop offset="0.5425" stop-color="#261E71"/>
<stop offset="0.6594" stop-color="#24156C"/>
<stop offset="0.8226" stop-color="#24126A"/>
</linearGradient>
<linearGradient id="paint8_linear_2001_193" x1="47.884" y1="113.481" x2="168.094" y2="113.481" gradientUnits="userSpaceOnUse">
<stop stop-color="#2B237C"/>
<stop offset="1" stop-color="#180D5B"/>
</linearGradient>
<linearGradient id="paint9_linear_2001_193" x1="63.8174" y1="133.705" x2="145.252" y2="133.705" gradientUnits="userSpaceOnUse">
<stop stop-color="#2B237C"/>
<stop offset="1" stop-color="#180D5B"/>
</linearGradient>
<linearGradient id="paint10_linear_2001_193" x1="74.2222" y1="113.383" x2="74.5133" y2="118.269" gradientUnits="userSpaceOnUse">
<stop stop-color="#42E8E0"/>
<stop offset="0.0157138" stop-color="#40DDDA"/>
<stop offset="0.0920726" stop-color="#3AAEC0"/>
<stop offset="0.173" stop-color="#3484A9"/>
<stop offset="0.2573" stop-color="#2F6195"/>
<stop offset="0.3458" stop-color="#2B4486"/>
<stop offset="0.44" stop-color="#282E79"/>
<stop offset="0.5425" stop-color="#261E71"/>
<stop offset="0.6594" stop-color="#24156C"/>
<stop offset="0.8226" stop-color="#24126A"/>
</linearGradient>
<linearGradient id="paint11_linear_2001_193" x1="83.4986" y1="107.998" x2="83.7898" y2="112.884" gradientUnits="userSpaceOnUse">
<stop stop-color="#42E8E0"/>
<stop offset="0.0157138" stop-color="#40DDDA"/>
<stop offset="0.0920726" stop-color="#3AAEC0"/>
<stop offset="0.173" stop-color="#3484A9"/>
<stop offset="0.2573" stop-color="#2F6195"/>
<stop offset="0.3458" stop-color="#2B4486"/>
<stop offset="0.44" stop-color="#282E79"/>
<stop offset="0.5425" stop-color="#261E71"/>
<stop offset="0.6594" stop-color="#24156C"/>
<stop offset="0.8226" stop-color="#24126A"/>
</linearGradient>
<linearGradient id="paint12_linear_2001_193" x1="117.057" y1="115.227" x2="117.404" y2="121.044" gradientUnits="userSpaceOnUse">
<stop stop-color="#2B237C"/>
<stop offset="1" stop-color="#180D5B"/>
</linearGradient>
<linearGradient id="paint13_linear_2001_193" x1="141.22" y1="132.142" x2="146.944" y2="133.333" gradientUnits="userSpaceOnUse">
<stop stop-color="#2B237C"/>
<stop offset="1" stop-color="#180D5B"/>
</linearGradient>
<linearGradient id="paint14_linear_2001_193" x1="67.2794" y1="120.62" x2="336.783" y2="176.708" gradientUnits="userSpaceOnUse">
<stop stop-color="#42E8E0"/>
<stop offset="0.0157138" stop-color="#40DDDA"/>
<stop offset="0.0920726" stop-color="#3AAEC0"/>
<stop offset="0.173" stop-color="#3484A9"/>
<stop offset="0.2573" stop-color="#2F6195"/>
<stop offset="0.3458" stop-color="#2B4486"/>
<stop offset="0.44" stop-color="#282E79"/>
<stop offset="0.5425" stop-color="#261E71"/>
<stop offset="0.6594" stop-color="#24156C"/>
<stop offset="0.8226" stop-color="#24126A"/>
</linearGradient>
<linearGradient id="paint15_linear_2001_193" x1="139.754" y1="142.273" x2="146.831" y2="143.746" gradientUnits="userSpaceOnUse">
<stop stop-color="#2B237C"/>
<stop offset="1" stop-color="#180D5B"/>
</linearGradient>
<linearGradient id="paint16_linear_2001_193" x1="130.492" y1="147.658" x2="137.569" y2="149.131" gradientUnits="userSpaceOnUse">
<stop stop-color="#2B237C"/>
<stop offset="1" stop-color="#180D5B"/>
</linearGradient>
<linearGradient id="paint17_linear_2001_193" x1="109.005" y1="152.763" x2="117.714" y2="154.576" gradientUnits="userSpaceOnUse">
<stop stop-color="#2B237C"/>
<stop offset="1" stop-color="#180D5B"/>
</linearGradient>
<linearGradient id="paint18_linear_2001_193" x1="66.2772" y1="121.341" x2="66.9356" y2="132.39" gradientUnits="userSpaceOnUse">
<stop stop-color="#42E8E0"/>
<stop offset="0.0157138" stop-color="#40DDDA"/>
<stop offset="0.0920726" stop-color="#3AAEC0"/>
<stop offset="0.173" stop-color="#3484A9"/>
<stop offset="0.2573" stop-color="#2F6195"/>
<stop offset="0.3458" stop-color="#2B4486"/>
<stop offset="0.44" stop-color="#282E79"/>
<stop offset="0.5425" stop-color="#261E71"/>
<stop offset="0.6594" stop-color="#24156C"/>
<stop offset="0.8226" stop-color="#24126A"/>
</linearGradient>
<linearGradient id="paint19_linear_2001_193" x1="72.2678" y1="121.261" x2="72.9073" y2="131.992" gradientUnits="userSpaceOnUse">
<stop stop-color="#2B237C"/>
<stop offset="1" stop-color="#180D5B"/>
</linearGradient>
<linearGradient id="paint20_linear_2001_193" x1="94.6799" y1="116.26" x2="96.9339" y2="154.085" gradientUnits="userSpaceOnUse">
<stop stop-color="#42E8E0"/>
<stop offset="0.0157138" stop-color="#40DDDA"/>
<stop offset="0.0920726" stop-color="#3AAEC0"/>
<stop offset="0.173" stop-color="#3484A9"/>
<stop offset="0.2573" stop-color="#2F6195"/>
<stop offset="0.3458" stop-color="#2B4486"/>
<stop offset="0.44" stop-color="#282E79"/>
<stop offset="0.5425" stop-color="#261E71"/>
<stop offset="0.6594" stop-color="#24156C"/>
<stop offset="0.8226" stop-color="#24126A"/>
</linearGradient>
</defs>
</svg>
