<svg width="18" height="18" viewBox="0 0 18 18" fill="none" xmlns="http://www.w3.org/2000/svg">
<path d="M0 1.4849C0 1.32975 0.0618399 1.18095 0.171916 1.07124C0.281991 0.961536 0.431286 0.899902 0.586957 0.899902H2.34783C2.47875 0.899938 2.60591 0.943603 2.70908 1.02395C2.81224 1.1043 2.88549 1.21672 2.91717 1.34333L3.39261 3.2399H17.0217C17.1109 3.23993 17.1989 3.26019 17.279 3.29917C17.3591 3.33814 17.4293 3.39479 17.4842 3.46482C17.539 3.53486 17.5772 3.61643 17.5957 3.70335C17.6142 3.79027 17.6127 3.88025 17.5911 3.96647L15.8302 10.9865C15.7985 11.1131 15.7253 11.2255 15.6221 11.3059C15.519 11.3862 15.3918 11.4299 15.2609 11.4299H4.69565C4.56472 11.4299 4.43757 11.3862 4.3344 11.3059C4.23124 11.2255 4.15799 11.1131 4.1263 10.9865L1.89 2.0699H0.586957C0.431286 2.0699 0.281991 2.00827 0.171916 1.89856C0.0618399 1.78885 0 1.64005 0 1.4849ZM3.68609 4.4099L5.15348 10.2599H14.803L16.2704 4.4099H3.68609ZM5.86957 13.7699C5.55822 13.7699 5.25963 13.8932 5.03948 14.1126C4.81933 14.332 4.69565 14.6296 4.69565 14.9399C4.69565 15.2502 4.81933 15.5478 5.03948 15.7672C5.25963 15.9866 5.55822 16.1099 5.86957 16.1099C6.18091 16.1099 6.4795 15.9866 6.69965 15.7672C6.9198 15.5478 7.04348 15.2502 7.04348 14.9399C7.04348 14.6296 6.9198 14.332 6.69965 14.1126C6.4795 13.8932 6.18091 13.7699 5.86957 13.7699ZM3.52174 14.9399C3.52174 14.3193 3.7691 13.7241 4.2094 13.2853C4.6497 12.8464 5.24688 12.5999 5.86957 12.5999C6.49225 12.5999 7.08943 12.8464 7.52973 13.2853C7.97003 13.7241 8.21739 14.3193 8.21739 14.9399C8.21739 15.5605 7.97003 16.1557 7.52973 16.5945C7.08943 17.0334 6.49225 17.2799 5.86957 17.2799C5.24688 17.2799 4.6497 17.0334 4.2094 16.5945C3.7691 16.1557 3.52174 15.5605 3.52174 14.9399ZM14.087 13.7699C13.7756 13.7699 13.477 13.8932 13.2569 14.1126C13.0367 14.332 12.913 14.6296 12.913 14.9399C12.913 15.2502 13.0367 15.5478 13.2569 15.7672C13.477 15.9866 13.7756 16.1099 14.087 16.1099C14.3983 16.1099 14.6969 15.9866 14.917 15.7672C15.1372 15.5478 15.2609 15.2502 15.2609 14.9399C15.2609 14.6296 15.1372 14.332 14.917 14.1126C14.6969 13.8932 14.3983 13.7699 14.087 13.7699ZM11.7391 14.9399C11.7391 14.3193 11.9865 13.7241 12.4268 13.2853C12.8671 12.8464 13.4643 12.5999 14.087 12.5999C14.7096 12.5999 15.3068 12.8464 15.7471 13.2853C16.1874 13.7241 16.4348 14.3193 16.4348 14.9399C16.4348 15.5605 16.1874 16.1557 15.7471 16.5945C15.3068 17.0334 14.7096 17.2799 14.087 17.2799C13.4643 17.2799 12.8671 17.0334 12.4268 16.5945C11.9865 16.1557 11.7391 15.5605 11.7391 14.9399Z" fill="white"/>
<path d="M0 1.4849C0 1.32975 0.0618399 1.18095 0.171916 1.07124C0.281991 0.961536 0.431286 0.899902 0.586957 0.899902H2.34783C2.47875 0.899938 2.60591 0.943603 2.70908 1.02395C2.81224 1.1043 2.88549 1.21672 2.91717 1.34333L3.39261 3.2399H17.0217C17.1109 3.23993 17.1989 3.26019 17.279 3.29917C17.3591 3.33814 17.4293 3.39479 17.4842 3.46482C17.539 3.53486 17.5772 3.61643 17.5957 3.70335C17.6142 3.79027 17.6127 3.88025 17.5911 3.96647L15.8302 10.9865C15.7985 11.1131 15.7253 11.2255 15.6221 11.3059C15.519 11.3862 15.3918 11.4299 15.2609 11.4299H4.69565C4.56472 11.4299 4.43757 11.3862 4.3344 11.3059C4.23124 11.2255 4.15799 11.1131 4.1263 10.9865L1.89 2.0699H0.586957C0.431286 2.0699 0.281991 2.00827 0.171916 1.89856C0.0618399 1.78885 0 1.64005 0 1.4849ZM3.68609 4.4099L5.15348 10.2599H14.803L16.2704 4.4099H3.68609ZM5.86957 13.7699C5.55822 13.7699 5.25963 13.8932 5.03948 14.1126C4.81933 14.332 4.69565 14.6296 4.69565 14.9399C4.69565 15.2502 4.81933 15.5478 5.03948 15.7672C5.25963 15.9866 5.55822 16.1099 5.86957 16.1099C6.18091 16.1099 6.4795 15.9866 6.69965 15.7672C6.9198 15.5478 7.04348 15.2502 7.04348 14.9399C7.04348 14.6296 6.9198 14.332 6.69965 14.1126C6.4795 13.8932 6.18091 13.7699 5.86957 13.7699ZM3.52174 14.9399C3.52174 14.3193 3.7691 13.7241 4.2094 13.2853C4.6497 12.8464 5.24688 12.5999 5.86957 12.5999C6.49225 12.5999 7.08943 12.8464 7.52973 13.2853C7.97003 13.7241 8.21739 14.3193 8.21739 14.9399C8.21739 15.5605 7.97003 16.1557 7.52973 16.5945C7.08943 17.0334 6.49225 17.2799 5.86957 17.2799C5.24688 17.2799 4.6497 17.0334 4.2094 16.5945C3.7691 16.1557 3.52174 15.5605 3.52174 14.9399ZM14.087 13.7699C13.7756 13.7699 13.477 13.8932 13.2569 14.1126C13.0367 14.332 12.913 14.6296 12.913 14.9399C12.913 15.2502 13.0367 15.5478 13.2569 15.7672C13.477 15.9866 13.7756 16.1099 14.087 16.1099C14.3983 16.1099 14.6969 15.9866 14.917 15.7672C15.1372 15.5478 15.2609 15.2502 15.2609 14.9399C15.2609 14.6296 15.1372 14.332 14.917 14.1126C14.6969 13.8932 14.3983 13.7699 14.087 13.7699ZM11.7391 14.9399C11.7391 14.3193 11.9865 13.7241 12.4268 13.2853C12.8671 12.8464 13.4643 12.5999 14.087 12.5999C14.7096 12.5999 15.3068 12.8464 15.7471 13.2853C16.1874 13.7241 16.4348 14.3193 16.4348 14.9399C16.4348 15.5605 16.1874 16.1557 15.7471 16.5945C15.3068 17.0334 14.7096 17.2799 14.087 17.2799C13.4643 17.2799 12.8671 17.0334 12.4268 16.5945C11.9865 16.1557 11.7391 15.5605 11.7391 14.9399Z" fill="white"/>
</svg>
