<svg width="16" height="16" viewBox="0 0 16 16" fill="none" xmlns="http://www.w3.org/2000/svg">
<path d="M6.7646 9.17322C7.69238 10.1144 8.81495 10.841 10.0535 11.3021L11.729 9.96877C11.7787 9.93456 11.8376 9.91625 11.8979 9.91625C11.9583 9.91625 12.0171 9.93456 12.0668 9.96877L15.1779 11.9732C15.296 12.0442 15.396 12.1417 15.47 12.258C15.5439 12.3743 15.5898 12.5062 15.6041 12.6433C15.6183 12.7804 15.6005 12.9189 15.5519 13.0479C15.5034 13.1768 15.4256 13.2928 15.3246 13.3866L13.8668 14.8266C13.6581 15.0328 13.4015 15.1842 13.12 15.2672C12.8384 15.3502 12.5408 15.3622 12.2535 15.3021C9.38781 14.7102 6.74644 13.3241 4.63127 11.3021C2.56304 9.25999 1.13184 6.66159 0.511271 3.82211C0.449968 3.53928 0.462763 3.24541 0.548416 2.96898C0.63407 2.69256 0.789678 2.44294 1.00016 2.24433L2.51127 0.786551C2.60478 0.690456 2.71882 0.616762 2.84485 0.570985C2.97088 0.525209 3.10563 0.508537 3.23901 0.522217C3.37239 0.535897 3.50095 0.579576 3.61507 0.649982C3.72918 0.720388 3.82588 0.815697 3.89794 0.928773L5.96905 3.99988C6.00477 4.04811 6.02406 4.10654 6.02406 4.16655C6.02406 4.22657 6.00477 4.28499 5.96905 4.33322L4.6046 5.97322C5.0782 7.18697 5.81604 8.28007 6.7646 9.17322V9.17322Z" fill="#F0F5FB"/>
</svg>
