<svg width="36" height="36" viewBox="0 0 36 36" fill="none" xmlns="http://www.w3.org/2000/svg">
<path d="M21.8369 5.71436C24.1071 5.71453 25.9736 7.59263 25.9736 9.87646V26.1235C25.9736 28.4076 24.1068 30.2855 21.8369 30.2856H4.13672C1.86668 30.2856 0 28.4074 0 26.1235V9.87646C0 7.59228 1.86668 5.71441 4.13672 5.71436H21.8369ZM33.1475 9.52686C33.4303 9.5053 33.7095 9.53639 33.9541 9.6167C34.4427 9.77706 34.8117 10.0683 35.0977 10.3921C35.6697 11.0396 35.9999 11.8329 36 12.7358V23.2622C35.9999 24.1439 35.6753 24.9381 35.1064 25.5708C34.5374 26.2035 33.4793 26.6914 32.4648 26.3013L28.373 24.729V11.8921L32.3252 9.76025C32.5156 9.6578 32.7239 9.58985 32.9355 9.55322L33.1475 9.52686ZM4.80664 10.7583C4.48856 10.7571 4.18299 10.8834 3.95703 11.1089C3.73143 11.3341 3.60396 11.6405 3.60254 11.9604V17.9946C3.6012 18.3167 3.72803 18.6263 3.9541 18.854C4.18003 19.0812 4.48709 19.2088 4.80664 19.2075C5.1251 19.2062 5.4301 19.0776 5.6543 18.8501C5.87848 18.6229 6.00427 18.315 6.00293 17.9946V11.9604C6.00153 11.6421 5.87515 11.337 5.65137 11.1118C5.42741 10.8865 5.12325 10.7594 4.80664 10.7583Z" fill="white"/>
<path d="M21.8369 5.71436C24.1071 5.71453 25.9736 7.59263 25.9736 9.87646V26.1235C25.9736 28.4076 24.1068 30.2855 21.8369 30.2856H4.13672C1.86668 30.2856 0 28.4074 0 26.1235V9.87646C0 7.59228 1.86668 5.71441 4.13672 5.71436H21.8369ZM33.1475 9.52686C33.4303 9.5053 33.7095 9.53639 33.9541 9.6167C34.4427 9.77706 34.8117 10.0683 35.0977 10.3921C35.6697 11.0396 35.9999 11.8329 36 12.7358V23.2622C35.9999 24.1439 35.6753 24.9381 35.1064 25.5708C34.5374 26.2035 33.4793 26.6914 32.4648 26.3013L28.373 24.729V11.8921L32.3252 9.76025C32.5156 9.6578 32.7239 9.58985 32.9355 9.55322L33.1475 9.52686ZM4.80664 10.7583C4.48856 10.7571 4.18299 10.8834 3.95703 11.1089C3.73143 11.3341 3.60396 11.6405 3.60254 11.9604V17.9946C3.6012 18.3167 3.72803 18.6263 3.9541 18.854C4.18003 19.0812 4.48709 19.2088 4.80664 19.2075C5.1251 19.2062 5.4301 19.0776 5.6543 18.8501C5.87848 18.6229 6.00427 18.315 6.00293 17.9946V11.9604C6.00153 11.6421 5.87515 11.337 5.65137 11.1118C5.42741 10.8865 5.12325 10.7594 4.80664 10.7583Z" fill="url(#paint0_linear_2001_367)"/>
<defs>
<linearGradient id="paint0_linear_2001_367" x1="-0.946152" y1="39.0254" x2="32.6895" y2="24.4866" gradientUnits="userSpaceOnUse">
<stop stop-color="#0D748B"/>
<stop offset="1" stop-color="#1A0B73"/>
</linearGradient>
</defs>
</svg>
