<svg width="460" height="250" viewBox="0 0 460 250" fill="none" xmlns="http://www.w3.org/2000/svg">
<path opacity="0.8" d="M446.364 -34.5694C445.384 -35.1435 443.669 -35.1435 442.69 -34.5694C441.955 -34.1594 441.71 -33.5033 442.118 -32.9292L385.369 -0.0425963V41.5372L371.57 49.5744V94.7627L324.211 122.237L316.862 117.972L353.361 96.813V72.0455L353.198 71.9635L311.636 47.8521V39.4869L335.152 25.873C336.132 26.2831 337.602 26.2831 338.5 25.709C339.48 25.1349 339.48 24.1508 338.5 23.5767C337.52 23.0026 335.806 23.0026 334.826 23.5767C333.928 24.0688 333.846 24.8889 334.581 25.545L311.065 39.1589V48.2622L311.228 48.3442L352.79 72.4556V96.5669L325.109 112.477V102.144L337.765 94.8447C338.745 95.2548 340.215 95.2548 341.113 94.6807C342.093 94.1066 342.093 93.1225 341.113 92.5484C340.133 91.9743 338.419 91.9743 337.439 92.5484C336.541 93.0404 336.459 93.8606 337.194 94.5167L324.538 101.816V112.805L316.209 117.644L306.329 111.903V93.9426L324.946 83.1171V70.6513L324.783 70.5693L285.589 47.8521C286.324 47.278 286.242 46.4579 285.344 45.8838C284.364 45.3098 282.65 45.3098 281.67 45.8838C280.69 46.4579 280.69 47.442 281.67 48.0161C282.568 48.5082 284.038 48.5902 285.017 48.1802L324.374 70.9793V82.707L306.329 93.2045V80.8207L306.166 80.7387L282.16 66.7968C282.895 66.2227 282.813 65.4026 281.915 64.8285C280.935 64.2544 279.22 64.2544 278.24 64.8285C277.26 65.4026 277.26 66.3867 278.24 66.9608C279.138 67.4529 280.608 67.5349 281.588 67.1248L305.676 81.1488V111.493L298.735 107.474L287.304 114.117L276.934 108.131V93.5325L276.771 93.4505L249.417 77.6223V63.8444C249.988 63.8444 250.56 63.6803 250.968 63.4343C251.948 62.8602 251.948 61.8761 250.968 61.302C249.988 60.7279 248.274 60.7279 247.294 61.302C246.314 61.8761 246.314 62.8602 247.294 63.4343C247.702 63.6803 248.274 63.8444 248.845 63.8444V77.9503L249.009 78.0323L276.362 93.8606V107.803L231.861 81.9689V54.5771L256.031 40.5531H278.159H278.24L316.291 18.492C317.27 18.9021 318.74 18.9021 319.638 18.328C320.618 17.7539 320.618 16.7698 319.638 16.1957C318.659 15.6216 316.944 15.6216 315.964 16.1957C315.066 16.6877 314.984 17.5899 315.719 18.164L278.077 39.979H257.092L326.906 -0.53467C327.885 -0.124613 329.355 -0.12461 330.253 -0.698691C331.233 -1.27277 331.233 -2.25691 330.253 -2.83099C329.273 -3.40507 327.559 -3.40507 326.579 -2.83099C325.681 -2.33892 325.599 -1.43679 326.334 -0.862711L231.29 54.331V82.379L231.453 82.461L286.732 114.527L275.627 121.006L181.236 66.2227V33.5821L181.073 33.5001L148.984 14.8835C149.718 14.3094 149.637 13.4893 148.739 12.9152C147.759 12.3411 146.044 12.3411 145.064 12.9152C144.084 13.4893 144.084 14.4734 145.064 15.0475C145.962 15.5396 147.432 15.6216 148.412 15.2115L180.665 33.9102V66.5507L180.828 66.6328L275.137 121.334L264.523 127.485L171.111 73.3577H115.424L80.6399 53.1829V22.1825C80.9665 22.1005 81.3748 22.0185 81.6197 21.8545C82.5996 21.2804 82.5996 20.2963 81.6197 19.7222C80.6399 19.1481 78.9252 19.1481 77.9453 19.7222C76.9655 20.2963 76.9655 21.2804 77.9453 21.8545C78.5169 22.1825 79.2518 22.3465 79.9867 22.2645V53.5109L80.15 53.5929L115.261 73.9318H170.948L249.743 119.612H233.903L207.039 104.03H186.299H186.217L157.475 120.678C156.496 120.268 155.026 120.268 154.128 120.842C153.148 121.416 153.148 122.401 154.128 122.975C155.107 123.549 156.822 123.549 157.802 122.975C158.7 122.483 158.782 121.58 158.047 121.006L186.462 104.522H206.876L233.739 120.104H250.723L263.869 127.731L235.617 144.134L227.534 139.459V127.239L207.12 115.43C207.855 114.856 207.774 114.035 206.876 113.461C205.896 112.887 204.181 112.887 203.201 113.461C202.221 114.035 202.221 115.02 203.201 115.594C204.099 116.086 205.569 116.168 206.549 115.758L226.962 127.567V139.131L205.161 126.583H194.873H194.791L182.461 133.718C181.481 133.308 180.012 133.308 179.113 133.882C178.134 134.456 178.134 135.44 179.113 136.014C180.093 136.589 181.808 136.589 182.788 136.014C183.686 135.522 183.768 134.62 183.033 134.046L194.954 127.157H204.997L234.964 144.544L229.493 147.742L246.886 157.83L238.72 162.586H226.391L217.572 157.501C218.307 156.927 218.144 156.107 217.245 155.615C216.266 155.041 214.551 155.041 213.571 155.615C212.591 156.189 212.591 157.173 213.571 157.748C214.469 158.322 215.939 158.322 216.919 157.912L226.146 163.242H237.577L216.837 175.298L168.009 147.004H132.898H132.816L113.056 158.486C112.076 158.076 110.607 158.076 109.708 158.65C108.729 159.224 108.729 160.208 109.708 160.782C110.688 161.356 112.403 161.356 113.383 160.782C114.281 160.29 114.363 159.388 113.628 158.814L133.061 147.578H167.927L205.569 169.393H189.483L173.806 160.044C174.541 159.47 174.459 158.65 173.561 158.076C172.581 157.501 170.867 157.501 169.887 158.076C168.907 158.65 168.907 159.634 169.887 160.208C170.785 160.7 172.255 160.782 173.234 160.372L189.402 169.721H206.712L216.429 175.38L191.606 189.732H112.321L50.8365 154.139C51.5714 153.565 51.4897 152.745 50.5916 152.171C49.6117 151.597 47.897 151.597 46.9172 152.171C45.9373 152.745 45.9373 153.729 46.9172 154.303C47.8154 154.795 49.2851 154.877 50.265 154.467L112.24 190.388H190.627L180.828 196.129H122.12H122.038L93.1328 212.941C92.153 212.531 90.6832 212.531 89.785 213.105C88.8052 213.679 88.8052 214.663 89.785 215.238C90.7649 215.812 92.4796 215.812 93.4594 215.238C94.3576 214.746 94.4393 213.843 93.7044 213.269L122.283 196.703H180.991H181.073L247.539 158.158L254.888 162.422L184.992 202.936H133.878H133.796L72.0663 238.775H-13.5061L-30 229.18V229.836L-13.5877 239.349H72.2296H72.3113L111.096 216.878V230.164L85.5391 245.008C84.5592 244.598 83.0895 244.598 82.1913 245.172C81.2115 245.746 81.2115 246.73 82.1913 247.304C83.1711 247.878 84.8858 247.878 85.8657 247.304C86.7639 246.812 86.8455 245.91 86.1106 245.336L111.668 230.492V216.632H111.505L134.041 203.592H185.156H185.237L255.459 162.832L263.869 167.671L127.509 246.73V261H128.08V247.058L264.441 167.999L274.811 173.986L204.508 214.746V222.045L192.015 229.262V245.992L167.845 260.016C166.866 259.606 165.396 259.606 164.498 260.18C164.089 260.426 163.926 260.672 163.763 260.918H168.825C168.744 260.754 168.58 260.508 168.417 260.344L192.586 246.32V229.59L204.508 222.701V249.518L211.53 253.619L198.874 260.918H200.017L212.101 253.947L224.186 260.918H225.329L205.079 249.19V215.074L275.382 174.314L284.854 179.809L235.127 208.677C234.148 208.267 232.678 208.267 231.78 208.841C230.8 209.415 230.8 210.399 231.78 210.973C232.76 211.547 234.474 211.547 235.454 210.973C236.352 210.481 236.434 209.661 235.699 209.005L285.426 180.137L294.571 185.385L235.046 219.912H218.879C218.797 219.666 218.552 219.338 218.144 219.174C217.164 218.6 215.449 218.6 214.469 219.174C213.489 219.748 213.489 220.732 214.469 221.306C215.449 221.881 217.164 221.881 218.144 221.306C218.552 221.06 218.797 220.814 218.879 220.568H235.209H235.291L295.142 185.877L298.817 188.01L301.675 186.37L315.964 194.653V206.134L304.206 212.941H285.752H285.671L265.421 224.669C264.441 224.259 262.971 224.259 262.073 224.833C261.093 225.407 261.093 226.391 262.073 226.965C263.053 227.539 264.768 227.539 265.747 226.965C266.646 226.473 266.727 225.571 265.992 224.997L285.916 213.433H303.144L268.524 233.526C267.544 233.034 266.074 233.116 265.094 233.608C264.114 234.182 264.114 235.166 265.094 235.74C266.074 236.315 267.789 236.315 268.769 235.74C269.667 235.248 269.748 234.428 269.095 233.854L312.29 208.759V214.335L286.569 229.262V239.759L265.666 251.897C264.686 251.487 263.216 251.487 262.318 252.061C261.338 252.635 261.338 253.619 262.318 254.193C263.298 254.767 265.013 254.767 265.992 254.193C266.891 253.701 266.972 252.799 266.237 252.225L287.14 240.087V229.59L312.861 214.664V208.431L316.454 206.38V194.161L302.165 185.877L311.555 180.465L340.868 197.523V216.878L320.945 228.441C319.965 227.949 318.495 228.031 317.515 228.523C316.536 229.098 316.536 230.082 317.515 230.656C318.495 231.23 320.21 231.23 321.19 230.656C322.088 230.164 322.17 229.344 321.516 228.769L340.868 217.534V233.198L325.599 242.055V261H326.171V242.383L340.868 233.854V261H341.44V197.195L312.126 180.055L322.66 173.986L361.036 196.211V249.19L379.49 259.852V260.918H380.062V259.524L361.608 248.862V195.883L323.231 173.658L331.07 169.147L382.838 199.163V244.352L411.498 260.918H412.641L383.409 244.024V198.835L331.641 168.819L344.298 161.52L430.442 211.465V233.936L460 251.077V250.421L431.095 233.608V211.137L382.675 183.007H420.97L460 205.642V204.986L421.052 182.433H381.531L344.869 161.192L359.567 152.663L391.085 170.951H441.71L459.918 181.531V180.875L455.917 178.578H459.918V178.004H454.938L441.873 170.459H391.248L382.43 165.375H403.986H404.068L414.846 159.142H459.837L460 159.224V158.568H415.907L428.074 151.515C429.053 151.925 430.523 151.925 431.421 151.351C432.401 150.777 432.401 149.792 431.421 149.218C430.442 148.644 428.727 148.644 427.747 149.218C426.849 149.71 426.767 150.613 427.502 151.187L403.904 164.883H381.531L360.22 152.581L368.059 147.988L362.996 145.036H377.694L396.882 156.189C396.147 156.763 396.229 157.584 397.127 158.158C398.107 158.732 399.822 158.732 400.802 158.158C401.781 157.584 401.781 156.599 400.802 156.025C399.903 155.533 398.434 155.451 397.454 155.861L377.775 144.462H361.935L351.156 138.229L357.77 134.374H369.528L379.817 128.387H387.492L404.884 138.475C404.068 139.049 404.149 139.869 405.129 140.443C406.109 141.017 407.824 141.017 408.804 140.443C409.783 139.869 409.783 138.885 408.804 138.311C407.905 137.819 406.517 137.737 405.537 138.147L387.737 127.813H379.735L369.447 133.8H358.832L379.98 121.498H391.411L415.254 135.276H460V134.702H415.417L391.493 120.678H379.735H379.653L350.503 137.573L342.828 133.144L375.734 114.035H398.924L418.112 125.107H459.837V124.533H418.275L400.148 114.035H459.837V113.461H375.652H375.571L342.338 132.816L333.683 127.813L379.572 101.16H459.918V100.586H401.373L459.918 66.6328V65.9767L400.23 100.586H379.98L423.501 75.326V69.7492L444.323 57.6935C445.302 58.1035 446.772 58.1035 447.67 57.5295C448.65 56.9554 448.65 55.9712 447.67 55.3972C446.691 54.8231 444.976 54.8231 443.996 55.3972C443.098 55.8892 443.016 56.7094 443.751 57.3654L432.401 63.9264V48.6722L459.918 32.762V32.1059L431.83 48.3442V64.2544L422.93 69.4211V74.9979L379.082 100.421L379.245 100.668L333.111 127.403L324.701 122.565L372.06 95.0907V49.9024L459.918 -1.02674V-1.68283L385.941 41.2092V0.367461L442.608 -32.4371L442.69 -32.3551C443.669 -31.781 445.384 -31.781 446.364 -32.3551C447.344 -33.0112 447.344 -33.9954 446.364 -34.5694ZM366.834 147.66L298.817 187.108L230.8 147.66L298.817 108.213L366.834 147.66Z" fill="url(#paint0_radial_2010_197)"/>
<path opacity="0.1" d="M459.918 36.4783L447.849 43.5227V66.1305L340.531 128.384L332.376 123.633L387.748 91.5234V85.7895L397.534 80.1375V66.9496L416.535 55.8915C417.35 56.2191 418.41 56.2191 419.144 55.8096C419.96 55.3181 419.96 54.5809 419.144 54.1713C418.329 53.6798 417.024 53.6798 416.29 54.1713C415.556 54.5809 415.474 55.2362 416.045 55.7276L397.044 66.7858V79.9737L387.666 85.3799V64.2465L387.585 64.1646L382.203 61.0519L414.659 42.2121V21.0787L437.737 7.72702C438.553 8.05467 439.613 8.05466 440.347 7.6451C441.162 7.15363 441.162 6.41641 440.347 6.00685C439.531 5.51538 438.227 5.51538 437.493 6.00685C436.759 6.41641 436.677 7.07171 437.248 7.56319L414.17 20.9149V42.0483L381.713 60.8881L328.951 30.0072V6.3345C329.359 6.3345 329.848 6.17068 330.175 6.00685C330.99 5.51538 330.99 4.77817 330.175 4.36861C329.359 3.87713 328.054 3.87713 327.32 4.36861C326.505 4.86008 326.505 5.59729 327.32 6.00685C327.647 6.17068 328.054 6.3345 328.544 6.3345V30.2529L328.625 30.3348L360.348 48.7651H337.188L318.513 37.9527C319.084 37.4612 319.002 36.8059 318.268 36.3963C317.453 35.9049 316.148 35.9049 315.414 36.3963C314.599 36.8878 314.599 37.625 315.414 38.0346C316.148 38.4441 317.29 38.5261 318.024 38.1165L337.025 49.1747H361.081L387.177 64.3284V91.1957L331.887 123.305L324.466 118.964L363.61 96.2743C364.425 96.6019 365.485 96.6019 366.219 96.1924C367.035 95.7009 367.035 94.9637 366.219 94.5541C365.404 94.0626 364.099 94.0626 363.365 94.5541C362.631 94.9637 362.549 95.619 363.12 96.1104L323.977 118.8L316.801 114.623L363.691 87.4277H376.413C376.494 87.6735 376.657 87.8373 376.983 88.0011C377.799 88.4926 379.104 88.4926 379.838 88.0011C380.653 87.5096 380.653 86.7724 379.838 86.3629C379.022 85.8714 377.717 85.8714 376.983 86.3629C376.657 86.5267 376.494 86.7724 376.413 86.9363H363.528H363.446L316.393 114.377L313.539 112.739L313.457 112.821L311.337 114.049L300.083 107.578V98.4859L309.38 93.0797H323.895L339.96 83.8236C340.776 84.1512 341.836 84.1512 342.57 83.7417C343.385 83.2502 343.385 82.513 342.57 82.1034C341.754 81.612 340.45 81.612 339.716 82.1034C338.982 82.513 338.9 83.1683 339.471 83.6598L323.732 92.5882H310.032L337.269 76.7791C338.085 77.1068 339.226 77.1068 339.96 76.6972C340.776 76.2057 340.776 75.4685 339.96 75.059C339.145 74.5675 337.84 74.5675 337.106 75.059C336.372 75.4685 336.291 76.1238 336.862 76.5334L302.856 96.2743V91.9329L323.08 80.2194V71.9463L339.553 62.3625C340.368 62.6902 341.428 62.6902 342.162 62.2806C342.978 61.7892 342.978 61.0519 342.162 60.6424C341.347 60.1509 340.042 60.1509 339.308 60.6424C338.574 61.0519 338.492 61.7073 339.063 62.1987L322.591 71.7825V80.0556L302.366 91.7691V96.6838L299.512 98.3221V107.906L310.766 114.377L303.427 118.636L280.348 105.203V89.967L296.006 80.7928C296.821 81.1205 297.963 81.1205 298.697 80.7109C299.512 80.2194 299.512 79.4822 298.697 79.0727C297.881 78.5812 296.576 78.5812 295.843 79.0727C295.109 79.4822 295.027 80.1375 295.598 80.5471L280.348 89.3936V77.1068L292.418 70.1442V46.963C292.825 46.963 293.315 46.7992 293.641 46.6354C294.456 46.1439 294.456 45.4067 293.641 44.9971C292.825 44.5057 291.52 44.5057 290.787 44.9971C289.971 45.4886 289.971 46.2258 290.787 46.6354C291.113 46.7992 291.52 46.963 292.01 46.963V69.8166L280.43 76.5334V35.741H279.941V105.448L303.019 118.882L294.701 123.715L264.528 106.186V64.4923L250.012 56.0553V40.3281L237.209 32.8741C237.78 32.3826 237.698 31.7273 236.964 31.3178C236.149 30.8263 234.844 30.8263 234.11 31.3178C233.295 31.8092 233.295 32.5465 234.11 32.956C234.844 33.3656 235.986 33.4475 236.72 33.0379L249.523 40.492V56.2191L264.039 64.6561V106.349L294.212 123.879L288.095 127.401L247.321 103.728V68.1783L247.24 68.0964L211.195 47.2088C211.766 46.7173 211.684 46.062 210.95 45.6524C210.135 45.161 208.83 45.161 208.096 45.6524C207.281 46.1439 207.281 46.8811 208.096 47.2907C208.83 47.7002 209.972 47.7822 210.706 47.3726L246.913 68.3422V103.892L246.995 103.974L287.606 127.565L277.657 133.299L209.89 93.9807V76.2876L209.809 76.2057L153.051 43.277C153.622 42.7855 153.54 42.1302 152.806 41.7206C151.991 41.2292 150.686 41.2292 149.952 41.7206C149.136 42.2121 149.136 42.9493 149.952 43.3589C150.686 43.7685 151.828 43.8504 152.562 43.4408L209.401 76.4515V94.1445L209.482 94.2264L247.484 116.261H217.311L182.408 96.0285C182.979 95.5371 182.898 94.8818 182.164 94.4722C181.348 93.9807 180.043 93.9807 179.309 94.4722C178.494 94.9637 178.494 95.7009 179.309 96.1104C180.043 96.52 181.185 96.6019 181.919 96.1924L217.148 116.67H248.218L277.086 133.381L265.506 140.097L240.716 125.681H200.838L155.497 99.3869H130.38L120.105 93.4073C120.676 92.9159 120.594 92.2606 119.86 91.851C119.045 91.3595 117.74 91.3595 117.006 91.851C116.191 92.3425 116.191 93.0797 117.006 93.4892C117.74 93.8988 118.882 93.9807 119.616 93.5712L130.217 99.7146H155.334L189.585 119.537H159.982L145.956 111.756C146.527 111.264 146.445 110.609 145.711 110.199C144.896 109.708 143.591 109.708 142.857 110.199C142.042 110.691 142.042 111.428 142.857 111.838C143.591 112.247 144.733 112.329 145.467 111.92L160.064 120.356H190.563L200.838 126.336H240.716L247.647 130.35H230.767H230.685L222.204 135.265H186.812L176.863 129.449H156.802C156.72 129.203 156.557 129.039 156.231 128.875C155.416 128.384 154.111 128.384 153.377 128.875C152.562 129.367 152.562 130.104 153.377 130.514C154.192 131.005 155.497 131.005 156.231 130.514C156.557 130.35 156.72 130.104 156.802 129.94H176.7L186.649 135.756H221.389L211.847 141.326C211.032 140.998 209.972 140.998 209.238 141.408C208.422 141.899 208.422 142.637 209.238 143.046C210.053 143.538 211.358 143.538 212.092 143.046C212.826 142.637 212.908 141.981 212.337 141.49L230.93 130.677H248.544L265.262 140.425L259.064 144.029L259.39 144.193L263.06 146.323H251.48L236.312 137.558C236.883 137.067 236.801 136.411 236.067 136.002C235.252 135.51 233.947 135.51 233.213 136.002C232.398 136.493 232.398 137.23 233.213 137.64C233.947 138.05 235.089 138.131 235.823 137.722L251.317 146.732H263.794L272.275 151.647L267.056 154.678H257.841H257.759L249.686 159.347H243.651L229.951 151.401C230.604 150.91 230.522 150.254 229.788 149.845C228.973 149.353 227.668 149.353 226.934 149.845C226.118 150.336 226.118 151.074 226.934 151.483C227.668 151.893 228.728 151.975 229.543 151.647L243.57 159.756H249.849H249.931L258.004 155.087H266.322L249.686 164.753H240.716L221.959 153.859H165.446L130.38 133.544C130.951 133.053 130.951 132.398 130.217 131.988C129.402 131.497 128.097 131.497 127.363 131.988C126.547 132.48 126.547 133.217 127.363 133.626C128.097 134.036 129.157 134.118 129.973 133.79L165.365 154.35H221.796L240.553 165.244H249.768H249.849L272.764 151.975L278.799 155.497L252.866 170.487H234.599L219.513 161.722H180.777C180.696 161.476 180.533 161.313 180.207 161.149C179.391 160.657 178.086 160.657 177.352 161.149C176.537 161.64 176.537 162.378 177.352 162.787C178.168 163.279 179.473 163.279 180.207 162.787C180.533 162.623 180.696 162.378 180.777 162.214H219.35L233.621 170.487H179.065H178.983L127.037 200.631C126.221 200.303 125.161 200.303 124.427 200.713C123.612 201.204 123.612 201.941 124.427 202.351C125.243 202.842 126.547 202.842 127.281 202.351C128.015 201.941 128.097 201.286 127.526 200.794L179.228 170.814H252.948H253.029L279.207 155.661L286.057 159.593L249.931 180.562H186.323H186.241L130.543 212.836H65.6306L27.7105 191.293C28.2813 190.801 28.1998 190.146 27.4658 189.736C26.6503 189.245 25.3456 189.245 24.6116 189.736C23.7961 190.228 23.7961 190.965 24.6116 191.375C25.3456 191.784 26.4872 191.866 27.2212 191.456L65.386 213.573H130.543H130.625L186.323 181.299H232.642L164.712 220.781V231.184L137.557 246.911C136.741 246.583 135.681 246.583 134.947 246.993C134.132 247.484 134.132 248.222 134.947 248.631C135.762 249.123 137.067 249.123 137.801 248.631C138.535 248.222 138.617 247.566 138.046 247.075L165.202 231.348V220.945L233.702 181.217H249.604L215.354 201.122V205.463L198.881 215.129C198.066 214.801 197.006 214.801 196.272 215.211C195.456 215.702 195.456 216.44 196.272 216.849C197.087 217.341 198.392 217.341 199.126 216.849C199.86 216.44 199.941 215.784 199.37 215.293L208.259 210.132V222.092L156.72 251.99C155.905 251.662 154.845 251.662 154.111 252.072C153.295 252.563 153.295 253.3 154.111 253.71C154.926 254.201 156.231 254.201 156.965 253.71C157.699 253.3 157.781 252.645 157.21 252.153L208.749 222.255V209.723L215.762 205.627V201.286L250.338 181.217L250.257 181.054L286.546 160.002L293.151 163.852L255.802 185.641V221.191L187.22 261H188.117L244.875 228.071V260.263L243.57 261H244.467L245.282 260.509V227.825L256.128 221.518V185.968L293.396 164.343L299.186 167.702L270.399 184.412V203.907L270.481 203.989L303.182 222.911V229.546L284.67 240.276C283.855 239.949 282.795 239.949 282.061 240.358C281.245 240.85 281.245 241.587 282.061 241.996C282.876 242.488 284.181 242.488 284.915 241.996C285.649 241.587 285.731 240.931 285.16 240.44L303.671 229.709V222.583L303.59 222.501L270.889 203.579V184.576L292.581 171.961V180.071L282.632 185.886C281.816 185.559 280.756 185.559 280.022 185.968C279.207 186.46 279.207 187.197 280.022 187.607C280.838 188.098 282.142 188.098 282.876 187.607C283.61 187.197 283.692 186.542 283.121 186.05L293.07 180.234V171.552L299.675 167.702L307.422 172.207V186.378L292.744 194.897V204.644L292.825 204.726L323.651 222.583C323.08 223.075 323.161 223.73 323.895 224.139C324.711 224.631 326.016 224.631 326.749 224.139C327.565 223.648 327.565 222.911 326.749 222.501C326.016 222.092 324.874 222.01 324.14 222.419L293.151 204.48V195.224L307.341 186.951V196.699L326.342 207.675C325.771 208.167 325.852 208.822 326.586 209.231C327.402 209.723 328.707 209.723 329.441 209.231C330.256 208.74 330.256 208.003 329.441 207.593C328.707 207.184 327.565 207.102 326.831 207.511L307.83 196.535V172.617L313.294 175.811L313.375 175.729L322.264 170.569L330.419 175.32V186.787L352.03 199.32V210.132C351.622 210.132 351.133 210.296 350.806 210.46C349.991 210.952 349.991 211.689 350.806 212.098C351.622 212.59 352.927 212.59 353.661 212.098C354.476 211.607 354.476 210.87 353.661 210.46C353.334 210.296 352.927 210.132 352.437 210.132V199.074L331.072 186.542V175.565L366.137 195.88V217.423L347.137 228.481H329.685H329.604L299.675 245.846C298.86 245.519 297.8 245.519 297.066 245.928C296.25 246.42 296.25 247.157 297.066 247.566C297.881 248.058 299.186 248.058 299.92 247.566C300.654 247.157 300.735 246.502 300.165 246.01L329.848 228.808H346.403L291.439 260.672C290.623 260.345 289.563 260.345 288.829 260.754H292.173L366.708 217.505V195.47L366.627 195.388L323.08 170.159L331.806 165.081L406.096 208.167V233.887L431.458 248.631C430.887 249.123 430.969 249.778 431.703 250.188C432.518 250.679 433.823 250.679 434.557 250.188C435.372 249.696 435.372 248.959 434.557 248.549C433.823 248.14 432.681 248.058 431.947 248.467L406.586 233.723V208.003L406.504 207.921L332.295 164.917L340.613 160.084L414.088 202.678H457.961L460 203.907V203.416L458.043 202.269H414.17L352.111 166.309H364.588L385.791 178.596H402.1H402.182L424.771 165.49C425.587 165.818 426.647 165.818 427.381 165.408C428.196 164.917 428.196 164.18 427.381 163.77C426.565 163.279 425.26 163.279 424.526 163.77C423.792 164.18 423.711 164.835 424.282 165.326L401.937 178.269H385.872L364.67 165.982H351.296L340.939 160.002L363.202 147.06L369.563 150.746V160.412L385.628 169.75C385.057 170.241 385.138 170.896 385.872 171.306C386.688 171.797 387.993 171.797 388.726 171.306C389.542 170.815 389.542 170.077 388.726 169.668C387.993 169.258 386.851 169.176 386.117 169.586L370.052 160.248V151.156L387.177 161.067H395.332H395.413L405.118 155.415C405.933 155.743 406.993 155.743 407.727 155.333C408.543 154.842 408.543 154.104 407.727 153.695C406.912 153.203 405.607 153.203 404.873 153.695C404.139 154.104 404.058 154.76 404.628 155.251L395.25 160.739H387.34L363.691 146.732L368.013 144.275L367.687 144.111L354.313 136.411L360.755 132.725H370.46L377.391 136.739C376.82 137.23 376.902 137.804 377.636 138.213C378.451 138.705 379.756 138.705 380.49 138.213C381.306 137.722 381.306 136.985 380.49 136.575C379.756 136.166 378.614 136.084 377.799 136.493L370.541 132.316H361.489L377.799 122.814L416.29 145.094H443.935H444.016L459.592 136.084C459.674 136.166 459.837 136.166 459.918 136.166V134.036C459.674 134.118 459.511 134.2 459.348 134.282C458.614 134.691 458.532 135.346 459.103 135.838L443.772 144.684H416.371L386.688 127.483H399.409L411.805 134.691C411.234 135.183 411.315 135.838 412.049 136.247C412.865 136.739 414.17 136.739 414.904 136.247C415.719 135.756 415.719 135.019 414.904 134.609C414.17 134.2 413.028 134.118 412.294 134.527L399.572 127.155H385.954L378.288 122.732L397.778 111.428H459.837V110.937H398.512L406.259 106.431H452.416H452.498L459.837 102.172V101.68L452.334 106.022H406.178H406.096L353.742 136.411L347.952 133.053L402.998 101.107H443.201H443.283L459.837 91.5234V90.6223L443.119 100.37H402.916H402.834L347.544 132.398L340.939 128.548L448.257 66.2943V43.6865L459.918 36.9697V36.4783V36.4783ZM367.116 144.275L313.539 175.32L259.961 144.275L313.539 113.23L367.116 144.275Z" fill="#42E8E0"/>
<g opacity="0.67">
<path d="M301.025 236.686L146.443 147.445L301.025 58.2031L455.526 147.445L301.025 236.686Z" fill="#0F054C"/>
</g>
<g opacity="0.67">
<path d="M301.025 222.9L170.426 147.445L301.025 72.0706L431.624 147.445L301.025 222.9Z" fill="#0F054C"/>
</g>
<g opacity="0.9">
<path d="M301.025 206.83L198.243 147.445L301.025 88.1406L403.727 147.445L301.025 206.83Z" fill="#080344"/>
</g>
<path d="M203.203 160.163C202.061 160.163 201.001 159.837 200.022 159.347L163.803 138.464C163.232 138.138 162.906 137.567 162.906 136.915C162.906 136.262 163.232 135.691 163.803 135.365L229.225 97.5961C229.307 97.5145 229.47 97.5145 229.551 97.5961L229.878 97.7592L268.707 120.192C269.278 120.518 269.604 121.089 269.604 121.742C269.604 122.394 269.278 122.965 268.707 123.292L206.221 159.347C205.406 159.837 204.345 160.163 203.203 160.163ZM229.551 98.2487L164.293 135.936C163.966 136.099 163.721 136.507 163.721 136.915C163.721 137.322 163.966 137.649 164.293 137.893L200.511 158.776C202.224 159.755 204.427 159.755 206.058 158.776L268.544 122.721C268.87 122.558 269.115 122.15 269.115 121.742C269.115 121.334 268.87 121.008 268.544 120.763L229.551 98.2487Z" fill="#42E8E0"/>
<path d="M273.601 109.914L269.767 111.871L231.672 89.8465C231.019 89.4387 229.959 89.5202 229.225 89.9281L163.558 127.86C162.905 127.534 160.05 126.147 160.05 126.147L161.437 129.736C161.519 129.899 161.6 130.062 161.845 130.144L201.979 153.311C202.632 153.719 203.692 153.637 204.426 153.229L271.643 114.4C271.969 114.237 272.132 113.992 272.214 113.829L273.601 109.914Z" fill="url(#paint1_linear_2010_197)"/>
<path d="M272.948 110.566L204.1 150.374C203.366 150.782 202.224 150.864 201.571 150.456L160.458 126.718C159.806 126.31 159.887 125.658 160.621 125.25L229.469 85.4418C230.204 85.0339 231.346 84.9523 231.998 85.3602L273.111 109.098C273.845 109.424 273.764 110.077 272.948 110.566Z" fill="url(#paint2_linear_2010_197)"/>
<path d="M272.948 110.158L204.1 149.966C203.366 150.374 202.224 150.456 201.571 150.048L160.458 126.31C160.214 126.147 160.132 126.065 160.05 125.902C159.969 126.228 160.05 126.555 160.458 126.718L201.571 150.456C202.224 150.864 203.366 150.782 204.1 150.374L272.948 110.566C273.438 110.24 273.682 109.914 273.519 109.506C273.519 109.751 273.275 109.995 272.948 110.158Z" fill="white"/>
<path d="M183.299 141.727V140.993C183.299 140.912 183.38 140.912 183.38 140.912L186.072 142.462C186.154 142.462 186.154 142.543 186.154 142.625V143.359C186.154 143.44 186.072 143.44 186.072 143.44L183.38 141.891C183.38 141.891 183.299 141.809 183.299 141.727Z" fill="#2842A2"/>
<path d="M187.296 144.012V143.277C187.296 143.196 187.377 143.196 187.377 143.196L190.069 144.746C190.151 144.746 190.151 144.827 190.151 144.909V145.643C190.151 145.725 190.069 145.725 190.069 145.725L187.377 144.175C187.377 144.175 187.296 144.093 187.296 144.012Z" fill="#2842A2"/>
<path d="M183.625 132.102L240.89 99.0646C241.298 98.8199 241.705 98.8199 242.113 99.0646L262.507 110.893C262.833 111.056 262.833 111.464 262.507 111.627L205.242 144.664C204.834 144.909 204.426 144.909 204.018 144.664L183.625 132.918C183.299 132.673 183.299 132.265 183.625 132.102Z" fill="#ADB1F2"/>
<path d="M183.625 132.836L183.87 132.918L240.89 99.962C241.298 99.7173 241.705 99.7173 242.113 99.962L262.262 111.627L262.507 111.545C262.833 111.382 262.833 110.974 262.507 110.811L242.113 98.9831C241.705 98.7384 241.298 98.7384 240.89 98.9831L183.625 132.02C183.299 132.265 183.299 132.673 183.625 132.836Z" fill="#9198DB"/>
<path d="M243.663 102.001L190.885 132.428L188.275 131.45L241.379 100.778L243.663 102.001Z" fill="#24126A"/>
<path d="M249.047 105.183L202.387 132.102L200.184 130.797L246.844 103.878L249.047 105.183Z" fill="#24126A"/>
<path d="M252.555 107.222L197.656 138.873L195.453 137.649L250.352 105.917L252.555 107.222Z" fill="#24126A"/>
<path d="M256.144 109.262L201.163 140.912L198.96 139.689L253.859 107.957L256.144 109.262Z" fill="#24126A"/>
<path d="M259.651 111.301L204.752 142.951L202.55 141.728L257.449 109.996L259.651 111.301Z" fill="#24126A"/>
<path d="M190.885 132.428L188.682 133.734L186.48 132.428L188.682 131.205L190.885 132.428Z" fill="#24126A"/>
<path d="M205.079 130.552L194.148 136.833L191.864 135.61L202.958 129.247L205.079 130.552Z" fill="#24126A"/>
<path d="M204.019 117.255L219.436 108.364C220.007 108.038 220.007 107.467 219.436 107.14L208.913 101.022C208.342 100.696 207.363 100.696 206.711 101.022L191.293 109.914C190.722 110.24 190.722 110.811 191.293 111.137L201.816 117.255C202.387 117.663 203.366 117.663 204.019 117.255Z" fill="url(#paint3_linear_2010_197)"/>
<path d="M191.293 110.403L206.711 101.512C207.282 101.185 208.26 101.185 208.913 101.512L219.436 107.63C219.599 107.711 219.762 107.874 219.844 108.038C220.007 107.711 219.844 107.385 219.436 107.14L208.913 101.022C208.342 100.696 207.363 100.696 206.711 101.022L191.293 109.914C190.885 110.159 190.722 110.485 190.885 110.811C190.967 110.648 191.048 110.566 191.293 110.403Z" fill="#9198DB"/>
<path d="M273.438 108.935L264.71 57.2173L265.444 56.891L264.383 56.32C264.139 56.1569 263.894 56.1569 263.568 56.4016L193.985 96.6173C193.414 96.9436 193.006 97.7594 193.088 98.412L201.898 150.456C201.98 150.701 202.061 150.945 202.224 150.945L203.285 151.516L203.448 150.537H203.366L272.541 110.566C273.112 110.322 273.52 109.506 273.438 108.935Z" fill="url(#paint4_linear_2010_197)"/>
<path d="M194.393 98.0041L193.251 97.5146C193.088 97.8409 193.088 98.0857 193.088 98.412L201.898 150.456C201.979 150.701 202.061 150.945 202.224 150.945L203.285 151.516L203.448 150.537H203.366L206.874 148.498L194.393 98.0041Z" fill="url(#paint5_linear_2010_197)"/>
<path d="M273.683 111.301L204.101 151.516C203.53 151.843 203.122 151.68 203.04 151.109L194.23 99.0646C194.149 98.4936 194.556 97.5963 195.127 97.27L264.71 57.0542C265.281 56.7279 265.689 56.8911 265.77 57.4621L274.58 109.506C274.662 110.159 274.254 110.974 273.683 111.301Z" fill="#453C9E"/>
<path d="M399.55 160.163C398.408 160.163 397.348 159.837 396.369 159.348L333.884 123.292C333.313 122.966 332.986 122.395 332.986 121.742C332.986 121.09 333.313 120.519 333.884 120.192L373.039 97.5963C373.121 97.5148 373.284 97.5148 373.365 97.5963L438.787 135.365C439.358 135.691 439.685 136.262 439.685 136.915C439.685 137.567 439.358 138.138 438.787 138.465L402.65 159.266C401.671 159.837 400.611 160.163 399.55 160.163ZM373.202 98.2489L373.039 98.3305L334.21 120.763C333.884 120.926 333.639 121.334 333.639 121.742C333.639 122.15 333.884 122.476 334.21 122.721L396.695 158.777C398.408 159.755 400.611 159.755 402.242 158.777L438.461 137.894C438.787 137.731 439.032 137.323 439.032 136.915C439.032 136.507 438.787 136.181 438.461 135.936L373.202 98.2489Z" fill="#42E8E0"/>
<path d="M329.152 109.914L332.986 111.872L371.081 89.847C371.734 89.4391 372.794 89.5207 373.528 89.9286L439.195 127.86C439.848 127.534 442.703 126.147 442.703 126.147L441.316 129.736C441.234 129.9 441.153 130.063 440.908 130.144L400.774 153.311C400.121 153.719 399.061 153.638 398.327 153.23L331.11 114.401C330.784 114.238 330.621 113.993 330.539 113.83L329.152 109.914Z" fill="url(#paint6_linear_2010_197)"/>
<path d="M329.724 110.567L398.572 150.375C399.306 150.782 400.448 150.864 401.101 150.456L442.214 126.718C442.866 126.31 442.785 125.658 442.051 125.25L373.203 85.442C372.468 85.0341 371.326 84.9526 370.674 85.3604L329.561 109.098C328.908 109.425 328.99 110.077 329.724 110.567Z" fill="url(#paint7_linear_2010_197)"/>
<path d="M329.723 110.159L398.571 149.967C399.306 150.374 400.448 150.456 401.1 150.048L442.213 126.31C442.458 126.147 442.54 126.066 442.621 125.902C442.703 126.229 442.621 126.555 442.213 126.718L401.1 150.456C400.448 150.864 399.306 150.782 398.571 150.374L329.723 110.567C329.234 110.24 328.989 109.914 329.152 109.506C329.234 109.751 329.479 109.996 329.723 110.159Z" fill="white"/>
<path d="M419.455 141.728V140.993C419.455 140.912 419.373 140.912 419.373 140.912L416.681 142.462C416.6 142.462 416.6 142.543 416.6 142.625V143.359C416.6 143.441 416.681 143.441 416.681 143.441L419.373 141.891C419.373 141.891 419.455 141.809 419.455 141.728Z" fill="#2842A2"/>
<path d="M415.457 144.012V143.278C415.457 143.196 415.376 143.196 415.376 143.196L412.684 144.746C412.602 144.746 412.602 144.828 412.602 144.909V145.643C412.602 145.725 412.684 145.725 412.684 145.725L415.376 144.175C415.376 144.175 415.457 144.093 415.457 144.012Z" fill="#2842A2"/>
<path d="M419.128 132.102L361.864 99.0649C361.456 98.8202 361.048 98.8202 360.64 99.0649L340.247 110.893C339.92 111.056 339.92 111.464 340.247 111.627L397.43 144.665C397.838 144.909 398.245 144.909 398.653 144.665L419.047 132.918C419.455 132.673 419.455 132.265 419.128 132.102Z" fill="#ADB1F2"/>
<path d="M419.128 132.836L418.884 132.918L361.864 100.044C361.456 99.799 361.048 99.799 360.64 100.044L340.491 111.709L340.247 111.627C339.92 111.464 339.92 111.056 340.247 110.893L360.64 99.0649C361.048 98.8202 361.456 98.8202 361.864 99.0649L419.128 132.102C419.455 132.265 419.455 132.673 419.128 132.836Z" fill="#9198DB"/>
<path d="M359.091 102.001L411.869 132.428L414.479 131.449L361.293 100.778L359.091 102.001Z" fill="#24126A"/>
<path d="M353.707 105.183L400.367 132.102L402.569 130.797L355.909 103.878L353.707 105.183Z" fill="#24126A"/>
<path d="M350.199 107.222L405.098 138.873L407.301 137.649L352.402 105.917L350.199 107.222Z" fill="#24126A"/>
<path d="M346.61 109.261L401.509 140.912L403.711 139.688L348.812 107.956L346.61 109.261Z" fill="#24126A"/>
<path d="M343.102 111.301L398.001 142.951L400.204 141.728L345.305 109.996L343.102 111.301Z" fill="#24126A"/>
<path d="M411.869 132.428L414.071 133.734L416.274 132.428L414.071 131.205L411.869 132.428Z" fill="#24126A"/>
<path d="M397.675 130.552L408.606 136.833L410.808 135.61L399.796 129.247L397.675 130.552Z" fill="#24126A"/>
<path d="M398.735 117.255L383.318 108.364C382.747 108.038 382.747 107.467 383.318 107.14L393.841 101.022C394.412 100.696 395.391 100.696 396.043 101.022L411.461 109.914C412.032 110.24 412.032 110.811 411.461 111.137L400.938 117.255C400.285 117.663 399.388 117.663 398.735 117.255Z" fill="url(#paint8_linear_2010_197)"/>
<path d="M411.46 110.403L396.043 101.512C395.472 101.185 394.493 101.185 393.841 101.512L383.318 107.63C383.154 107.711 382.991 107.874 382.91 108.038C382.747 107.711 382.91 107.385 383.318 107.14L393.841 101.022C394.412 100.696 395.39 100.696 396.043 101.022L411.46 109.914C411.868 110.159 412.031 110.485 411.868 110.811C411.787 110.648 411.705 110.566 411.46 110.403Z" fill="#9198DB"/>
<path d="M329.315 108.935L338.044 57.2989L337.31 56.9726L338.37 56.4015C338.615 56.2384 338.86 56.2384 339.186 56.4831L408.768 96.6989C409.339 97.0252 409.747 97.8409 409.665 98.4935L400.856 150.537C400.774 150.782 400.692 151.027 400.529 151.027L399.469 151.598L399.306 150.619H399.387L330.213 110.648C329.642 110.322 329.152 109.506 329.315 108.935Z" fill="url(#paint9_linear_2010_197)"/>
<path d="M408.36 98.0041L409.502 97.5146C409.665 97.8409 409.665 98.0857 409.665 98.412L400.855 150.456C400.774 150.701 400.692 150.945 400.529 150.945L399.469 151.516L399.305 150.537H399.387L395.879 148.498L408.36 98.0041Z" fill="url(#paint10_linear_2010_197)"/>
<path d="M329.071 111.301L398.653 151.517C399.224 151.843 399.632 151.68 399.714 151.109L408.523 99.0649C408.605 98.4939 408.197 97.5966 407.626 97.2703L338.044 57.0545C337.473 56.7282 337.065 56.8913 336.983 57.4624L328.173 109.506C328.092 110.159 328.5 110.975 329.071 111.301Z" fill="#453C9E"/>
<path d="M301.336 172.644L236.566 135.202L301.336 97.7595L366.187 135.202L301.336 172.644Z" fill="#BCBEFF"/>
<path d="M301.336 162.366L254.268 135.202L301.336 108.038L348.485 135.202L301.336 162.366Z" fill="#453C9E"/>
<path d="M301.336 109.832L346.854 136.099L348.485 135.202L301.336 108.038L254.268 135.202L255.899 136.099L301.336 109.832Z" fill="white"/>
<path d="M366.186 135.202V156.411L301.335 193.771V172.644L366.186 135.202Z" fill="url(#paint11_linear_2010_197)"/>
<path d="M236.566 135.202V156.411L301.336 193.771V172.644L236.566 135.202Z" fill="#24126A"/>
<g opacity="0.51">
<path d="M240.971 144.746V151.435L297.012 183.738V177.049L240.971 144.746Z" fill="#453C9E"/>
</g>
<path d="M301.336 171.42L237.627 134.549L236.566 135.202L301.336 172.644L366.187 135.202L365.126 134.549L301.336 171.42Z" fill="white"/>
<path d="M356.479 150.048V153.882L311.125 180.067V176.233L356.479 150.048Z" fill="#453C9E"/>
<path opacity="0.51" d="M236.566 135.202V156.411L301.336 193.771V172.644L236.566 135.202Z" fill="#453C9E"/>
<path d="M282.492 171.502L270.746 164.731V166.118L282.492 172.889V171.502Z" fill="#42E8E0"/>
<path d="M269.032 163.753L265.851 161.876V163.263L269.032 165.139V163.753Z" fill="#42E8E0"/>
<path d="M254.104 155.105L247.66 151.353V152.821L254.104 156.574V155.105Z" fill="#42E8E0"/>
<path d="M260.059 158.532L255.328 155.84V157.227L260.059 160V158.532Z" fill="#42E8E0"/>
<path d="M264.464 161.142L261.283 159.266V160.652L264.464 162.529V161.142Z" fill="#42E8E0"/>
<path d="M301.417 117.337L299.378 116.113L301.417 114.971L303.457 116.113L301.417 117.337Z" fill="#42E8E0"/>
<path opacity="0.1" d="M305.577 119.703L303.457 118.561L305.577 117.337L307.617 118.561L305.577 119.703Z" fill="#42E8E0"/>
<path opacity="0.4" d="M309.656 122.069L307.617 120.926L309.656 119.703L311.695 120.926L309.656 122.069Z" fill="#42E8E0"/>
<path d="M313.816 124.434L311.695 123.292L313.816 122.068L315.856 123.292L313.816 124.434Z" fill="#42E8E0"/>
<path opacity="0.4" d="M317.895 126.8L315.855 125.658L317.895 124.434L319.934 125.658L317.895 126.8Z" fill="#42E8E0"/>
<path d="M321.974 129.247L319.935 128.023L321.974 126.8L324.095 128.023L321.974 129.247Z" fill="#42E8E0"/>
<path d="M326.134 131.612L324.095 130.389L326.134 129.247L328.173 130.389L326.134 131.612Z" fill="#42E8E0"/>
<path d="M330.213 133.978L328.173 132.754L330.213 131.612L332.334 132.754L330.213 133.978Z" fill="#42E8E0"/>
<path opacity="0.1" d="M334.373 136.344L332.333 135.12L334.373 133.978L336.412 135.12L334.373 136.344Z" fill="#42E8E0"/>
<path d="M297.338 119.703L295.217 118.561L297.338 117.337L299.378 118.561L297.338 119.703Z" fill="#42E8E0"/>
<path d="M301.417 122.068L299.377 120.926L301.417 119.703L303.456 120.926L301.417 122.068Z" fill="#42E8E0"/>
<path d="M305.495 124.434L303.456 123.292L305.495 122.068L307.616 123.292L305.495 124.434Z" fill="#42E8E0"/>
<path d="M309.656 126.881L307.616 125.658L309.656 124.434L311.695 125.658L309.656 126.881Z" fill="#42E8E0"/>
<path d="M313.734 129.247L311.695 128.023L313.734 126.881L315.855 128.023L313.734 129.247Z" fill="#42E8E0"/>
<path d="M317.895 131.612L315.855 130.389L317.895 129.247L319.934 130.389L317.895 131.612Z" fill="#42E8E0"/>
<path d="M321.973 133.978L319.934 132.754L321.973 131.612L324.013 132.754L321.973 133.978Z" fill="#42E8E0"/>
<path d="M326.134 136.344L324.013 135.202L326.134 133.978L328.173 135.202L326.134 136.344Z" fill="#42E8E0"/>
<path d="M330.212 138.71L328.173 137.568L330.212 136.344L332.252 137.568L330.212 138.71Z" fill="#42E8E0"/>
<path d="M293.178 122.069L291.139 120.926L293.178 119.703L295.217 120.926L293.178 122.069Z" fill="#42E8E0"/>
<path d="M297.257 124.516L295.217 123.292L297.257 122.068L299.378 123.292L297.257 124.516Z" fill="#42E8E0"/>
<path d="M301.417 126.881L299.377 125.658L301.417 124.516L303.456 125.658L301.417 126.881Z" fill="#42E8E0"/>
<path opacity="0.1" d="M305.495 129.247L303.456 128.023L305.495 126.881L307.535 128.023L305.495 129.247Z" fill="#42E8E0"/>
<path opacity="0.4" d="M309.656 131.612L307.535 130.389L309.656 129.247L311.695 130.389L309.656 131.612Z" fill="#42E8E0"/>
<path opacity="0.4" d="M313.734 133.978L311.695 132.836L313.734 131.613L315.774 132.836L313.734 133.978Z" fill="#42E8E0"/>
<path d="M317.895 136.344L315.774 135.202L317.895 133.978L319.934 135.202L317.895 136.344Z" fill="#42E8E0"/>
<path d="M321.973 138.71L319.934 137.568L321.973 136.344L324.013 137.568L321.973 138.71Z" fill="#42E8E0"/>
<path d="M326.134 141.075L324.013 139.933L326.134 138.709L328.173 139.933L326.134 141.075Z" fill="#42E8E0"/>
<path opacity="0.4" d="M289.018 124.516L286.979 123.292L289.018 122.15L291.139 123.292L289.018 124.516Z" fill="#42E8E0"/>
<path opacity="0.4" d="M293.178 126.881L291.139 125.658L293.178 124.516L295.217 125.658L293.178 126.881Z" fill="#42E8E0"/>
<path opacity="0.1" d="M297.257 129.247L295.217 128.023L297.257 126.881L299.296 128.023L297.257 129.247Z" fill="#42E8E0"/>
<path d="M301.417 131.612L299.296 130.47L301.417 129.247L303.456 130.47L301.417 131.612Z" fill="#42E8E0"/>
<path d="M305.496 133.978L303.457 132.836L305.496 131.613L307.535 132.836L305.496 133.978Z" fill="#42E8E0"/>
<path d="M309.656 136.344L307.535 135.202L309.656 133.978L311.695 135.202L309.656 136.344Z" fill="#42E8E0"/>
<path opacity="0.4" d="M313.735 138.71L311.695 137.568L313.735 136.344L315.774 137.568L313.735 138.71Z" fill="#42E8E0"/>
<path d="M317.814 141.157L315.774 139.933L317.814 138.709L319.935 139.933L317.814 141.157Z" fill="#42E8E0"/>
<path d="M321.973 143.522L319.934 142.299L321.973 141.157L324.013 142.299L321.973 143.522Z" fill="#42E8E0"/>
<path d="M284.939 126.881L282.818 125.658L284.939 124.516L286.979 125.658L284.939 126.881Z" fill="#42E8E0"/>
<path d="M289.018 129.247L286.979 128.105L289.018 126.881L291.057 128.105L289.018 129.247Z" fill="#42E8E0"/>
<path d="M293.179 131.612L291.058 130.47L293.179 129.247L295.218 130.47L293.179 131.612Z" fill="#42E8E0"/>
<path d="M297.257 133.978L295.217 132.836L297.257 131.612L299.296 132.836L297.257 133.978Z" fill="#42E8E0"/>
<path d="M301.336 136.344L299.296 135.202L301.336 133.978L303.457 135.202L301.336 136.344Z" fill="#42E8E0"/>
<path d="M305.496 138.791L303.457 137.568L305.496 136.344L307.535 137.568L305.496 138.791Z" fill="#42E8E0"/>
<path d="M309.574 141.157L307.535 139.933L309.574 138.791L311.695 139.933L309.574 141.157Z" fill="#42E8E0"/>
<path d="M313.735 143.522L311.695 142.299L313.735 141.156L315.774 142.299L313.735 143.522Z" fill="#42E8E0"/>
<path d="M317.814 145.888L315.774 144.664L317.814 143.522L319.853 144.664L317.814 145.888Z" fill="#42E8E0"/>
<path d="M280.779 129.247L278.74 128.105L280.779 126.881L282.818 128.105L280.779 129.247Z" fill="#42E8E0"/>
<path d="M284.858 131.612L282.818 130.47L284.858 129.247L286.979 130.47L284.858 131.612Z" fill="#42E8E0"/>
<path opacity="0.4" d="M289.018 133.978L286.979 132.836L289.018 131.613L291.057 132.836L289.018 133.978Z" fill="#42E8E0"/>
<path d="M293.097 136.425L291.058 135.202L293.097 133.978L295.218 135.202L293.097 136.425Z" fill="#42E8E0"/>
<path opacity="0.1" d="M297.257 138.791L295.217 137.568L297.257 136.426L299.296 137.568L297.257 138.791Z" fill="#42E8E0"/>
<path d="M301.336 141.157L299.296 139.933L301.336 138.791L303.375 139.933L301.336 141.157Z" fill="#42E8E0"/>
<path d="M305.496 143.522L303.375 142.299L305.496 141.157L307.535 142.299L305.496 143.522Z" fill="#42E8E0"/>
<path d="M309.574 145.888L307.535 144.746L309.574 143.522L311.614 144.746L309.574 145.888Z" fill="#42E8E0"/>
<path d="M313.735 148.254L311.614 147.112L313.735 145.888L315.774 147.112L313.735 148.254Z" fill="#42E8E0"/>
<path d="M276.619 131.612L274.58 130.47L276.619 129.247L278.74 130.47L276.619 131.612Z" fill="#42E8E0"/>
<path d="M280.779 134.06L278.74 132.836L280.779 131.612L282.818 132.836L280.779 134.06Z" fill="#42E8E0"/>
<path opacity="0.4" d="M284.858 136.425L282.818 135.202L284.858 134.06L286.897 135.202L284.858 136.425Z" fill="#42E8E0"/>
<path d="M289.018 138.791L286.897 137.568L289.018 136.426L291.057 137.568L289.018 138.791Z" fill="#42E8E0"/>
<path d="M293.096 141.157L291.057 139.933L293.096 138.791L295.136 139.933L293.096 141.157Z" fill="#42E8E0"/>
<path opacity="0.1" d="M297.257 143.522L295.136 142.38L297.257 141.157L299.296 142.38L297.257 143.522Z" fill="#42E8E0"/>
<path opacity="0.4" d="M301.336 145.888L299.296 144.746L301.336 143.522L303.375 144.746L301.336 145.888Z" fill="#42E8E0"/>
<path d="M305.414 148.253L303.375 147.111L305.414 145.888L307.535 147.111L305.414 148.253Z" fill="#42E8E0"/>
<path opacity="0.1" d="M309.574 150.619L307.535 149.477L309.574 148.254L311.614 149.477L309.574 150.619Z" fill="#42E8E0"/>
<path d="M272.54 134.06L270.419 132.836L272.54 131.694L274.58 132.836L272.54 134.06Z" fill="#42E8E0"/>
<path opacity="0.4" d="M276.619 136.425L274.58 135.202L276.619 134.06L278.658 135.202L276.619 136.425Z" fill="#42E8E0"/>
<path d="M280.779 138.791L278.658 137.568L280.779 136.426L282.818 137.568L280.779 138.791Z" fill="#42E8E0"/>
<path d="M284.858 141.157L282.818 140.015L284.858 138.791L286.897 140.015L284.858 141.157Z" fill="#42E8E0"/>
<path d="M288.936 143.522L286.897 142.38L288.936 141.157L291.057 142.38L288.936 143.522Z" fill="#42E8E0"/>
<path d="M293.097 145.888L291.058 144.746L293.097 143.522L295.136 144.746L293.097 145.888Z" fill="#42E8E0"/>
<path d="M297.176 148.253L295.136 147.111L297.176 145.888L299.296 147.111L297.176 148.253Z" fill="#42E8E0"/>
<path opacity="0.4" d="M301.336 150.701L299.296 149.477L301.336 148.254L303.375 149.477L301.336 150.701Z" fill="#42E8E0"/>
<path d="M305.414 153.066L303.375 151.843L305.414 150.701L307.454 151.843L305.414 153.066Z" fill="#42E8E0"/>
<path d="M268.38 136.425L266.34 135.202L268.38 134.06L270.419 135.202L268.38 136.425Z" fill="#42E8E0"/>
<path opacity="0.1" d="M272.458 138.791L270.419 137.567L272.458 136.425L274.579 137.567L272.458 138.791Z" fill="#42E8E0"/>
<path d="M276.618 141.157L274.579 140.015L276.618 138.791L278.658 140.015L276.618 141.157Z" fill="#42E8E0"/>
<path d="M280.697 143.522L278.658 142.38L280.697 141.156L282.818 142.38L280.697 143.522Z" fill="#42E8E0"/>
<path d="M284.857 145.888L282.818 144.746L284.857 143.522L286.897 144.746L284.857 145.888Z" fill="#42E8E0"/>
<path d="M288.936 148.335L286.897 147.111L288.936 145.888L290.976 147.111L288.936 148.335Z" fill="#42E8E0"/>
<path opacity="0.4" d="M293.097 150.701L290.976 149.477L293.097 148.335L295.136 149.477L293.097 150.701Z" fill="#42E8E0"/>
<path d="M297.175 153.066L295.136 151.842L297.175 150.7L299.214 151.842L297.175 153.066Z" fill="#42E8E0"/>
<path d="M301.335 155.432L299.214 154.208L301.335 153.066L303.375 154.208L301.335 155.432Z" fill="#42E8E0"/>
<path d="M301.336 135.854L236.566 98.4935L301.336 61.0513L366.187 98.4935L301.336 135.854Z" fill="#BCBEFF"/>
<path d="M301.336 125.658L254.268 98.4936L301.336 71.248L348.485 98.4936L301.336 125.658Z" fill="#453C9E"/>
<path d="M301.336 73.1242L346.854 99.3909L348.485 98.4936L301.336 71.248L254.268 98.4936L255.899 99.3909L301.336 73.1242Z" fill="white"/>
<path d="M366.186 98.4934V119.703L301.335 157.063V135.854L366.186 98.4934Z" fill="url(#paint12_linear_2010_197)"/>
<path d="M236.566 98.4934V119.703L301.336 157.063V135.854L236.566 98.4934Z" fill="#24126A"/>
<g opacity="0.51">
<path d="M240.971 108.038V114.645L297.012 147.03V140.341L240.971 108.038Z" fill="#453C9E"/>
</g>
<path d="M301.336 134.713L237.627 97.8413L236.566 98.4939L301.336 135.855L366.187 98.4939L365.126 97.8413L301.336 134.713Z" fill="white"/>
<path d="M356.479 113.34V117.174L311.125 143.359V139.525L356.479 113.34Z" fill="#453C9E"/>
<path opacity="0.51" d="M236.566 98.4934V119.703L301.336 157.063V135.854L236.566 98.4934Z" fill="#453C9E"/>
<path d="M282.492 134.794L270.746 128.023V129.41L282.492 136.181V134.794Z" fill="#42E8E0"/>
<path d="M269.032 127.044L265.851 125.168V126.555L269.032 128.431V127.044Z" fill="#42E8E0"/>
<path d="M254.104 118.398L247.66 114.645V116.032L254.104 119.866V118.398Z" fill="#42E8E0"/>
<path d="M260.059 121.824L255.328 119.132V120.518L260.059 123.292V121.824Z" fill="#42E8E0"/>
<path d="M264.464 124.434L261.283 122.558V123.945L264.464 125.821V124.434Z" fill="#42E8E0"/>
<path d="M301.417 80.6293L299.378 79.4057L301.417 78.2637L303.457 79.4057L301.417 80.6293Z" fill="#42E8E0"/>
<path opacity="0.1" d="M305.577 82.9945L303.457 81.7709L305.577 80.6289L307.617 81.7709L305.577 82.9945Z" fill="#42E8E0"/>
<path opacity="0.4" d="M309.656 85.3603L307.617 84.2182L309.656 82.9946L311.695 84.2182L309.656 85.3603Z" fill="#42E8E0"/>
<path d="M313.816 87.726L311.695 86.584L313.816 85.3604L315.856 86.584L313.816 87.726Z" fill="#42E8E0"/>
<path opacity="0.4" d="M317.895 90.0917L315.855 88.9497L317.895 87.7261L319.934 88.9497L317.895 90.0917Z" fill="#42E8E0"/>
<path d="M321.974 92.5388L319.935 91.3152L321.974 90.0916L324.095 91.3152L321.974 92.5388Z" fill="#42E8E0"/>
<path d="M326.134 94.9044L324.095 93.6808L326.134 92.5388L328.173 93.6808L326.134 94.9044Z" fill="#42E8E0"/>
<path d="M330.213 97.2699L328.173 96.0463L330.213 94.9043L332.334 96.0463L330.213 97.2699Z" fill="#42E8E0"/>
<path opacity="0.1" d="M334.373 99.6356L332.333 98.412L334.373 97.27L336.412 98.412L334.373 99.6356Z" fill="#42E8E0"/>
<path d="M297.338 82.9948L295.217 81.8528L297.338 80.6292L299.378 81.8528L297.338 82.9948Z" fill="#42E8E0"/>
<path d="M301.417 85.3605L299.377 84.2185L301.417 82.9949L303.456 84.2185L301.417 85.3605Z" fill="#42E8E0"/>
<path d="M305.495 87.7262L303.456 86.5842L305.495 85.3606L307.616 86.5842L305.495 87.7262Z" fill="#42E8E0"/>
<path opacity="0.8" d="M309.656 90.1733L307.616 88.9497L309.656 87.7261L311.695 88.9497L309.656 90.1733Z" fill="#FF2C9C"/>
<path d="M313.734 92.539L311.695 91.3154L313.734 90.1733L315.855 91.3154L313.734 92.539Z" fill="#42E8E0"/>
<path d="M317.895 94.9047L315.855 93.6811L317.895 92.5391L319.934 93.6811L317.895 94.9047Z" fill="#42E8E0"/>
<path opacity="0.8" d="M321.973 97.2702L319.934 96.0466L321.973 94.9045L324.013 96.0466L321.973 97.2702Z" fill="url(#paint13_radial_2010_197)"/>
<path d="M326.134 99.6359L324.013 98.4123L326.134 97.2703L328.173 98.4123L326.134 99.6359Z" fill="#42E8E0"/>
<path opacity="0.8" d="M330.212 102.002L328.173 100.86L330.212 99.636L332.252 100.86L330.212 102.002Z" fill="#FF2C9C"/>
<path d="M293.178 85.3603L291.139 84.2182L293.178 82.9946L295.217 84.2182L293.178 85.3603Z" fill="#42E8E0"/>
<path opacity="0.8" d="M297.257 87.8076L295.217 86.584L297.257 85.3604L299.378 86.584L297.257 87.8076Z" fill="#FF2C9C"/>
<path d="M301.417 90.173L299.377 88.9494L301.417 87.8074L303.456 88.9494L301.417 90.173Z" fill="#42E8E0"/>
<path opacity="0.1" d="M305.495 92.5387L303.456 91.3151L305.495 90.1731L307.535 91.3151L305.495 92.5387Z" fill="#42E8E0"/>
<path opacity="0.4" d="M309.656 94.9044L307.535 93.6808L309.656 92.5388L311.695 93.6808L309.656 94.9044Z" fill="#42E8E0"/>
<path opacity="0.4" d="M313.734 97.2702L311.695 96.0466L313.734 94.9045L315.774 96.0466L313.734 97.2702Z" fill="#42E8E0"/>
<path d="M317.895 99.6356L315.774 98.4936L317.895 97.27L319.934 98.4936L317.895 99.6356Z" fill="#42E8E0"/>
<path d="M321.973 102.001L319.934 100.859L321.973 99.6357L324.013 100.859L321.973 102.001Z" fill="#42E8E0"/>
<path d="M326.134 104.367L324.013 103.225L326.134 102.001L328.173 103.225L326.134 104.367Z" fill="#42E8E0"/>
<path opacity="0.4" d="M289.018 87.8076L286.979 86.584L289.018 85.3604L291.139 86.584L289.018 87.8076Z" fill="#42E8E0"/>
<path opacity="0.4" d="M293.178 90.173L291.139 88.9494L293.178 87.8074L295.217 88.9494L293.178 90.173Z" fill="#42E8E0"/>
<path opacity="0.1" d="M297.257 92.5387L295.217 91.3151L297.257 90.1731L299.296 91.3151L297.257 92.5387Z" fill="#42E8E0"/>
<path d="M301.417 94.9044L299.296 93.6808L301.417 92.5388L303.456 93.6808L301.417 94.9044Z" fill="#42E8E0"/>
<path d="M305.496 97.2699L303.457 96.1279L305.496 94.9043L307.535 96.1279L305.496 97.2699Z" fill="#42E8E0"/>
<path opacity="0.8" d="M309.656 99.6356L307.535 98.4936L309.656 97.27L311.695 98.4936L309.656 99.6356Z" fill="#FF2C9C"/>
<path opacity="0.4" d="M313.735 102.001L311.695 100.859L313.735 99.6357L315.774 100.859L313.735 102.001Z" fill="#42E8E0"/>
<path d="M317.814 104.367L315.774 103.225L317.814 102.001L319.935 103.225L317.814 104.367Z" fill="#42E8E0"/>
<path d="M321.973 106.814L319.934 105.591L321.973 104.367L324.013 105.591L321.973 106.814Z" fill="#42E8E0"/>
<path opacity="0.8" d="M284.939 90.173L282.818 88.9494L284.939 87.8074L286.979 88.9494L284.939 90.173Z" fill="#FF2C9C"/>
<path d="M289.018 92.5387L286.979 91.3151L289.018 90.1731L291.057 91.3151L289.018 92.5387Z" fill="#42E8E0"/>
<path d="M293.179 94.9044L291.058 93.7624L293.179 92.5388L295.218 93.7624L293.179 94.9044Z" fill="#42E8E0"/>
<path d="M297.257 97.2699L295.217 96.1279L297.257 94.9043L299.296 96.1279L297.257 97.2699Z" fill="#42E8E0"/>
<path opacity="0.8" d="M301.336 99.6356L299.296 98.4936L301.336 97.27L303.457 98.4936L301.336 99.6356Z" fill="#FF2C9C"/>
<path opacity="0.8" d="M305.496 102.001L303.457 100.859L305.496 99.6357L307.535 100.859L305.496 102.001Z" fill="#FF2C9C"/>
<path d="M309.574 104.448L307.535 103.225L309.574 102.001L311.695 103.225L309.574 104.448Z" fill="#42E8E0"/>
<path d="M313.735 106.814L311.695 105.591L313.735 104.449L315.774 105.591L313.735 106.814Z" fill="#42E8E0"/>
<path d="M317.814 109.18L315.774 107.956L317.814 106.814L319.853 107.956L317.814 109.18Z" fill="#42E8E0"/>
<path d="M280.779 92.5387L278.74 91.3967L280.779 90.1731L282.818 91.3967L280.779 92.5387Z" fill="#42E8E0"/>
<path d="M284.858 94.9044L282.818 93.7624L284.858 92.5388L286.979 93.7624L284.858 94.9044Z" fill="#42E8E0"/>
<path opacity="0.4" d="M289.018 97.2702L286.979 96.1281L289.018 94.9045L291.057 96.1281L289.018 97.2702Z" fill="#42E8E0"/>
<path opacity="0.8" d="M293.097 99.6356L291.058 98.4936L293.097 97.27L295.218 98.4936L293.097 99.6356Z" fill="#FF2C9C"/>
<path opacity="0.1" d="M297.257 102.083L295.217 100.859L297.257 99.6357L299.296 100.859L297.257 102.083Z" fill="#42E8E0"/>
<path d="M301.336 104.449L299.296 103.225L301.336 102.083L303.375 103.225L301.336 104.449Z" fill="#42E8E0"/>
<path d="M305.496 106.815L303.375 105.591L305.496 104.449L307.535 105.591L305.496 106.815Z" fill="#42E8E0"/>
<path opacity="0.8" d="M309.574 109.18L307.535 107.956L309.574 106.814L311.614 107.956L309.574 109.18Z" fill="#FF2C9C"/>
<path d="M313.735 111.546L311.614 110.404L313.735 109.18L315.774 110.404L313.735 111.546Z" fill="#42E8E0"/>
<path d="M276.619 94.9047L274.58 93.7627L276.619 92.5391L278.74 93.7627L276.619 94.9047Z" fill="#42E8E0"/>
<path d="M280.779 97.2702L278.74 96.1281L280.779 94.9045L282.818 96.1281L280.779 97.2702Z" fill="#42E8E0"/>
<path opacity="0.4" d="M284.858 99.7175L282.818 98.4939L284.858 97.2703L286.897 98.4939L284.858 99.7175Z" fill="#42E8E0"/>
<path d="M289.018 102.083L286.897 100.86L289.018 99.7175L291.057 100.86L289.018 102.083Z" fill="#42E8E0"/>
<path d="M293.096 104.449L291.057 103.225L293.096 102.083L295.136 103.225L293.096 104.449Z" fill="#42E8E0"/>
<path opacity="0.1" d="M297.257 106.815L295.136 105.591L297.257 104.449L299.296 105.591L297.257 106.815Z" fill="#42E8E0"/>
<path opacity="0.4" d="M301.336 109.18L299.296 108.038L301.336 106.814L303.375 108.038L301.336 109.18Z" fill="#42E8E0"/>
<path d="M305.414 111.546L303.375 110.404L305.414 109.18L307.535 110.404L305.414 111.546Z" fill="#42E8E0"/>
<path opacity="0.1" d="M309.574 113.911L307.535 112.769L309.574 111.546L311.614 112.769L309.574 113.911Z" fill="#42E8E0"/>
<path d="M272.54 97.3515L270.419 96.1279L272.54 94.9043L274.58 96.1279L272.54 97.3515Z" fill="#42E8E0"/>
<path opacity="0.4" d="M276.619 99.7174L274.58 98.4938L276.619 97.3518L278.658 98.4938L276.619 99.7174Z" fill="#42E8E0"/>
<path d="M280.779 102.083L278.658 100.859L280.779 99.717L282.818 100.859L280.779 102.083Z" fill="#42E8E0"/>
<path d="M284.858 104.448L282.818 103.225L284.858 102.083L286.897 103.225L284.858 104.448Z" fill="#42E8E0"/>
<path d="M288.936 106.814L286.897 105.672L288.936 104.449L291.057 105.672L288.936 106.814Z" fill="#42E8E0"/>
<path d="M293.097 109.18L291.058 108.038L293.097 106.814L295.136 108.038L293.097 109.18Z" fill="#42E8E0"/>
<path d="M297.176 111.545L295.136 110.403L297.176 109.18L299.296 110.403L297.176 111.545Z" fill="#42E8E0"/>
<path opacity="0.4" d="M301.336 113.911L299.296 112.769L301.336 111.545L303.375 112.769L301.336 113.911Z" fill="#42E8E0"/>
<path d="M305.414 116.358L303.375 115.135L305.414 113.911L307.454 115.135L305.414 116.358Z" fill="#42E8E0"/>
<path d="M268.38 99.7174L266.34 98.4938L268.38 97.3518L270.419 98.4938L268.38 99.7174Z" fill="#42E8E0"/>
<path opacity="0.1" d="M272.458 102.083L270.419 100.859L272.458 99.717L274.579 100.859L272.458 102.083Z" fill="#42E8E0"/>
<path opacity="0.8" d="M276.618 104.448L274.579 103.306L276.618 102.083L278.658 103.306L276.618 104.448Z" fill="#FF2C9C"/>
<path d="M280.697 106.814L278.658 105.672L280.697 104.449L282.818 105.672L280.697 106.814Z" fill="#42E8E0"/>
<path d="M284.857 109.18L282.818 108.038L284.857 106.814L286.897 108.038L284.857 109.18Z" fill="#42E8E0"/>
<path d="M288.936 111.545L286.897 110.403L288.936 109.18L290.976 110.403L288.936 111.545Z" fill="#42E8E0"/>
<path opacity="0.4" d="M293.097 113.992L290.976 112.769L293.097 111.545L295.136 112.769L293.097 113.992Z" fill="#42E8E0"/>
<path opacity="0.8" d="M297.175 116.358L295.136 115.134L297.175 113.992L299.214 115.134L297.175 116.358Z" fill="#FF2C9C"/>
<path d="M301.335 118.724L299.214 117.5L301.335 116.358L303.375 117.5L301.335 118.724Z" fill="#42E8E0"/>
<path d="M371.081 250.057C369.939 250.057 368.878 249.731 367.899 249.242L331.11 227.951C330.539 227.625 330.212 227.054 330.212 226.319C330.212 225.585 330.539 225.096 331.11 224.688L397.755 186.185C397.837 186.104 398 186.104 398.082 186.185L437.89 209.189C438.461 209.515 438.787 210.086 438.787 210.82C438.787 211.473 438.461 212.044 437.89 212.452L374.262 249.16C373.365 249.731 372.223 250.057 371.081 250.057ZM397.918 187.001L331.518 225.341C331.191 225.504 330.947 225.912 330.947 226.319C330.947 226.727 331.191 227.054 331.518 227.298L368.307 248.589C370.02 249.568 372.223 249.568 373.936 248.589L437.563 211.881C437.889 211.718 438.134 211.31 438.134 210.902C438.134 210.494 437.889 210.168 437.563 209.923L397.918 187.001Z" fill="#42E8E0"/>
<path d="M398 171.42L389.108 118.887L389.843 118.561L388.782 117.908C388.537 117.745 388.293 117.745 387.966 117.99L317.161 158.858C316.59 159.184 316.1 160.082 316.263 160.653L325.155 213.675C325.236 213.92 325.318 214.165 325.563 214.247L326.623 214.818L326.786 213.839H326.705L397.103 173.215C397.674 172.889 398.082 171.991 398 171.42Z" fill="url(#paint14_linear_2010_197)"/>
<path d="M317.487 160.326L316.345 159.837C316.182 160.163 316.182 160.489 316.182 160.734L325.073 213.757C325.155 214.002 325.236 214.246 325.481 214.328L326.541 214.899L326.705 213.92H326.623L330.212 211.881L317.487 160.326Z" fill="url(#paint15_linear_2010_197)"/>
<path d="M398.163 173.867L327.357 214.736C326.786 215.062 326.378 214.899 326.215 214.328L317.323 161.305C317.242 160.734 317.65 159.837 318.221 159.51L389.027 118.642C389.598 118.316 390.005 118.479 390.169 119.05L399.06 172.073C399.223 172.644 398.734 173.46 398.163 173.867Z" fill="#24126A"/>
<g opacity="0.51">
<path d="M388.13 121.987L319.853 161.387L328.336 211.31L396.532 171.91L388.13 121.987Z" fill="#453C9E"/>
</g>
<path d="M442.702 198.911L438.868 200.95L400.121 178.599C399.468 178.191 398.326 178.272 397.592 178.68L330.783 217.265C330.13 216.938 327.194 215.47 327.194 215.47L328.581 219.141C328.662 219.304 328.744 219.467 328.988 219.549L369.775 243.123C370.428 243.531 371.57 243.45 372.304 243.042L440.663 203.56C440.989 203.397 441.152 203.152 441.234 202.989L442.702 198.911Z" fill="url(#paint16_linear_2010_197)"/>
<path d="M442.131 199.563L372.059 240.024C371.325 240.432 370.101 240.513 369.449 240.105L327.602 215.96C326.949 215.552 327.031 214.899 327.765 214.491L397.837 174.031C398.571 173.623 399.794 173.541 400.447 173.949L442.294 198.095C442.947 198.421 442.865 199.074 442.131 199.563Z" fill="url(#paint17_linear_2010_197)"/>
<path d="M442.131 199.155L372.059 239.616C371.325 240.024 370.101 240.105 369.449 239.697L327.601 215.552C327.357 215.388 327.275 215.307 327.193 215.062C327.112 215.388 327.193 215.715 327.601 215.878L369.449 240.024C370.101 240.432 371.243 240.35 372.059 239.942L442.131 199.482C442.62 199.155 442.865 198.747 442.702 198.421C442.62 198.747 442.457 198.992 442.131 199.155Z" fill="white"/>
<path d="M350.85 231.295V230.561C350.85 230.48 350.932 230.48 350.932 230.48L353.624 232.03C353.705 232.03 353.705 232.111 353.705 232.193V232.927C353.705 233.009 353.624 233.009 353.624 233.009L350.932 231.459C350.932 231.459 350.85 231.377 350.85 231.295Z" fill="#2842A2"/>
<path d="M354.929 233.579V232.845C354.929 232.764 355.01 232.764 355.01 232.764L357.702 234.314C357.784 234.314 357.784 234.395 357.784 234.477V235.211C357.784 235.292 357.702 235.292 357.702 235.292L355.01 233.743C354.929 233.743 354.929 233.661 354.929 233.579Z" fill="#2842A2"/>
<path d="M338.451 213.757L396.694 180.149C397.102 179.904 397.591 179.904 397.918 180.149L418.637 192.14C418.964 192.303 418.964 192.711 418.637 192.874L360.394 226.483C359.986 226.727 359.497 226.727 359.17 226.483L338.369 214.491C338.206 214.328 338.206 213.92 338.451 213.757Z" fill="#ADB1F2"/>
<path d="M338.451 214.491L338.695 214.573L396.776 181.046C397.184 180.801 397.673 180.801 397.999 181.046L418.556 192.956L418.801 192.874C419.127 192.711 419.127 192.303 418.801 192.14L398.081 180.149C397.673 179.904 397.184 179.904 396.857 180.149L338.614 213.757C338.206 213.92 338.206 214.328 338.451 214.491Z" fill="#9198DB"/>
<path d="M399.549 183.167L348.974 212.37L346.689 211.065L397.347 181.862L399.549 183.167Z" fill="#24126A"/>
<path d="M405.096 186.349L357.62 213.757L355.336 212.452L402.812 185.043L405.096 186.349Z" fill="#24126A"/>
<path d="M408.685 188.388L352.807 220.691L350.523 219.386L406.401 187.083L408.685 188.388Z" fill="#24126A"/>
<path d="M412.274 190.427L356.396 222.73L354.112 221.425L409.99 189.203L412.274 190.427Z" fill="#24126A"/>
<path d="M415.864 192.548L359.986 224.77L357.702 223.464L413.58 191.243L415.864 192.548Z" fill="#24126A"/>
<path d="M345.874 214.083L343.671 215.389L341.387 214.083L343.671 212.778L345.874 214.083Z" fill="#24126A"/>
<path d="M353.868 215.878L349.137 218.57L346.934 217.265L351.584 214.573L353.868 215.878Z" fill="#24126A"/>
<path d="M398.979 221.833L414.722 212.778C415.375 212.452 415.375 211.881 414.722 211.473L403.955 205.273C403.302 204.947 402.323 204.947 401.752 205.273L386.008 214.328C385.356 214.654 385.356 215.225 386.008 215.633L396.776 221.833C397.347 222.241 398.326 222.241 398.979 221.833Z" fill="url(#paint18_linear_2010_197)"/>
<path d="M386.008 214.899L401.752 205.845C402.404 205.518 403.383 205.518 403.954 205.845L414.722 212.044C414.885 212.126 415.048 212.289 415.13 212.452C415.293 212.126 415.13 211.799 414.722 211.555L403.954 205.355C403.302 205.029 402.323 205.029 401.752 205.355L386.008 214.41C385.6 214.654 385.437 214.981 385.6 215.307C385.682 215.144 385.845 214.981 386.008 214.899Z" fill="#9198DB"/>
<g opacity="0.11">
<path d="M397.919 173.949L327.847 214.41C327.113 214.818 325.889 214.899 325.237 214.491L283.389 190.345C282.737 189.938 282.818 189.285 283.552 188.877L353.624 148.417C354.358 148.009 355.582 147.927 356.234 148.335L398.082 172.481C398.816 172.807 398.734 173.46 397.919 173.949Z" fill="url(#paint19_linear_2010_197)"/>
<path d="M327.602 181.209L343.346 172.155C343.998 171.828 343.998 171.257 343.346 170.849L332.578 164.65C331.926 164.323 330.947 164.323 330.376 164.65L314.632 173.704C313.979 174.031 313.979 174.602 314.632 175.01L325.4 181.209C326.052 181.535 327.031 181.535 327.602 181.209Z" fill="url(#paint20_linear_2010_197)"/>
<path d="M314.632 174.194L330.376 165.139C331.028 164.813 332.007 164.813 332.578 165.139L343.346 171.339C343.509 171.42 343.672 171.583 343.754 171.747C343.917 171.42 343.754 171.094 343.346 170.849L332.578 164.65C331.926 164.323 330.947 164.323 330.376 164.65L314.632 173.704C314.224 173.949 314.061 174.275 314.224 174.602C314.387 174.439 314.469 174.357 314.632 174.194Z" fill="#9198DB"/>
<path d="M307.78 195.321L366.023 161.713C366.431 161.468 366.921 161.468 367.247 161.713L387.967 173.704C388.293 173.867 388.293 174.275 387.967 174.438L329.805 208.128C329.397 208.373 328.907 208.373 328.581 208.128L307.78 196.137C307.454 195.974 307.454 195.566 307.78 195.321Z" fill="#ADB1F2"/>
<path d="M307.78 196.137L308.025 196.219L366.105 162.692C366.513 162.447 367.003 162.447 367.329 162.692L387.885 174.602L388.13 174.52C388.456 174.357 388.456 173.949 388.13 173.786L367.41 161.795C367.003 161.55 366.513 161.55 366.187 161.795L307.943 195.403C307.454 195.566 307.454 195.974 307.78 196.137Z" fill="#9198DB"/>
<path d="M382.583 172.888L331.844 202.173L333.802 203.397L384.622 174.112L382.583 172.888Z" fill="#24126A"/>
<path d="M377.199 169.789L328.989 197.687L331.029 198.829L379.239 171.012L377.199 169.789Z" fill="#24126A"/>
<path d="M325.4 199.726L320.914 202.337L322.871 203.479L327.439 200.95L325.4 199.726Z" fill="#24126A"/>
<path d="M329.397 203.642L326.216 205.436L328.255 206.578L331.355 204.784L329.397 203.642Z" fill="#24126A"/>
<path d="M373.855 167.912L317.569 200.379L319.527 201.602L375.894 169.054L373.855 167.912Z" fill="#24126A"/>
<path d="M370.51 165.955L314.225 198.502L316.182 199.644L372.55 167.097L370.51 165.955Z" fill="#24126A"/>
<path d="M367.166 163.997L310.798 196.545L312.838 197.687L369.205 165.221L367.166 163.997Z" fill="#24126A"/>
</g>
<path d="M345.548 192.303L351.095 189.122L351.258 190.019L345.711 193.282L345.548 192.303Z" fill="#42E8E0"/>
<path d="M351.993 188.551L355.011 186.838L355.174 187.817L352.156 189.53L351.993 188.551Z" fill="#42E8E0"/>
<path d="M359.661 184.146L361.863 182.922L362.026 183.82L359.824 185.125L359.661 184.146Z" fill="#42E8E0"/>
<path d="M358.111 185.043L358.845 184.635L359.008 185.614L358.274 186.022L358.111 185.043Z" fill="#42E8E0"/>
<path d="M355.908 186.348L357.213 185.532L357.377 186.511L356.071 187.246L355.908 186.348Z" fill="#42E8E0"/>
<path d="M349.954 184.961L352.156 183.656L352.319 184.635L350.117 185.94L349.954 184.961Z" fill="#42E8E0"/>
<path d="M344.814 187.898L349.138 185.451L349.301 186.43L344.978 188.877L344.814 187.898Z" fill="#42E8E0"/>
<path d="M350.933 172.399L355.256 169.87L355.338 170.849L351.096 173.296L350.933 172.399Z" fill="#42E8E0"/>
<path d="M348.73 173.623L350.117 172.807L350.28 173.786L348.893 174.602L348.73 173.623Z" fill="#42E8E0"/>
<path d="M351.667 176.723L355.908 174.275L356.071 175.254L351.83 177.701L351.667 176.723Z" fill="#42E8E0"/>
<path d="M349.464 178.028L350.851 177.212L351.014 178.191L349.627 179.007L349.464 178.028Z" fill="#42E8E0"/>
<path d="M347.833 153.392L339.757 158.042L339.594 157.145L347.67 152.495L347.833 153.392Z" fill="#42E8E0"/>
<path d="M350.606 151.761L348.648 152.903L348.485 152.006L350.443 150.864L350.606 151.761Z" fill="#42E8E0"/>
<path d="M364.718 150.864L356.724 155.514L356.561 154.535L364.555 149.885L364.718 150.864Z" fill="#42E8E0"/>
<path d="M367.574 149.232L365.616 150.374L365.453 149.395L367.41 148.253L367.574 149.232Z" fill="#42E8E0"/>
<path d="M342.286 159.021L340.165 160.245L340.001 159.266L342.122 158.042L342.286 159.021Z" fill="#42E8E0"/>
<path d="M355.582 156.166L353.379 157.39L353.216 156.492L355.419 155.187L355.582 156.166Z" fill="#42E8E0"/>
<path d="M347.424 156.084L343.183 158.532L343.02 157.553L347.261 155.105L347.424 156.084Z" fill="#42E8E0"/>
<path d="M349.627 154.779L348.24 155.595L348.077 154.616L349.464 153.801L349.627 154.779Z" fill="#42E8E0"/>
<path d="M354.766 151.842L350.524 154.29L350.361 153.311L354.603 150.864L354.766 151.842Z" fill="#42E8E0"/>
<path d="M356.969 150.537L355.582 151.353L355.419 150.374L356.806 149.559L356.969 150.537Z" fill="#42E8E0"/>
<path d="M355.174 153.964L352.972 155.187L352.809 154.29L355.011 152.985L355.174 153.964Z" fill="#42E8E0"/>
<path d="M360.313 151.027L356.071 153.474L355.908 152.496L360.15 150.048L360.313 151.027Z" fill="#42E8E0"/>
<path d="M362.516 149.722L361.129 150.538L360.966 149.559L362.353 148.824L362.516 149.722Z" fill="#42E8E0"/>
<path d="M344.978 159.837L340.491 162.447L340.328 161.468L344.815 158.939L344.978 159.837Z" fill="#42E8E0"/>
<path d="M349.056 157.553L345.794 159.429L345.63 158.45L348.893 156.574L349.056 157.553Z" fill="#42E8E0"/>
<path d="M352.075 155.758L349.872 157.064L349.709 156.085L351.911 154.861L352.075 155.758Z" fill="#42E8E0"/>
<path d="M373.202 145.97L368.715 148.58L368.552 147.601L373.039 145.072L373.202 145.97Z" fill="#42E8E0"/>
<path d="M377.199 143.685L374.018 145.48L373.854 144.582L377.036 142.706L377.199 143.685Z" fill="#42E8E0"/>
<path d="M380.217 141.891L378.096 143.196L377.933 142.217L380.054 140.912L380.217 141.891Z" fill="#42E8E0"/>
<path d="M371.407 174.928L375.894 172.399L376.057 173.378L371.57 175.907L371.407 174.928Z" fill="#42E8E0"/>
<path d="M367.329 177.294L370.592 175.418L370.755 176.397L367.492 178.273L367.329 177.294Z" fill="#42E8E0"/>
<path d="M364.311 179.088L366.513 177.783L366.676 178.762L364.474 179.985L364.311 179.088Z" fill="#42E8E0"/>
<path d="M369.939 178.191L374.426 175.662L374.589 176.641L370.102 179.17L369.939 178.191Z" fill="#42E8E0"/>
<path d="M365.86 180.557L369.123 178.68L369.286 179.659L366.024 181.535L365.86 180.557Z" fill="#42E8E0"/>
<path d="M362.842 182.351L365.045 181.046L365.208 182.025L363.005 183.248L362.842 182.351Z" fill="#42E8E0"/>
<path d="M351.993 174.194L353.461 173.297L353.624 174.276L352.156 175.091L351.993 174.194Z" fill="#42E8E0"/>
<path d="M349.138 175.825L351.095 174.683L351.259 175.58L349.301 176.804L349.138 175.825Z" fill="#42E8E0"/>
<path d="M345.386 162.039L340.899 164.65L340.736 163.671L345.222 161.06L345.386 162.039Z" fill="#42E8E0"/>
<path d="M349.383 159.673L346.201 161.55L346.038 160.571L349.301 158.776L349.383 159.673Z" fill="#42E8E0"/>
<path d="M352.482 157.961L350.28 159.184L350.117 158.287L352.319 156.982L352.482 157.961Z" fill="#42E8E0"/>
<path d="M342.775 165.955L341.307 166.852L341.144 165.873L342.612 164.976L342.775 165.955Z" fill="#42E8E0"/>
<path d="M345.63 164.323L343.591 165.465L343.428 164.487L345.467 163.344L345.63 164.323Z" fill="#42E8E0"/>
<path d="M349.627 161.958L346.446 163.834L346.283 162.855L349.464 160.979L349.627 161.958Z" fill="#42E8E0"/>
<path d="M354.032 180.23L355.501 179.333L355.664 180.312L354.195 181.209L354.032 180.23Z" fill="#42E8E0"/>
<path d="M351.177 181.862L353.135 180.72L353.298 181.699L351.34 182.841L351.177 181.862Z" fill="#42E8E0"/>
<path d="M347.099 184.227L350.362 182.351L350.525 183.33L347.262 185.125L347.099 184.227Z" fill="#42E8E0"/>
<path d="M356.316 176.641L359.498 174.765L359.661 175.744L356.48 177.62L356.316 176.641Z" fill="#42E8E0"/>
<path d="M351.014 179.496L355.338 177.049L355.501 177.946L351.177 180.475L351.014 179.496Z" fill="#42E8E0"/>
<path d="M348.893 180.801L350.198 179.985L350.361 180.964L349.056 181.698L348.893 180.801Z" fill="#42E8E0"/>
<path d="M346.772 182.025L348.077 181.209L348.24 182.188L346.935 182.922L346.772 182.025Z" fill="#42E8E0"/>
<path d="M347.017 169.626L351.34 167.178L351.503 168.076L347.18 170.605L347.017 169.626Z" fill="#42E8E0"/>
<path d="M344.814 170.85L346.201 170.115L346.364 171.094L344.977 171.829L344.814 170.85Z" fill="#42E8E0"/>
<path d="M347.343 167.015L348.811 166.2L348.974 167.097L347.506 167.994L347.343 167.015Z" fill="#42E8E0"/>
<path d="M352.645 168.81L354.113 167.913L354.276 168.892L352.808 169.789L352.645 168.81Z" fill="#42E8E0"/>
<path d="M354.766 167.586L358.437 165.465L358.6 166.444L354.929 168.484L354.766 167.586Z" fill="#42E8E0"/>
<path d="M359.008 165.139L361.21 163.834L361.373 164.813L359.171 166.036L359.008 165.139Z" fill="#42E8E0"/>
<path d="M344.488 168.647L346.527 167.505L346.69 168.484L344.651 169.626L344.488 168.647Z" fill="#42E8E0"/>
<path d="M344.325 166.444L345.793 165.547L345.956 166.526L344.488 167.423L344.325 166.444Z" fill="#42E8E0"/>
<path d="M341.47 168.076L343.509 166.934L343.672 167.912L341.633 169.055L341.47 168.076Z" fill="#42E8E0"/>
<path d="M350.443 170.034L351.83 169.3L351.993 170.197L350.606 171.013L350.443 170.034Z" fill="#42E8E0"/>
<path d="M348.322 171.257L349.709 170.523L349.872 171.421L348.485 172.236L348.322 171.257Z" fill="#42E8E0"/>
<path d="M358.764 182.27L363.332 179.659L363.495 180.556L358.927 183.248L358.764 182.27Z" fill="#42E8E0"/>
<path d="M353.543 185.288L357.866 182.759L358.03 183.738L353.706 186.267L353.543 185.288Z" fill="#42E8E0"/>
<path d="M351.34 186.512L352.727 185.777L352.89 186.756L351.503 187.49L351.34 186.512Z" fill="#42E8E0"/>
<path d="M349.301 187.735L350.606 187.001L350.769 187.898L349.464 188.714L349.301 187.735Z" fill="#42E8E0"/>
<path d="M348.159 188.388L345.222 190.101L345.385 191.08L348.322 189.367L348.159 188.388Z" fill="#42E8E0"/>
<g opacity="0.8">
<path d="M231.59 250.139C230.448 250.139 229.306 249.812 228.327 249.241L164.7 212.533C164.047 212.207 163.721 211.554 163.721 210.82C163.721 210.086 164.129 209.433 164.7 209.107L204.753 185.94L204.997 186.103L271.643 224.606C272.296 224.932 272.622 225.585 272.622 226.319C272.622 227.053 272.214 227.706 271.643 228.032L234.853 249.323C233.874 249.812 232.732 250.139 231.59 250.139ZM228.817 248.426C230.53 249.404 232.651 249.404 234.364 248.426L271.154 227.135C271.48 226.972 271.643 226.645 271.643 226.238C271.643 225.911 271.48 225.585 271.154 225.422L204.753 187.082H204.671L165.108 209.923C164.782 210.086 164.618 210.412 164.618 210.82C164.618 211.146 164.782 211.473 165.108 211.636L228.817 248.426Z" fill="url(#paint21_linear_2010_197)"/>
</g>
<path d="M204.753 171.42L213.644 118.887L212.91 118.561L213.97 117.908C214.215 117.745 214.46 117.745 214.786 117.99L285.592 158.858C286.163 159.184 286.652 160.082 286.489 160.653L277.598 213.675C277.516 213.92 277.435 214.165 277.19 214.247L276.129 214.818L275.966 213.839H276.048L205.65 173.215C205.079 172.889 204.671 171.991 204.753 171.42Z" fill="url(#paint22_linear_2010_197)"/>
<path d="M285.184 160.326L286.326 159.837C286.489 160.163 286.489 160.489 286.489 160.734L277.598 213.757C277.516 214.002 277.434 214.246 277.19 214.328L276.129 214.899L275.966 213.92H276.048L272.458 211.881L285.184 160.326Z" fill="url(#paint23_linear_2010_197)"/>
<path d="M204.59 173.867L275.395 214.736C275.966 215.062 276.374 214.899 276.537 214.328L285.429 161.305C285.51 160.734 285.103 159.837 284.532 159.51L213.726 118.642C213.155 118.316 212.747 118.479 212.584 119.05L203.692 172.073C203.529 172.644 203.937 173.46 204.59 173.867Z" fill="#24126A"/>
<g opacity="0.51">
<path d="M214.623 121.987L282.9 161.387L274.416 211.31L206.221 171.91L214.623 121.987Z" fill="#453C9E"/>
</g>
<path d="M160.05 198.911L163.884 200.95L202.632 178.599C203.284 178.191 204.426 178.272 205.16 178.68L271.969 217.265C272.622 216.938 275.558 215.47 275.558 215.47L274.172 219.141C274.09 219.304 274.009 219.467 273.764 219.549L232.977 243.205C232.324 243.613 231.182 243.531 230.448 243.123L162.008 203.56C161.682 203.397 161.519 203.152 161.437 202.989L160.05 198.911Z" fill="url(#paint24_linear_2010_197)"/>
<path d="M160.621 199.563L230.693 240.024C231.427 240.432 232.651 240.513 233.303 240.105L275.151 215.96C275.803 215.552 275.722 214.899 274.987 214.491L204.916 174.031C204.182 173.623 202.958 173.541 202.305 173.949L160.458 198.095C159.806 198.421 159.887 199.074 160.621 199.563Z" fill="url(#paint25_linear_2010_197)"/>
<path d="M160.621 199.155L230.693 239.616C231.427 240.024 232.651 240.105 233.303 239.697L275.151 215.552C275.395 215.388 275.477 215.307 275.559 215.062C275.64 215.388 275.559 215.715 275.151 215.878L233.303 240.024C232.651 240.432 231.509 240.35 230.693 239.942L160.621 199.482C160.132 199.155 159.887 198.747 160.05 198.421C160.132 198.747 160.295 198.992 160.621 199.155Z" fill="white"/>
<path d="M251.902 231.295V230.561C251.902 230.48 251.821 230.48 251.821 230.48L249.129 232.03C249.047 232.03 249.047 232.111 249.047 232.193V232.927C249.047 233.009 249.129 233.009 249.129 233.009L251.821 231.459C251.821 231.459 251.902 231.377 251.902 231.295Z" fill="#2842A2"/>
<path d="M247.823 233.579V232.845C247.823 232.764 247.742 232.764 247.742 232.764L245.05 234.314C244.968 234.314 244.968 234.395 244.968 234.477V235.211C244.968 235.292 245.05 235.292 245.05 235.292L247.742 233.743C247.742 233.743 247.823 233.661 247.823 233.579Z" fill="#2842A2"/>
<path d="M264.22 213.757L205.976 180.149C205.568 179.904 205.079 179.904 204.752 180.149L184.033 192.059C183.707 192.222 183.707 192.63 184.033 192.793L242.276 226.401C242.684 226.646 243.174 226.646 243.5 226.401L264.301 214.41C264.546 214.328 264.546 213.92 264.22 213.757Z" fill="#ADB1F2"/>
<path d="M264.22 214.491L263.975 214.573L205.895 181.046C205.487 180.801 204.997 180.801 204.671 181.046L184.114 192.956L183.87 192.874C183.543 192.711 183.543 192.303 183.87 192.14L204.589 180.149C204.997 179.904 205.487 179.904 205.813 180.149L264.057 213.757C264.546 213.92 264.546 214.328 264.22 214.491Z" fill="#9198DB"/>
<path d="M208.016 185.94L257.368 214.41L259.489 213.023L210.3 184.635L208.016 185.94Z" fill="#24126A"/>
<path d="M204.834 190.427L249.618 216.286L251.168 214.573L207.119 189.203L204.834 190.427Z" fill="#24126A"/>
<path d="M194.067 188.388L249.945 220.691L252.229 219.386L196.351 187.083L194.067 188.388Z" fill="#24126A"/>
<path d="M190.477 190.427L246.355 222.73L248.639 221.425L192.761 189.203L190.477 190.427Z" fill="#24126A"/>
<path d="M186.888 192.548L242.766 224.769L245.05 223.464L189.172 191.243L186.888 192.548Z" fill="#24126A"/>
<path d="M256.878 214.083L259.081 215.389L261.365 214.083L259.081 212.778L256.878 214.083Z" fill="#24126A"/>
<path d="M248.884 215.878L253.533 218.57L255.818 217.265L251.168 214.573L248.884 215.878Z" fill="#24126A"/>
<path d="M203.774 221.833L188.03 212.778C187.377 212.452 187.377 211.881 188.03 211.473L198.798 205.273C199.45 204.947 200.429 204.947 201 205.273L216.744 214.328C217.396 214.654 217.396 215.225 216.744 215.633L205.976 221.833C205.405 222.241 204.345 222.241 203.774 221.833Z" fill="url(#paint26_linear_2010_197)"/>
<path d="M216.744 214.899L201 205.845C200.348 205.518 199.369 205.518 198.798 205.845L188.03 212.044C187.867 212.126 187.704 212.289 187.622 212.452C187.459 212.126 187.622 211.799 188.03 211.555L198.798 205.355C199.45 205.029 200.429 205.029 201 205.355L216.744 214.41C217.152 214.654 217.315 214.981 217.152 215.307C217.07 215.144 216.907 214.981 216.744 214.899Z" fill="#9198DB"/>
<g opacity="0.11">
<path d="M204.834 173.949L274.906 214.41C275.64 214.818 276.864 214.899 277.516 214.491L319.364 190.345C320.016 189.938 319.935 189.285 319.201 188.877L249.129 148.417C248.395 148.009 247.171 147.927 246.518 148.335L204.671 172.481C203.937 172.807 204.019 173.46 204.834 173.949Z" fill="url(#paint27_linear_2010_197)"/>
<path d="M275.151 181.209L259.407 172.155C258.754 171.828 258.754 171.257 259.407 170.849L270.175 164.65C270.827 164.323 271.806 164.323 272.377 164.65L288.121 173.704C288.773 174.031 288.773 174.602 288.121 175.01L277.353 181.209C276.701 181.535 275.722 181.535 275.151 181.209Z" fill="url(#paint28_linear_2010_197)"/>
<path d="M288.039 174.194L272.296 165.139C271.643 164.813 270.664 164.813 270.093 165.139L259.325 171.339C259.162 171.42 258.999 171.583 258.917 171.747C258.754 171.42 258.917 171.094 259.325 170.849L270.093 164.65C270.746 164.323 271.725 164.323 272.296 164.65L288.039 173.704C288.447 173.949 288.61 174.275 288.447 174.602C288.366 174.439 288.284 174.357 288.039 174.194Z" fill="#9198DB"/>
<path d="M294.973 195.321L236.73 161.713C236.322 161.468 235.832 161.468 235.506 161.713L214.786 173.704C214.46 173.867 214.46 174.275 214.786 174.438L272.948 208.128C273.356 208.373 273.845 208.373 274.172 208.128L294.973 196.137C295.299 195.974 295.299 195.566 294.973 195.321Z" fill="#ADB1F2"/>
<path d="M294.973 196.137L294.728 196.219L236.648 162.692C236.24 162.447 235.751 162.447 235.424 162.692L214.868 174.602L214.623 174.52C214.297 174.357 214.297 173.949 214.623 173.786L235.343 161.795C235.751 161.55 236.24 161.55 236.566 161.795L294.81 195.403C295.299 195.566 295.299 195.974 294.973 196.137Z" fill="#9198DB"/>
<path d="M220.17 172.888L270.909 202.173L268.87 203.397L218.131 174.112L220.17 172.888Z" fill="#24126A"/>
<path d="M225.473 169.789L273.764 197.687L271.725 198.829L223.515 171.012L225.473 169.789Z" fill="#24126A"/>
<path d="M277.353 199.726L281.84 202.337L279.801 203.479L275.314 200.95L277.353 199.726Z" fill="#24126A"/>
<path d="M273.356 203.642L276.538 205.436L274.498 206.578L271.317 204.784L273.356 203.642Z" fill="#24126A"/>
<path d="M228.817 167.912L285.184 200.379L283.227 201.602L226.859 169.054L228.817 167.912Z" fill="#24126A"/>
<path d="M232.243 165.955L288.529 198.502L286.571 199.644L230.204 167.097L232.243 165.955Z" fill="#24126A"/>
<path d="M235.588 163.997L291.873 196.545L289.916 197.687L233.548 165.221L235.588 163.997Z" fill="#24126A"/>
</g>
<path d="M229.877 140.504L235.424 143.685L235.588 142.707L230.041 139.525L229.877 140.504Z" fill="#42E8E0"/>
<path d="M236.322 144.175L239.34 145.969L239.503 144.99L236.485 143.196L236.322 144.175Z" fill="#42E8E0"/>
<path d="M243.99 148.661L246.192 149.885L246.355 148.906L244.153 147.682L243.99 148.661Z" fill="#42E8E0"/>
<path d="M242.439 147.682L243.174 148.172L243.337 147.193L242.603 146.785L242.439 147.682Z" fill="#42E8E0"/>
<path d="M240.237 146.459L241.542 147.193L241.706 146.296L240.4 145.48L240.237 146.459Z" fill="#42E8E0"/>
<path d="M234.282 147.845L236.403 149.069L236.566 148.09L234.445 146.866L234.282 147.845Z" fill="#42E8E0"/>
<path d="M229.143 144.909L233.385 147.356L233.548 146.377L229.306 143.93L229.143 144.909Z" fill="#42E8E0"/>
<path d="M235.261 160.408L239.503 162.855L239.666 161.958L235.424 159.429L235.261 160.408Z" fill="#42E8E0"/>
<path d="M233.059 159.184L234.445 159.918L234.608 158.939L233.222 158.205L233.059 159.184Z" fill="#42E8E0"/>
<path d="M235.995 156.003L240.237 158.532L240.4 157.553L236.158 155.106L235.995 156.003Z" fill="#42E8E0"/>
<path d="M233.793 154.779L235.098 155.514L235.261 154.616L233.956 153.801L233.793 154.779Z" fill="#42E8E0"/>
<path d="M232.08 179.333L224.086 174.683L223.922 175.662L231.917 180.312L232.08 179.333Z" fill="#42E8E0"/>
<path d="M234.935 180.965L232.977 179.823L232.814 180.801L234.772 181.943L234.935 180.965Z" fill="#42E8E0"/>
<path d="M249.047 181.943L241.053 177.294L240.89 178.273L248.884 182.841L249.047 181.943Z" fill="#42E8E0"/>
<path d="M251.902 183.575L249.944 182.433L249.781 183.33L251.739 184.554L251.902 183.575Z" fill="#42E8E0"/>
<path d="M226.614 173.786L224.412 172.481L224.249 173.46L226.451 174.765L226.614 173.786Z" fill="#42E8E0"/>
<path d="M239.911 176.641L237.709 175.336L237.545 176.315L239.748 177.538L239.911 176.641Z" fill="#42E8E0"/>
<path d="M231.754 176.723L227.512 174.276L227.349 175.255L231.59 177.702L231.754 176.723Z" fill="#42E8E0"/>
<path d="M233.956 178.028L232.569 177.212L232.406 178.191L233.793 178.925L233.956 178.028Z" fill="#42E8E0"/>
<path d="M239.095 180.965L234.853 178.517L234.69 179.496L238.932 181.943L239.095 180.965Z" fill="#42E8E0"/>
<path d="M241.297 182.27L239.911 181.454L239.748 182.433L241.134 183.167L241.297 182.27Z" fill="#42E8E0"/>
<path d="M239.503 178.844L237.3 177.538L237.137 178.517L239.34 179.741L239.503 178.844Z" fill="#42E8E0"/>
<path d="M244.642 181.78L240.319 179.333L240.156 180.23L244.479 182.677L244.642 181.78Z" fill="#42E8E0"/>
<path d="M246.845 183.004L245.458 182.27L245.295 183.167L246.682 183.983L246.845 183.004Z" fill="#42E8E0"/>
<path d="M229.306 172.889L224.82 170.36L224.657 171.257L229.143 173.868L229.306 172.889Z" fill="#42E8E0"/>
<path d="M233.304 175.254L230.122 173.378L229.959 174.357L233.14 176.233L233.304 175.254Z" fill="#42E8E0"/>
<path d="M236.403 176.967L234.201 175.744L234.038 176.723L236.24 177.946L236.403 176.967Z" fill="#42E8E0"/>
<path d="M257.449 186.756L253.044 184.228L252.881 185.125L257.286 187.735L257.449 186.756Z" fill="#42E8E0"/>
<path d="M261.528 189.122L258.346 187.246L258.183 188.224L261.364 190.101L261.528 189.122Z" fill="#42E8E0"/>
<path d="M264.546 190.835L262.425 189.611L262.262 190.59L264.383 191.814L264.546 190.835Z" fill="#42E8E0"/>
<path d="M255.736 157.798L260.223 160.408L260.386 159.429L255.899 156.9L255.736 157.798Z" fill="#42E8E0"/>
<path d="M251.658 155.432L254.921 157.308L255.084 156.411L251.821 154.535L251.658 155.432Z" fill="#42E8E0"/>
<path d="M248.639 153.719L250.842 154.943L251.005 154.045L248.802 152.74L248.639 153.719Z" fill="#42E8E0"/>
<path d="M254.268 154.535L258.754 157.145L258.917 156.166L254.431 153.556L254.268 154.535Z" fill="#42E8E0"/>
<path d="M250.189 152.169L253.452 154.045L253.615 153.066L250.352 151.271L250.189 152.169Z" fill="#42E8E0"/>
<path d="M247.171 150.456L249.373 151.679L249.537 150.782L247.334 149.477L247.171 150.456Z" fill="#42E8E0"/>
<path d="M236.24 158.613L237.79 159.51L237.953 158.532L236.403 157.634L236.24 158.613Z" fill="#42E8E0"/>
<path d="M233.467 156.982L235.425 158.124L235.588 157.145L233.63 156.003L233.467 156.982Z" fill="#42E8E0"/>
<path d="M229.714 170.686L225.228 168.157L225.064 169.136L229.551 171.665L229.714 170.686Z" fill="#42E8E0"/>
<path d="M233.711 173.052L230.53 171.176L230.367 172.155L233.548 174.031L233.711 173.052Z" fill="#42E8E0"/>
<path d="M236.729 174.846L234.608 173.541L234.445 174.52L236.566 175.743L236.729 174.846Z" fill="#42E8E0"/>
<path d="M227.104 166.852L225.554 165.955L225.391 166.933L226.941 167.749L227.104 166.852Z" fill="#42E8E0"/>
<path d="M229.959 168.484L227.919 167.342L227.756 168.239L229.796 169.381L229.959 168.484Z" fill="#42E8E0"/>
<path d="M233.956 170.768L230.774 168.973L230.611 169.871L233.793 171.747L233.956 170.768Z" fill="#42E8E0"/>
<path d="M238.279 152.577L239.829 153.393L239.992 152.495L238.442 151.598L238.279 152.577Z" fill="#42E8E0"/>
<path d="M235.506 150.945L237.464 152.087L237.627 151.109L235.669 149.967L235.506 150.945Z" fill="#42E8E0"/>
<path d="M231.427 148.58L234.609 150.456L234.772 149.477L231.59 147.601L231.427 148.58Z" fill="#42E8E0"/>
<path d="M240.645 156.085L243.826 157.961L243.99 156.982L240.808 155.187L240.645 156.085Z" fill="#42E8E0"/>
<path d="M235.343 153.229L239.666 155.758L239.829 154.779L235.506 152.332L235.343 153.229Z" fill="#42E8E0"/>
<path d="M233.141 152.006L234.527 152.74L234.691 151.843L233.304 151.027L233.141 152.006Z" fill="#42E8E0"/>
<path d="M231.101 150.782L232.406 151.598L232.569 150.619L231.264 149.803L231.101 150.782Z" fill="#42E8E0"/>
<path d="M231.345 163.182L235.587 165.629L235.75 164.65L231.508 162.203L231.345 163.182Z" fill="#42E8E0"/>
<path d="M229.143 161.876L230.529 162.692L230.692 161.713L229.306 160.897L229.143 161.876Z" fill="#42E8E0"/>
<path d="M231.672 165.71L233.14 166.608L233.303 165.629L231.835 164.813L231.672 165.71Z" fill="#42E8E0"/>
<path d="M236.974 163.997L238.442 164.813L238.605 163.916L237.137 163.019L236.974 163.997Z" fill="#42E8E0"/>
<path d="M239.095 165.221L242.684 167.26L242.847 166.363L239.258 164.242L239.095 165.221Z" fill="#42E8E0"/>
<path d="M243.337 167.668L245.539 168.892L245.703 167.913L243.5 166.689L243.337 167.668Z" fill="#42E8E0"/>
<path d="M228.816 164.079L230.774 165.221L230.937 164.323L228.98 163.1L228.816 164.079Z" fill="#42E8E0"/>
<path d="M228.653 166.363L230.122 167.178L230.285 166.281L228.816 165.384L228.653 166.363Z" fill="#42E8E0"/>
<path d="M225.798 164.731L227.756 165.873L227.919 164.894L225.961 163.752L225.798 164.731Z" fill="#42E8E0"/>
<path d="M234.771 162.692L236.158 163.508L236.321 162.529L234.935 161.795L234.771 162.692Z" fill="#42E8E0"/>
<path d="M232.65 161.468L234.037 162.284L234.2 161.305L232.814 160.571L232.65 161.468Z" fill="#42E8E0"/>
<path d="M243.092 150.456L247.66 153.148L247.824 152.169L243.255 149.559L243.092 150.456Z" fill="#42E8E0"/>
<path d="M237.872 147.519L242.195 149.966L242.358 149.069L238.035 146.54L237.872 147.519Z" fill="#42E8E0"/>
<path d="M235.669 146.214L237.056 147.03L237.219 146.051L235.832 145.317L235.669 146.214Z" fill="#42E8E0"/>
<path d="M233.63 144.991L234.935 145.807L235.098 144.828L233.711 144.094L233.63 144.991Z" fill="#42E8E0"/>
<path d="M232.406 144.338L229.551 142.706L229.714 141.728L232.57 143.359L232.406 144.338Z" fill="#42E8E0"/>
<path d="M203.203 183.167L205.405 184.39L207.689 183.167L205.405 181.862L203.203 183.167Z" fill="#24126A"/>
<path d="M197.656 186.348L202.305 189.04L204.59 187.735L199.94 185.043L197.656 186.348Z" fill="#24126A"/>
<path opacity="0.5" d="M348.486 98.4937V-37H254.268V98.4937L301.336 125.658L348.486 98.4937Z" fill="url(#paint29_linear_2010_197)"/>
<defs>
<radialGradient id="paint0_radial_2010_197" cx="0" cy="0" r="1" gradientUnits="userSpaceOnUse" gradientTransform="translate(470.533 9.62976) rotate(180) scale(358.736 360.311)">
<stop stop-color="#FF2C9C"/>
<stop offset="0.0300632" stop-color="#F62F9F"/>
<stop offset="0.2023" stop-color="#C63EB0"/>
<stop offset="0.3737" stop-color="#9E4BBE"/>
<stop offset="0.5413" stop-color="#7F54C9"/>
<stop offset="0.7039" stop-color="#695BD1"/>
<stop offset="0.8594" stop-color="#5C60D5"/>
<stop offset="1" stop-color="#5761D7"/>
</radialGradient>
<linearGradient id="paint1_linear_2010_197" x1="160.026" y1="121.67" x2="273.564" y2="121.67" gradientUnits="userSpaceOnUse">
<stop stop-color="#5761D7"/>
<stop offset="0.1779" stop-color="#5C66D9"/>
<stop offset="0.3876" stop-color="#6A73DF"/>
<stop offset="0.6134" stop-color="#8289E8"/>
<stop offset="0.849" stop-color="#A3A7F5"/>
<stop offset="1" stop-color="#BCBEFF"/>
</linearGradient>
<linearGradient id="paint2_linear_2010_197" x1="198.175" y1="117.884" x2="311.774" y2="117.884" gradientUnits="userSpaceOnUse">
<stop stop-color="#C0BFF6"/>
<stop offset="0.2938" stop-color="#C5C4F7"/>
<stop offset="0.6399" stop-color="#D3D2F9"/>
<stop offset="1" stop-color="#E9E9FD"/>
</linearGradient>
<linearGradient id="paint3_linear_2010_197" x1="190.805" y1="109.143" x2="219.883" y2="109.143" gradientUnits="userSpaceOnUse">
<stop stop-color="#C0BFF6"/>
<stop offset="0.2938" stop-color="#C5C4F7"/>
<stop offset="0.6399" stop-color="#D3D2F9"/>
<stop offset="1" stop-color="#E9E9FD"/>
</linearGradient>
<linearGradient id="paint4_linear_2010_197" x1="193.079" y1="103.903" x2="273.47" y2="103.903" gradientUnits="userSpaceOnUse">
<stop stop-color="#C0BFF6"/>
<stop offset="0.2938" stop-color="#C5C4F7"/>
<stop offset="0.6399" stop-color="#D3D2F9"/>
<stop offset="1" stop-color="#E9E9FD"/>
</linearGradient>
<linearGradient id="paint5_linear_2010_197" x1="193.079" y1="124.52" x2="206.883" y2="124.52" gradientUnits="userSpaceOnUse">
<stop stop-color="#5761D7"/>
<stop offset="0.1779" stop-color="#5C66D9"/>
<stop offset="0.3876" stop-color="#6A73DF"/>
<stop offset="0.6134" stop-color="#8289E8"/>
<stop offset="0.849" stop-color="#A3A7F5"/>
<stop offset="1" stop-color="#BCBEFF"/>
</linearGradient>
<linearGradient id="paint6_linear_2010_197" x1="442.713" y1="121.67" x2="329.175" y2="121.67" gradientUnits="userSpaceOnUse">
<stop stop-color="#5761D7"/>
<stop offset="0.1779" stop-color="#5C66D9"/>
<stop offset="0.3876" stop-color="#6A73DF"/>
<stop offset="0.6134" stop-color="#8289E8"/>
<stop offset="0.849" stop-color="#A3A7F5"/>
<stop offset="1" stop-color="#BCBEFF"/>
</linearGradient>
<linearGradient id="paint7_linear_2010_197" x1="404.565" y1="117.884" x2="290.966" y2="117.884" gradientUnits="userSpaceOnUse">
<stop stop-color="#C0BFF6"/>
<stop offset="0.2938" stop-color="#C5C4F7"/>
<stop offset="0.6399" stop-color="#D3D2F9"/>
<stop offset="1" stop-color="#E9E9FD"/>
</linearGradient>
<linearGradient id="paint8_linear_2010_197" x1="411.935" y1="109.143" x2="382.857" y2="109.143" gradientUnits="userSpaceOnUse">
<stop stop-color="#C0BFF6"/>
<stop offset="0.2938" stop-color="#C5C4F7"/>
<stop offset="0.6399" stop-color="#D3D2F9"/>
<stop offset="1" stop-color="#E9E9FD"/>
</linearGradient>
<linearGradient id="paint9_linear_2010_197" x1="409.661" y1="103.903" x2="329.27" y2="103.903" gradientUnits="userSpaceOnUse">
<stop stop-color="#C0BFF6"/>
<stop offset="0.2938" stop-color="#C5C4F7"/>
<stop offset="0.6399" stop-color="#D3D2F9"/>
<stop offset="1" stop-color="#E9E9FD"/>
</linearGradient>
<linearGradient id="paint10_linear_2010_197" x1="409.66" y1="124.52" x2="395.856" y2="124.52" gradientUnits="userSpaceOnUse">
<stop stop-color="#5761D7"/>
<stop offset="0.1779" stop-color="#5C66D9"/>
<stop offset="0.3876" stop-color="#6A73DF"/>
<stop offset="0.6134" stop-color="#8289E8"/>
<stop offset="0.849" stop-color="#A3A7F5"/>
<stop offset="1" stop-color="#BCBEFF"/>
</linearGradient>
<linearGradient id="paint11_linear_2010_197" x1="333.768" y1="180.716" x2="333.768" y2="136.437" gradientUnits="userSpaceOnUse">
<stop stop-color="#C0BFF6"/>
<stop offset="0.2938" stop-color="#C5C4F7"/>
<stop offset="0.6399" stop-color="#D3D2F9"/>
<stop offset="1" stop-color="#E9E9FD"/>
</linearGradient>
<linearGradient id="paint12_linear_2010_197" x1="333.768" y1="144" x2="333.768" y2="99.721" gradientUnits="userSpaceOnUse">
<stop stop-color="#C0BFF6"/>
<stop offset="0.2938" stop-color="#C5C4F7"/>
<stop offset="0.6399" stop-color="#D3D2F9"/>
<stop offset="1" stop-color="#E9E9FD"/>
</linearGradient>
<radialGradient id="paint13_radial_2010_197" cx="0" cy="0" r="1" gradientUnits="userSpaceOnUse" gradientTransform="translate(321.995 96.073) scale(1.67993 1.67993)">
<stop stop-color="#FF2C9C"/>
<stop offset="0.0300632" stop-color="#F62F9F"/>
<stop offset="0.2023" stop-color="#C63EB0"/>
<stop offset="0.3737" stop-color="#9E4BBE"/>
<stop offset="0.5413" stop-color="#7F54C9"/>
<stop offset="0.7039" stop-color="#695BD1"/>
<stop offset="0.8594" stop-color="#5C60D5"/>
<stop offset="1" stop-color="#5761D7"/>
</radialGradient>
<linearGradient id="paint14_linear_2010_197" x1="316.193" y1="166.308" x2="398.005" y2="166.308" gradientUnits="userSpaceOnUse">
<stop stop-color="#C0BFF6"/>
<stop offset="0.2938" stop-color="#C5C4F7"/>
<stop offset="0.6399" stop-color="#D3D2F9"/>
<stop offset="1" stop-color="#E9E9FD"/>
</linearGradient>
<linearGradient id="paint15_linear_2010_197" x1="316.193" y1="187.29" x2="330.241" y2="187.29" gradientUnits="userSpaceOnUse">
<stop stop-color="#5761D7"/>
<stop offset="0.1779" stop-color="#5C66D9"/>
<stop offset="0.3876" stop-color="#6A73DF"/>
<stop offset="0.6134" stop-color="#8289E8"/>
<stop offset="0.849" stop-color="#A3A7F5"/>
<stop offset="1" stop-color="#BCBEFF"/>
</linearGradient>
<linearGradient id="paint16_linear_2010_197" x1="327.154" y1="210.875" x2="442.7" y2="210.875" gradientUnits="userSpaceOnUse">
<stop stop-color="#5761D7"/>
<stop offset="0.1779" stop-color="#5C66D9"/>
<stop offset="0.3876" stop-color="#6A73DF"/>
<stop offset="0.6134" stop-color="#8289E8"/>
<stop offset="0.849" stop-color="#A3A7F5"/>
<stop offset="1" stop-color="#BCBEFF"/>
</linearGradient>
<linearGradient id="paint17_linear_2010_197" x1="365.977" y1="207.022" x2="481.585" y2="207.022" gradientUnits="userSpaceOnUse">
<stop stop-color="#C0BFF6"/>
<stop offset="0.2938" stop-color="#C5C4F7"/>
<stop offset="0.6399" stop-color="#D3D2F9"/>
<stop offset="1" stop-color="#E9E9FD"/>
</linearGradient>
<linearGradient id="paint18_linear_2010_197" x1="385.556" y1="213.585" x2="415.148" y2="213.585" gradientUnits="userSpaceOnUse">
<stop stop-color="#C0BFF6"/>
<stop offset="0.2938" stop-color="#C5C4F7"/>
<stop offset="0.6399" stop-color="#D3D2F9"/>
<stop offset="1" stop-color="#E9E9FD"/>
</linearGradient>
<linearGradient id="paint19_linear_2010_197" x1="321.809" y1="181.398" x2="437.417" y2="181.398" gradientUnits="userSpaceOnUse">
<stop stop-color="#C0BFF6"/>
<stop offset="0.2938" stop-color="#C5C4F7"/>
<stop offset="0.6399" stop-color="#D3D2F9"/>
<stop offset="1" stop-color="#E9E9FD"/>
</linearGradient>
<linearGradient id="paint20_linear_2010_197" x1="314.2" y1="172.912" x2="343.792" y2="172.912" gradientUnits="userSpaceOnUse">
<stop stop-color="#C0BFF6"/>
<stop offset="0.2938" stop-color="#C5C4F7"/>
<stop offset="0.6399" stop-color="#D3D2F9"/>
<stop offset="1" stop-color="#E9E9FD"/>
</linearGradient>
<linearGradient id="paint21_linear_2010_197" x1="163.767" y1="218.077" x2="272.681" y2="218.077" gradientUnits="userSpaceOnUse">
<stop stop-color="#5761D7"/>
<stop offset="0.1406" stop-color="#5C60D5"/>
<stop offset="0.2961" stop-color="#695BD1"/>
<stop offset="0.4587" stop-color="#7F54C9"/>
<stop offset="0.6263" stop-color="#9E4BBE"/>
<stop offset="0.7977" stop-color="#C63EB0"/>
<stop offset="0.9699" stop-color="#F62F9F"/>
<stop offset="1" stop-color="#FF2C9C"/>
</linearGradient>
<linearGradient id="paint22_linear_2010_197" x1="286.546" y1="166.308" x2="204.734" y2="166.308" gradientUnits="userSpaceOnUse">
<stop stop-color="#C0BFF6"/>
<stop offset="0.2938" stop-color="#C5C4F7"/>
<stop offset="0.6399" stop-color="#D3D2F9"/>
<stop offset="1" stop-color="#E9E9FD"/>
</linearGradient>
<linearGradient id="paint23_linear_2010_197" x1="286.546" y1="187.29" x2="272.498" y2="187.29" gradientUnits="userSpaceOnUse">
<stop stop-color="#5761D7"/>
<stop offset="0.1779" stop-color="#5C66D9"/>
<stop offset="0.3876" stop-color="#6A73DF"/>
<stop offset="0.6134" stop-color="#8289E8"/>
<stop offset="0.849" stop-color="#A3A7F5"/>
<stop offset="1" stop-color="#BCBEFF"/>
</linearGradient>
<linearGradient id="paint24_linear_2010_197" x1="275.585" y1="210.875" x2="160.039" y2="210.875" gradientUnits="userSpaceOnUse">
<stop stop-color="#5761D7"/>
<stop offset="0.1779" stop-color="#5C66D9"/>
<stop offset="0.3876" stop-color="#6A73DF"/>
<stop offset="0.6134" stop-color="#8289E8"/>
<stop offset="0.849" stop-color="#A3A7F5"/>
<stop offset="1" stop-color="#BCBEFF"/>
</linearGradient>
<linearGradient id="paint25_linear_2010_197" x1="236.761" y1="207.022" x2="121.154" y2="207.022" gradientUnits="userSpaceOnUse">
<stop stop-color="#C0BFF6"/>
<stop offset="0.2938" stop-color="#C5C4F7"/>
<stop offset="0.6399" stop-color="#D3D2F9"/>
<stop offset="1" stop-color="#E9E9FD"/>
</linearGradient>
<linearGradient id="paint26_linear_2010_197" x1="217.183" y1="213.585" x2="187.591" y2="213.585" gradientUnits="userSpaceOnUse">
<stop stop-color="#C0BFF6"/>
<stop offset="0.2938" stop-color="#C5C4F7"/>
<stop offset="0.6399" stop-color="#D3D2F9"/>
<stop offset="1" stop-color="#E9E9FD"/>
</linearGradient>
<linearGradient id="paint27_linear_2010_197" x1="280.93" y1="181.398" x2="165.323" y2="181.398" gradientUnits="userSpaceOnUse">
<stop stop-color="#C0BFF6"/>
<stop offset="0.2938" stop-color="#C5C4F7"/>
<stop offset="0.6399" stop-color="#D3D2F9"/>
<stop offset="1" stop-color="#E9E9FD"/>
</linearGradient>
<linearGradient id="paint28_linear_2010_197" x1="288.539" y1="172.912" x2="258.947" y2="172.912" gradientUnits="userSpaceOnUse">
<stop stop-color="#C0BFF6"/>
<stop offset="0.2938" stop-color="#C5C4F7"/>
<stop offset="0.6399" stop-color="#D3D2F9"/>
<stop offset="1" stop-color="#E9E9FD"/>
</linearGradient>
<linearGradient id="paint29_linear_2010_197" x1="301.37" y1="125.673" x2="301.37" y2="-37" gradientUnits="userSpaceOnUse">
<stop stop-color="#42E8E0"/>
<stop offset="0.1055" stop-color="#37B6BF"/>
<stop offset="0.2197" stop-color="#2C87A1"/>
<stop offset="0.338" stop-color="#235F87" stop-opacity="0.91"/>
<stop offset="0.4587" stop-color="#1C3F72" stop-opacity="0.74"/>
<stop offset="0.5824" stop-color="#162561" stop-opacity="0.69"/>
<stop offset="0.7105" stop-color="#121355" stop-opacity="0.6"/>
<stop offset="0.8458" stop-color="#10084E" stop-opacity="0"/>
<stop offset="1" stop-color="#0F054C" stop-opacity="0"/>
</linearGradient>
</defs>
</svg>
