<svg width="36" height="36" viewBox="0 0 36 36" fill="none" xmlns="http://www.w3.org/2000/svg">
<path d="M11.625 4.41211V6.21777C11.6253 6.69199 12.0099 7.07617 12.4834 7.07617H24.0098C24.4833 7.07617 24.8679 6.69195 24.8682 6.21777V4.41211H28.9883C30.4071 4.41211 31.5613 5.56807 31.5615 6.98926V33.4229C31.5613 34.8439 30.4072 36 28.9883 36H7.50488C6.0861 36 4.93188 34.844 4.93164 33.4229V6.98926C4.93185 5.56817 6.086 4.41215 7.50488 4.41211H11.625ZM24.7412 24.0576C23.6589 24.0576 22.6423 24.4741 21.8789 25.2305C21.1073 25.9948 20.6817 27.0221 20.6816 28.123V28.3301C20.6816 29.4142 21.0974 30.4326 21.8525 31.1973C22.6159 31.9702 23.642 32.3955 24.7412 32.3955C25.8624 32.3955 26.904 31.9586 27.6738 31.165C28.4281 30.3872 28.8277 29.3582 28.7998 28.2666V28.123C28.7998 27.0393 28.384 26.0208 27.6289 25.2559C26.8656 24.4832 25.8402 24.0577 24.7412 24.0576ZM24.7412 25.7754C26.0554 25.7755 27.085 26.8067 27.085 28.123V28.3027C27.103 28.9311 26.8753 29.5225 26.4434 29.9678C25.9992 30.4253 25.3946 30.6777 24.7412 30.6777C23.427 30.6777 22.3975 29.6464 22.3975 28.3301V28.123C22.3975 26.8067 23.427 25.7757 24.7412 25.7754ZM10.2666 23.5078C9.79265 23.5078 9.40918 23.8925 9.40918 24.3672C9.4093 24.8415 9.79307 25.2265 10.2666 25.2266H16.4443C16.9179 25.2266 17.3026 24.8415 17.3027 24.3672C17.3027 23.8927 16.918 23.5078 16.4443 23.5078H10.2666ZM10.2666 17.3193C9.79265 17.3194 9.40918 17.704 9.40918 18.1787C9.40919 18.6531 9.793 19.0381 10.2666 19.0381H26.2275C26.7012 19.0381 27.0859 18.6531 27.0859 18.1787C27.0859 17.7043 26.7012 17.3193 26.2275 17.3193H10.2666ZM10.2666 11.1309C9.79271 11.1309 9.40928 11.5159 9.40918 11.9902C9.40918 12.4647 9.793 12.8496 10.2666 12.8496H26.2275C26.7012 12.8496 27.0859 12.4646 27.0859 11.9902C27.0858 11.5159 26.7011 11.1309 26.2275 11.1309H10.2666ZM21.4365 0C22.3825 0 23.1523 0.771227 23.1523 1.71875V5.3584H13.3408V1.71875C13.3408 0.771266 14.1098 0.000127292 15.0557 0H21.4365Z" fill="white"/>
<path d="M11.625 4.41211V6.21777C11.6253 6.69199 12.0099 7.07617 12.4834 7.07617H24.0098C24.4833 7.07617 24.8679 6.69195 24.8682 6.21777V4.41211H28.9883C30.4071 4.41211 31.5613 5.56807 31.5615 6.98926V33.4229C31.5613 34.8439 30.4072 36 28.9883 36H7.50488C6.0861 36 4.93188 34.844 4.93164 33.4229V6.98926C4.93185 5.56817 6.086 4.41215 7.50488 4.41211H11.625ZM24.7412 24.0576C23.6589 24.0576 22.6423 24.4741 21.8789 25.2305C21.1073 25.9948 20.6817 27.0221 20.6816 28.123V28.3301C20.6816 29.4142 21.0974 30.4326 21.8525 31.1973C22.6159 31.9702 23.642 32.3955 24.7412 32.3955C25.8624 32.3955 26.904 31.9586 27.6738 31.165C28.4281 30.3872 28.8277 29.3582 28.7998 28.2666V28.123C28.7998 27.0393 28.384 26.0208 27.6289 25.2559C26.8656 24.4832 25.8402 24.0577 24.7412 24.0576ZM24.7412 25.7754C26.0554 25.7755 27.085 26.8067 27.085 28.123V28.3027C27.103 28.9311 26.8753 29.5225 26.4434 29.9678C25.9992 30.4253 25.3946 30.6777 24.7412 30.6777C23.427 30.6777 22.3975 29.6464 22.3975 28.3301V28.123C22.3975 26.8067 23.427 25.7757 24.7412 25.7754ZM10.2666 23.5078C9.79265 23.5078 9.40918 23.8925 9.40918 24.3672C9.4093 24.8415 9.79307 25.2265 10.2666 25.2266H16.4443C16.9179 25.2266 17.3026 24.8415 17.3027 24.3672C17.3027 23.8927 16.918 23.5078 16.4443 23.5078H10.2666ZM10.2666 17.3193C9.79265 17.3194 9.40918 17.704 9.40918 18.1787C9.40919 18.6531 9.793 19.0381 10.2666 19.0381H26.2275C26.7012 19.0381 27.0859 18.6531 27.0859 18.1787C27.0859 17.7043 26.7012 17.3193 26.2275 17.3193H10.2666ZM10.2666 11.1309C9.79271 11.1309 9.40928 11.5159 9.40918 11.9902C9.40918 12.4647 9.793 12.8496 10.2666 12.8496H26.2275C26.7012 12.8496 27.0859 12.4646 27.0859 11.9902C27.0858 11.5159 26.7011 11.1309 26.2275 11.1309H10.2666ZM21.4365 0C22.3825 0 23.1523 0.771227 23.1523 1.71875V5.3584H13.3408V1.71875C13.3408 0.771266 14.1098 0.000127292 15.0557 0H21.4365Z" fill="url(#paint0_linear_2001_375)"/>
<defs>
<linearGradient id="paint0_linear_2001_375" x1="4.23175" y1="48.8045" x2="32.4189" y2="42.6531" gradientUnits="userSpaceOnUse">
<stop stop-color="#0D748B"/>
<stop offset="1" stop-color="#1A0B73"/>
</linearGradient>
</defs>
</svg>
