<svg width="38" height="38" viewBox="0 0 38 38" fill="none" xmlns="http://www.w3.org/2000/svg">
<path d="M22.5137 29.6416C22.7215 29.5319 22.9708 29.5319 23.1787 29.6416L23.4795 29.7686C23.7781 29.9108 24.0692 30.0687 24.3506 30.2422C24.6062 30.4032 24.85 30.5827 25.0791 30.7793C25.8193 31.3671 26.3967 32.1338 26.7568 33.0068C27.0335 33.7007 27.1787 34.4406 27.1846 35.1875L27.1807 35.3066C27.1594 35.5845 27.0565 35.851 26.8838 36.0723C26.6699 36.3321 26.4064 36.547 26.1084 36.7041C25.4798 37.0591 24.8021 37.3203 24.0977 37.4785C22.4964 37.7978 20.8689 37.9724 19.2363 38C17.6037 37.9737 15.9768 37.7991 14.376 37.4785C13.6671 37.3177 12.9849 37.0567 12.3496 36.7041C12.0589 36.5427 11.8005 36.3285 11.5889 36.0723C11.3859 35.8227 11.2791 35.5088 11.2881 35.1875C11.2939 34.4406 11.4392 33.7008 11.7158 33.0068C12.0442 32.2066 12.5539 31.4933 13.2041 30.9219C13.4938 30.6741 13.8012 30.4468 14.123 30.2422L14.7715 29.8789L15.2783 29.6416L15.3584 29.6055C15.5482 29.5336 15.7613 29.5457 15.9434 29.6416C16.3392 29.8824 16.7584 30.0837 17.1943 30.2422C17.8537 30.4573 18.5425 30.5697 19.2363 30.5742C19.925 30.5708 20.6098 30.4587 21.2637 30.2422C21.6992 30.0838 22.1177 29.8823 22.5137 29.6416ZM7.67871 16.2588C7.48317 17.0455 7.37341 17.8506 7.35059 18.6602L7.34668 19.0078C7.34478 21.2382 7.98543 23.4219 9.19238 25.2988C10.3996 27.1757 12.1218 28.6664 14.1543 29.5938L13.6484 29.8945C13.302 30.1097 12.9729 30.3527 12.666 30.6211C10.5753 29.4842 8.83013 27.8046 7.61523 25.7607C6.40048 23.7171 5.76102 21.384 5.76367 19.0078C5.77562 18.0821 5.88677 17.1607 6.0957 16.2588H7.67871ZM31.9512 16.3057C32.1399 17.1938 32.2348 18.0998 32.2354 19.0078C32.2359 21.3204 31.6282 23.5928 30.4727 25.5977C29.3167 27.6023 27.6534 29.2698 25.6494 30.4316C25.4017 30.2207 25.1365 30.0298 24.8574 29.8623C24.6273 29.7042 24.3834 29.5673 24.1289 29.4521C26.0821 28.4909 27.7271 27.003 28.877 25.1572C30.0271 23.3116 30.6367 21.1812 30.6367 19.0078C30.6497 18.1314 30.5591 17.2559 30.3672 16.4004L31.9512 16.3057ZM19.9336 22.168C20.6377 22.2925 21.2896 22.6215 21.8076 23.1133C22.3255 23.6049 22.6865 24.2375 22.8467 24.9326C23.0774 25.8745 22.9299 26.8696 22.4355 27.7041C21.9409 28.5387 21.1385 29.1472 20.2002 29.3994C19.2623 29.6516 18.2629 29.5273 17.415 29.0537C16.5673 28.58 15.9386 27.7942 15.6641 26.8643C15.3893 25.9344 15.4897 24.9342 15.9443 24.0771C16.3991 23.2203 17.1724 22.5743 18.0977 22.2783C18.3957 22.2222 18.6972 22.1852 19 22.168H19.9336ZM33.3916 7.61621C33.5998 7.50652 33.8485 7.50652 34.0566 7.61621C34.4641 7.78127 34.8566 7.98233 35.2285 8.2168C36.2996 8.85851 37.1418 9.82034 37.6348 10.9658C37.8888 11.6697 38.0123 12.4143 37.999 13.1621C38.0013 13.4823 37.8954 13.7942 37.6982 14.0469C37.4843 14.3069 37.2208 14.5219 36.9229 14.6787C36.2973 15.0406 35.6179 15.3021 34.9111 15.4531C33.905 15.6727 32.8833 15.8145 31.8555 15.8789C31.2381 15.879 30.6679 15.9746 30.2725 15.9746H30.083C28.4502 15.9484 26.8227 15.7737 25.2217 15.4531C24.5107 15.2995 23.8274 15.0382 23.1953 14.6787C22.9046 14.5174 22.6469 14.303 22.4355 14.0469C22.2437 13.7932 22.1481 13.4797 22.166 13.1621C22.1729 12.4103 22.3182 11.6657 22.5938 10.9658C22.971 10.0722 23.5702 9.28864 24.335 8.69043C24.5433 8.51485 24.7659 8.35664 25 8.2168C25.287 8.04328 25.583 7.88446 25.8867 7.74219L26.1562 7.61621C26.3641 7.50652 26.6131 7.50652 26.8213 7.61621C27.221 7.86015 27.6457 8.06157 28.0879 8.2168C29.4022 8.65966 30.8263 8.65966 32.1406 8.2168C32.5779 8.06154 32.9974 7.86022 33.3916 7.61621ZM11.2412 7.52051C11.4493 7.41114 11.6981 7.41115 11.9062 7.52051L12.2549 7.67871C12.5338 7.80718 12.8042 7.95502 13.0625 8.12109C13.3204 8.27284 13.5637 8.4477 13.79 8.64258C14.5232 9.23758 15.0997 10.002 15.4688 10.8701C15.7225 11.5737 15.8462 12.3183 15.833 13.0664C15.8354 13.3866 15.7294 13.6984 15.5322 13.9512C15.321 14.2073 15.063 14.4217 14.7725 14.583C14.1371 14.9359 13.454 15.1966 12.7451 15.3574C11.1533 15.6642 9.53704 15.8286 7.91602 15.8477H7.75781C7.31449 15.8477 6.74442 15.8478 6.1748 15.7529C5.16367 15.6954 4.15849 15.5627 3.16699 15.3574C2.43498 15.2067 1.72954 14.9455 1.07617 14.583C0.778215 14.4262 0.514656 14.2112 0.300781 13.9512C0.103601 13.6984 -0.00238515 13.3867 0 13.0664C0.00720333 12.3143 0.152182 11.5698 0.427734 10.8701C0.921026 9.72441 1.76269 8.76274 2.83398 8.12109C3.20595 7.88688 3.59805 7.68557 4.00586 7.52051C4.21373 7.41112 4.46305 7.4111 4.6709 7.52051C5.06354 7.76742 5.48358 7.96929 5.92188 8.12109C7.23647 8.5642 8.66003 8.56426 9.97461 8.12109C10.4167 7.96609 10.8414 7.76453 11.2412 7.52051ZM19 5.83008C21.211 5.81293 23.3902 6.35652 25.333 7.41016C25.012 7.5625 24.7043 7.74246 24.4141 7.94727C24.1821 8.08475 23.9598 8.23857 23.749 8.40625C22.2539 7.74582 20.635 7.41101 19 7.42578C17.4176 7.44355 15.8552 7.78282 14.4082 8.42188C14.1441 8.21314 13.8692 8.01732 13.585 7.83691C13.3317 7.67903 13.094 7.53652 12.8408 7.41016C14.734 6.3902 16.8488 5.84756 19 5.83008ZM8.18555 0.0478516H8.64453C9.35262 0.174765 10.0078 0.508015 10.5264 1.00586C11.0447 1.50337 11.404 2.14292 11.5586 2.84375C11.7893 3.78595 11.6408 4.78068 11.1465 5.61523C10.6519 6.44974 9.85022 7.05823 8.91211 7.31055C7.97409 7.56279 6.97394 7.43858 6.12598 6.96484C5.27827 6.4911 4.64951 5.70534 4.375 4.77539C4.10026 3.84521 4.20153 2.84509 4.65625 1.98828C5.11105 1.13141 5.88335 0.485455 6.80859 0.189453C7.06952 0.123234 7.33411 0.0701891 7.60059 0.03125H8.1543L8.18555 0.0478516ZM30.2881 0.0478516H30.7471C31.4511 0.17264 32.1031 0.50042 32.6211 0.992188C33.1393 1.48392 33.5 2.1173 33.6602 2.8125C33.8909 3.75443 33.7434 4.74916 33.249 5.58398C32.7544 6.4186 31.952 7.02705 31.0137 7.2793C30.0758 7.53141 29.0763 7.40741 28.2285 6.93359C27.3809 6.45992 26.7521 5.67423 26.4775 4.74414C26.2027 3.81415 26.303 2.81293 26.7578 1.95605C27.2126 1.09928 27.986 0.454182 28.9111 0.158203C29.1714 0.0904447 29.4356 0.0376031 29.7021 0H30.2568L30.2881 0.0478516Z" fill="white"/>
<path d="M22.5137 29.6416C22.7215 29.5319 22.9708 29.5319 23.1787 29.6416L23.4795 29.7686C23.7781 29.9108 24.0692 30.0687 24.3506 30.2422C24.6062 30.4032 24.85 30.5827 25.0791 30.7793C25.8193 31.3671 26.3967 32.1338 26.7568 33.0068C27.0335 33.7007 27.1787 34.4406 27.1846 35.1875L27.1807 35.3066C27.1594 35.5845 27.0565 35.851 26.8838 36.0723C26.6699 36.3321 26.4064 36.547 26.1084 36.7041C25.4798 37.0591 24.8021 37.3203 24.0977 37.4785C22.4964 37.7978 20.8689 37.9724 19.2363 38C17.6037 37.9737 15.9768 37.7991 14.376 37.4785C13.6671 37.3177 12.9849 37.0567 12.3496 36.7041C12.0589 36.5427 11.8005 36.3285 11.5889 36.0723C11.3859 35.8227 11.2791 35.5088 11.2881 35.1875C11.2939 34.4406 11.4392 33.7008 11.7158 33.0068C12.0442 32.2066 12.5539 31.4933 13.2041 30.9219C13.4938 30.6741 13.8012 30.4468 14.123 30.2422L14.7715 29.8789L15.2783 29.6416L15.3584 29.6055C15.5482 29.5336 15.7613 29.5457 15.9434 29.6416C16.3392 29.8824 16.7584 30.0837 17.1943 30.2422C17.8537 30.4573 18.5425 30.5697 19.2363 30.5742C19.925 30.5708 20.6098 30.4587 21.2637 30.2422C21.6992 30.0838 22.1177 29.8823 22.5137 29.6416ZM7.67871 16.2588C7.48317 17.0455 7.37341 17.8506 7.35059 18.6602L7.34668 19.0078C7.34478 21.2382 7.98543 23.4219 9.19238 25.2988C10.3996 27.1757 12.1218 28.6664 14.1543 29.5938L13.6484 29.8945C13.302 30.1097 12.9729 30.3527 12.666 30.6211C10.5753 29.4842 8.83013 27.8046 7.61523 25.7607C6.40048 23.7171 5.76102 21.384 5.76367 19.0078C5.77562 18.0821 5.88677 17.1607 6.0957 16.2588H7.67871ZM31.9512 16.3057C32.1399 17.1938 32.2348 18.0998 32.2354 19.0078C32.2359 21.3204 31.6282 23.5928 30.4727 25.5977C29.3167 27.6023 27.6534 29.2698 25.6494 30.4316C25.4017 30.2207 25.1365 30.0298 24.8574 29.8623C24.6273 29.7042 24.3834 29.5673 24.1289 29.4521C26.0821 28.4909 27.7271 27.003 28.877 25.1572C30.0271 23.3116 30.6367 21.1812 30.6367 19.0078C30.6497 18.1314 30.5591 17.2559 30.3672 16.4004L31.9512 16.3057ZM19.9336 22.168C20.6377 22.2925 21.2896 22.6215 21.8076 23.1133C22.3255 23.6049 22.6865 24.2375 22.8467 24.9326C23.0774 25.8745 22.9299 26.8696 22.4355 27.7041C21.9409 28.5387 21.1385 29.1472 20.2002 29.3994C19.2623 29.6516 18.2629 29.5273 17.415 29.0537C16.5673 28.58 15.9386 27.7942 15.6641 26.8643C15.3893 25.9344 15.4897 24.9342 15.9443 24.0771C16.3991 23.2203 17.1724 22.5743 18.0977 22.2783C18.3957 22.2222 18.6972 22.1852 19 22.168H19.9336ZM33.3916 7.61621C33.5998 7.50652 33.8485 7.50652 34.0566 7.61621C34.4641 7.78127 34.8566 7.98233 35.2285 8.2168C36.2996 8.85851 37.1418 9.82034 37.6348 10.9658C37.8888 11.6697 38.0123 12.4143 37.999 13.1621C38.0013 13.4823 37.8954 13.7942 37.6982 14.0469C37.4843 14.3069 37.2208 14.5219 36.9229 14.6787C36.2973 15.0406 35.6179 15.3021 34.9111 15.4531C33.905 15.6727 32.8833 15.8145 31.8555 15.8789C31.2381 15.879 30.6679 15.9746 30.2725 15.9746H30.083C28.4502 15.9484 26.8227 15.7737 25.2217 15.4531C24.5107 15.2995 23.8274 15.0382 23.1953 14.6787C22.9046 14.5174 22.6469 14.303 22.4355 14.0469C22.2437 13.7932 22.1481 13.4797 22.166 13.1621C22.1729 12.4103 22.3182 11.6657 22.5938 10.9658C22.971 10.0722 23.5702 9.28864 24.335 8.69043C24.5433 8.51485 24.7659 8.35664 25 8.2168C25.287 8.04328 25.583 7.88446 25.8867 7.74219L26.1562 7.61621C26.3641 7.50652 26.6131 7.50652 26.8213 7.61621C27.221 7.86015 27.6457 8.06157 28.0879 8.2168C29.4022 8.65966 30.8263 8.65966 32.1406 8.2168C32.5779 8.06154 32.9974 7.86022 33.3916 7.61621ZM11.2412 7.52051C11.4493 7.41114 11.6981 7.41115 11.9062 7.52051L12.2549 7.67871C12.5338 7.80718 12.8042 7.95502 13.0625 8.12109C13.3204 8.27284 13.5637 8.4477 13.79 8.64258C14.5232 9.23758 15.0997 10.002 15.4688 10.8701C15.7225 11.5737 15.8462 12.3183 15.833 13.0664C15.8354 13.3866 15.7294 13.6984 15.5322 13.9512C15.321 14.2073 15.063 14.4217 14.7725 14.583C14.1371 14.9359 13.454 15.1966 12.7451 15.3574C11.1533 15.6642 9.53704 15.8286 7.91602 15.8477H7.75781C7.31449 15.8477 6.74442 15.8478 6.1748 15.7529C5.16367 15.6954 4.15849 15.5627 3.16699 15.3574C2.43498 15.2067 1.72954 14.9455 1.07617 14.583C0.778215 14.4262 0.514656 14.2112 0.300781 13.9512C0.103601 13.6984 -0.00238515 13.3867 0 13.0664C0.00720333 12.3143 0.152182 11.5698 0.427734 10.8701C0.921026 9.72441 1.76269 8.76274 2.83398 8.12109C3.20595 7.88688 3.59805 7.68557 4.00586 7.52051C4.21373 7.41112 4.46305 7.4111 4.6709 7.52051C5.06354 7.76742 5.48358 7.96929 5.92188 8.12109C7.23647 8.5642 8.66003 8.56426 9.97461 8.12109C10.4167 7.96609 10.8414 7.76453 11.2412 7.52051ZM19 5.83008C21.211 5.81293 23.3902 6.35652 25.333 7.41016C25.012 7.5625 24.7043 7.74246 24.4141 7.94727C24.1821 8.08475 23.9598 8.23857 23.749 8.40625C22.2539 7.74582 20.635 7.41101 19 7.42578C17.4176 7.44355 15.8552 7.78282 14.4082 8.42188C14.1441 8.21314 13.8692 8.01732 13.585 7.83691C13.3317 7.67903 13.094 7.53652 12.8408 7.41016C14.734 6.3902 16.8488 5.84756 19 5.83008ZM8.18555 0.0478516H8.64453C9.35262 0.174765 10.0078 0.508015 10.5264 1.00586C11.0447 1.50337 11.404 2.14292 11.5586 2.84375C11.7893 3.78595 11.6408 4.78068 11.1465 5.61523C10.6519 6.44974 9.85022 7.05823 8.91211 7.31055C7.97409 7.56279 6.97394 7.43858 6.12598 6.96484C5.27827 6.4911 4.64951 5.70534 4.375 4.77539C4.10026 3.84521 4.20153 2.84509 4.65625 1.98828C5.11105 1.13141 5.88335 0.485455 6.80859 0.189453C7.06952 0.123234 7.33411 0.0701891 7.60059 0.03125H8.1543L8.18555 0.0478516ZM30.2881 0.0478516H30.7471C31.4511 0.17264 32.1031 0.50042 32.6211 0.992188C33.1393 1.48392 33.5 2.1173 33.6602 2.8125C33.8909 3.75443 33.7434 4.74916 33.249 5.58398C32.7544 6.4186 31.952 7.02705 31.0137 7.2793C30.0758 7.53141 29.0763 7.40741 28.2285 6.93359C27.3809 6.45992 26.7521 5.67423 26.4775 4.74414C26.2027 3.81415 26.303 2.81293 26.7578 1.95605C27.2126 1.09928 27.986 0.454182 28.9111 0.158203C29.1714 0.0904447 29.4356 0.0376031 29.7021 0H30.2568L30.2881 0.0478516Z" fill="url(#paint0_linear_2001_408)"/>
<defs>
<linearGradient id="paint0_linear_2001_408" x1="-0.998716" y1="51.5159" x2="37.7651" y2="40.0796" gradientUnits="userSpaceOnUse">
<stop stop-color="#0D748B"/>
<stop offset="1" stop-color="#1A0B73"/>
</linearGradient>
</defs>
</svg>
