<svg width="36" height="36" viewBox="0 0 36 36" fill="none" xmlns="http://www.w3.org/2000/svg">
<path d="M36 27.8379C35.9999 28.705 35.668 29.5285 35.0664 30.1572L30.4727 34.9521C29.8347 35.6187 28.9369 36 28.0107 36H3.59375C1.61241 35.9999 0.000217313 34.4017 0 32.4365V11.1846H36V27.8379ZM29.5029 27.1807C28.2242 27.1807 27.1777 28.2191 27.1777 29.4873V34.207C27.1777 34.399 27.4142 34.4929 27.5479 34.3535L28.6045 33.2441L33.3428 28.2686L34.0371 27.54C34.1661 27.4045 34.069 27.1807 33.8809 27.1807H29.5029ZM4.83105 5.375C4.83106 5.47555 4.8383 5.57413 4.84961 5.67188C4.99816 6.94885 6.08883 7.94411 7.41016 7.94434H7.5791C8.90072 7.94412 9.99111 6.94885 10.1396 5.67188C10.151 5.57413 10.1582 5.47555 10.1582 5.375V3.14551H25.418V5.375C25.418 5.47548 25.4252 5.5742 25.4365 5.67188C25.5851 6.94901 26.6765 7.94434 27.998 7.94434H28.165C29.4869 7.94434 30.578 6.949 30.7266 5.67188C30.7379 5.57413 30.7451 5.47555 30.7451 5.375V3.14551H32.4062C34.3875 3.14551 36 4.75103 36 6.72461V9.43652H0V6.72461C0 4.75139 1.61199 3.14564 3.59375 3.14551H4.83105V5.375ZM7.67383 0C8.50193 7.01668e-05 9.17522 0.642647 9.17578 1.43262L9.17676 5.55762C9.17652 6.34764 8.50202 6.99023 7.67383 6.99023H7.50293C6.67464 6.99023 6.00065 6.3475 6 5.55762V1.43262C6.00027 0.642694 6.67389 0.000124573 7.50195 0H7.67383ZM28.1445 0C28.9727 0.000211174 29.6459 0.642733 29.6465 1.43262L29.6475 5.55762C29.6472 6.34764 28.9729 6.99023 28.1445 6.99023H27.9736C27.1455 6.99023 26.4711 6.3475 26.4707 5.55762V1.43262C26.471 0.642618 27.1453 0 27.9736 0H28.1445Z" fill="white"/>
<path d="M36 27.8379C35.9999 28.705 35.668 29.5285 35.0664 30.1572L30.4727 34.9521C29.8347 35.6187 28.9369 36 28.0107 36H3.59375C1.61241 35.9999 0.000217313 34.4017 0 32.4365V11.1846H36V27.8379ZM29.5029 27.1807C28.2242 27.1807 27.1777 28.2191 27.1777 29.4873V34.207C27.1777 34.399 27.4142 34.4929 27.5479 34.3535L28.6045 33.2441L33.3428 28.2686L34.0371 27.54C34.1661 27.4045 34.069 27.1807 33.8809 27.1807H29.5029ZM4.83105 5.375C4.83106 5.47555 4.8383 5.57413 4.84961 5.67188C4.99816 6.94885 6.08883 7.94411 7.41016 7.94434H7.5791C8.90072 7.94412 9.99111 6.94885 10.1396 5.67188C10.151 5.57413 10.1582 5.47555 10.1582 5.375V3.14551H25.418V5.375C25.418 5.47548 25.4252 5.5742 25.4365 5.67188C25.5851 6.94901 26.6765 7.94434 27.998 7.94434H28.165C29.4869 7.94434 30.578 6.949 30.7266 5.67188C30.7379 5.57413 30.7451 5.47555 30.7451 5.375V3.14551H32.4062C34.3875 3.14551 36 4.75103 36 6.72461V9.43652H0V6.72461C0 4.75139 1.61199 3.14564 3.59375 3.14551H4.83105V5.375ZM7.67383 0C8.50193 7.01668e-05 9.17522 0.642647 9.17578 1.43262L9.17676 5.55762C9.17652 6.34764 8.50202 6.99023 7.67383 6.99023H7.50293C6.67464 6.99023 6.00065 6.3475 6 5.55762V1.43262C6.00027 0.642694 6.67389 0.000124573 7.50195 0H7.67383ZM28.1445 0C28.9727 0.000211174 29.6459 0.642733 29.6465 1.43262L29.6475 5.55762C29.6472 6.34764 28.9729 6.99023 28.1445 6.99023H27.9736C27.1455 6.99023 26.4711 6.3475 26.4707 5.55762V1.43262C26.471 0.642618 27.1453 0 27.9736 0H28.1445Z" fill="url(#paint0_linear_2001_398)"/>
<defs>
<linearGradient id="paint0_linear_2001_398" x1="-0.946153" y1="48.8047" x2="35.7775" y2="37.9704" gradientUnits="userSpaceOnUse">
<stop stop-color="#0D748B"/>
<stop offset="1" stop-color="#1A0B73"/>
</linearGradient>
</defs>
</svg>
