<svg width="36" height="36" viewBox="0 0 36 36" fill="none" xmlns="http://www.w3.org/2000/svg">
<path d="M17.1973 18.8945L35.8652 20.1885C35.2718 25.0197 32.7339 29.5972 28.46 32.6484C20.3698 38.4245 9.12921 36.5485 3.35254 28.459C-2.42376 20.3696 -0.548967 9.12815 7.54102 3.35156C9.3863 2.03435 11.396 1.11673 13.4668 0.578125L17.1973 18.8945ZM15.335 0.196289C21.8111 -0.767926 28.5831 1.8472 32.6484 7.54102C34.9754 10.8001 36.0599 14.5704 35.9971 18.2891L18.7891 17.0996L15.335 0.196289Z" fill="white"/>
<path d="M17.1973 18.8945L35.8652 20.1885C35.2718 25.0197 32.7339 29.5972 28.46 32.6484C20.3698 38.4245 9.12921 36.5485 3.35254 28.459C-2.42376 20.3696 -0.548967 9.12815 7.54102 3.35156C9.3863 2.03435 11.396 1.11673 13.4668 0.578125L17.1973 18.8945ZM15.335 0.196289C21.8111 -0.767926 28.5831 1.8472 32.6484 7.54102C34.9754 10.8001 36.0599 14.5704 35.9971 18.2891L18.7891 17.0996L15.335 0.196289Z" fill="url(#paint0_linear_2001_383)"/>
<defs>
<linearGradient id="paint0_linear_2001_383" x1="-0.946139" y1="48.8045" x2="35.777" y2="37.9705" gradientUnits="userSpaceOnUse">
<stop stop-color="#0D748B"/>
<stop offset="1" stop-color="#1A0B73"/>
</linearGradient>
</defs>
</svg>
