<svg width="36" height="37" viewBox="0 0 36 37" fill="none" xmlns="http://www.w3.org/2000/svg">
<path d="M28.6611 1.97363C29.991 0.621359 33.0649 -0.308405 34.3945 1.04395L35.3496 2.01562C36.6792 3.36796 35.7657 6.49498 34.4365 7.84766L27.9131 13.9756L29.9072 28.3018C29.9904 28.8934 29.6998 29.7804 29.2842 30.2031L28.0381 31.4707C27.5811 31.8931 27.041 31.8092 26.75 31.2598L21.4727 20.5684L12.374 28.0059L13.5371 32.9082C13.5784 33.4998 13.2466 34.3869 12.8311 34.8096L11.585 36.0771C11.1695 36.5419 10.5464 36.4577 10.2139 35.9512L8.30176 29.9502C7.96931 29.4432 7.26314 28.7249 6.76465 28.3867L0.408203 26.0195C-0.0902891 25.6815 -0.1324 25.0477 0.283203 24.625L1.53027 23.3574C1.94558 22.9351 2.77639 22.5965 3.39941 22.6387L8.46875 23.8643L15.6982 14.6943L4.97852 9.2002C4.43829 8.90453 4.3549 8.31237 4.77051 7.88965L6.0166 6.62207C6.43186 6.19965 7.26361 5.90368 7.88672 5.98828L22.6777 8.05957L28.6611 1.97363ZM29.6162 16.8916C30.1147 16.7224 30.6967 16.8489 31.1123 17.2715L31.5283 17.6943C32.1096 18.3283 32.1097 19.3001 31.5283 19.8916L30.1152 20.9482C29.9075 21.117 29.7416 21.0322 29.7002 20.7363L29.6162 20.0186V19.9766L29.2842 17.4834V17.3564C29.2842 17.1451 29.4092 16.9762 29.5752 16.8916H29.6162ZM32.4004 2.77637C31.5695 1.93136 30.6132 1.93165 29.6992 2.86133C29.3673 3.19923 30.5306 3.07309 31.8184 4.38281C33.1473 5.73445 33.1065 7.00177 33.4385 6.66504C34.3526 5.73532 34.3944 4.76297 33.5635 3.95996L32.4004 2.77637ZM16.0713 4.4248C16.6947 3.83318 17.6508 3.83318 18.2324 4.4248L18.6475 4.84766C19.0626 5.22782 19.1874 5.86121 19.0215 6.36816V6.41113C18.9382 6.62226 18.7305 6.74912 18.4814 6.70703L15.2402 6.24219C14.9498 6.19995 14.8672 6.03076 15.0332 5.86133L16.0713 4.4248Z" fill="white"/>
<path d="M28.6611 1.97363C29.991 0.621359 33.0649 -0.308405 34.3945 1.04395L35.3496 2.01562C36.6792 3.36796 35.7657 6.49498 34.4365 7.84766L27.9131 13.9756L29.9072 28.3018C29.9904 28.8934 29.6998 29.7804 29.2842 30.2031L28.0381 31.4707C27.5811 31.8931 27.041 31.8092 26.75 31.2598L21.4727 20.5684L12.374 28.0059L13.5371 32.9082C13.5784 33.4998 13.2466 34.3869 12.8311 34.8096L11.585 36.0771C11.1695 36.5419 10.5464 36.4577 10.2139 35.9512L8.30176 29.9502C7.96931 29.4432 7.26314 28.7249 6.76465 28.3867L0.408203 26.0195C-0.0902891 25.6815 -0.1324 25.0477 0.283203 24.625L1.53027 23.3574C1.94558 22.9351 2.77639 22.5965 3.39941 22.6387L8.46875 23.8643L15.6982 14.6943L4.97852 9.2002C4.43829 8.90453 4.3549 8.31237 4.77051 7.88965L6.0166 6.62207C6.43186 6.19965 7.26361 5.90368 7.88672 5.98828L22.6777 8.05957L28.6611 1.97363ZM29.6162 16.8916C30.1147 16.7224 30.6967 16.8489 31.1123 17.2715L31.5283 17.6943C32.1096 18.3283 32.1097 19.3001 31.5283 19.8916L30.1152 20.9482C29.9075 21.117 29.7416 21.0322 29.7002 20.7363L29.6162 20.0186V19.9766L29.2842 17.4834V17.3564C29.2842 17.1451 29.4092 16.9762 29.5752 16.8916H29.6162ZM32.4004 2.77637C31.5695 1.93136 30.6132 1.93165 29.6992 2.86133C29.3673 3.19923 30.5306 3.07309 31.8184 4.38281C33.1473 5.73445 33.1065 7.00177 33.4385 6.66504C34.3526 5.73532 34.3944 4.76297 33.5635 3.95996L32.4004 2.77637ZM16.0713 4.4248C16.6947 3.83318 17.6508 3.83318 18.2324 4.4248L18.6475 4.84766C19.0626 5.22782 19.1874 5.86121 19.0215 6.36816V6.41113C18.9382 6.62226 18.7305 6.74912 18.4814 6.70703L15.2402 6.24219C14.9498 6.19995 14.8672 6.03076 15.0332 5.86133L16.0713 4.4248Z" fill="url(#paint0_linear_2001_390)"/>
<defs>
<linearGradient id="paint0_linear_2001_390" x1="-0.946153" y1="49.1874" x2="35.7775" y2="38.353" gradientUnits="userSpaceOnUse">
<stop stop-color="#0D748B"/>
<stop offset="1" stop-color="#1A0B73"/>
</linearGradient>
</defs>
</svg>
